<svg width="24" height="24" viewBox="0 0 24 24" fill="none" xmlns="http://www.w3.org/2000/svg">
<path opacity="0.4" d="M6.447 22C3.996 22 2 19.9698 2 17.4755V12.5144C2 10.0252 3.99 8 6.437 8L17.553 8C20.005 8 22 10.0302 22 12.5256V17.4846C22 19.9748 20.01 22 17.563 22H16.623H6.447Z" fill="#7C89E4"/>
<path d="M11.455 2.22128L8.54604 5.06706C8.24604 5.36119 8.24604 5.83451 8.54804 6.12766C8.85004 6.41984 9.33704 6.41886 9.63704 6.12571L11.23 4.56647V6.06144V14.4517C11.23 14.8657 11.575 15.2017 12 15.2017C12.426 15.2017 12.77 14.8657 12.77 14.4517V4.56647L14.363 6.12571C14.663 6.41886 15.15 6.41984 15.452 6.12766C15.603 5.9806 15.679 5.78874 15.679 5.5959C15.679 5.40501 15.603 5.21315 15.454 5.06706L12.546 2.22128C12.401 2.08006 12.205 2.0002 12 2.0002C11.796 2.0002 11.6 2.08006 11.455 2.22128" fill="#7C89E4"/>
</svg>
