<svg width="107" height="13" viewBox="0 0 107 13" fill="none" xmlns="http://www.w3.org/2000/svg">
<g filter="url(#filter0_bi_2_11)">
<path d="M1.89053 10.3979L0.223705 1.23038C0.142951 0.786232 0.645604 0.470951 1.01031 0.736993L4.94792 3.60938C5.13989 3.74941 5.4039 3.735 5.57948 3.5749L9.16311 0.307193C9.35398 0.133144 9.64602 0.133144 9.83689 0.307193L13.4205 3.5749C13.5961 3.735 13.8601 3.74941 14.0521 3.60938L17.9897 0.736993C18.3544 0.47095 18.857 0.786233 18.7763 1.23038L17.1095 10.3979C17.0529 10.709 16.7254 10.8902 16.4318 10.7727L9.6857 8.07428C9.56649 8.0266 9.43351 8.0266 9.31431 8.07428L2.56816 10.7727C2.27459 10.8902 1.9471 10.709 1.89053 10.3979Z" fill="url(#paint0_linear_2_11)"/>
<path d="M1.98892 10.38L0.322092 1.21249C0.257489 0.857174 0.659611 0.604948 0.951375 0.817782L4.88899 3.69017C5.11935 3.85821 5.43616 3.84091 5.64686 3.64879L9.23049 0.381086C9.38319 0.241847 9.61681 0.241847 9.76952 0.381086L13.3531 3.64879C13.5638 3.84091 13.8807 3.85821 14.111 3.69017L18.0486 0.817782C18.3404 0.604948 18.7425 0.857174 18.6779 1.21249L17.0111 10.3801C16.9658 10.6289 16.7038 10.7738 16.469 10.6799L9.72283 7.98143C9.57979 7.92421 9.42021 7.92421 9.27717 7.98143L2.53103 10.6799C2.29617 10.7738 2.03417 10.6289 1.98892 10.38Z" stroke="url(#paint1_linear_2_11)" stroke-opacity="0.1" stroke-width="0.2"/>
</g>
<path d="M34.136 1.6L32.168 8.188L31.628 10L30.524 8.464L28.856 6.172L27.2 8.464L26.096 9.988L25.556 8.188L23.6 1.6H25.16L26.672 6.664L27.944 4.9L28.184 4.564L28.868 3.628L29.552 4.564L29.792 4.9L31.064 6.664L32.576 1.6H34.136ZM42.2305 2.26L42.2425 2.272C42.6505 2.692 42.9025 3.256 42.9025 3.88C42.9025 4.792 42.3625 5.584 41.5825 5.944C41.3785 6.04 41.1625 6.1 40.9345 6.124C40.9105 6.124 40.8865 6.124 40.8625 6.124V6.136H36.8425V10H35.3425V1.6H40.6345C41.2585 1.6 41.8225 1.852 42.2305 2.26ZM40.9585 4.576V4.564C41.2345 4.444 41.4145 4.168 41.4145 3.868C41.4145 3.592 41.2705 3.4 41.1865 3.316C41.0905 3.22 40.9105 3.1 40.6465 3.1H36.8425V4.648H40.6465C40.7545 4.648 40.8625 4.624 40.9585 4.576ZM52.0401 3.916L50.5401 3.928V3.88C50.5401 3.46 50.1921 3.112 49.7721 3.112H46.3641C45.9441 3.112 45.5961 3.46 45.5961 3.88V3.928C45.5961 4.348 45.9441 4.696 46.3641 4.696H49.3881C50.1681 4.696 50.8641 5.032 51.3441 5.56C51.3801 5.596 51.4041 5.632 51.4401 5.668C51.8121 6.124 52.0401 6.712 52.0401 7.348C52.0401 8.812 50.8521 10 49.3881 10H46.7601C45.2961 10 44.1081 8.812 44.1081 7.348H45.6081C45.6081 7.984 46.1241 8.5 46.7601 8.5H49.3881C50.0241 8.5 50.5521 7.984 50.5521 7.348C50.5521 6.712 50.0241 6.196 49.3881 6.196H46.3641C45.7521 6.196 45.2001 5.956 44.7921 5.56C44.6841 5.452 44.5881 5.332 44.5041 5.2C44.2521 4.84 44.1081 4.396 44.1081 3.916V3.868C44.1081 2.62 45.1161 1.6 46.3641 1.6H49.7721C51.0201 1.6 52.0401 2.62 52.0401 3.868V3.916ZM63.2844 1.6L63.2724 1.612C65.5884 1.612 67.4724 3.484 67.4724 5.8C67.4724 6.832 67.1004 7.78 66.4764 8.512C66.4044 8.596 66.3204 8.68 66.2364 8.764C65.4804 9.532 64.4364 10 63.2844 10H59.0844V1.6H63.2844ZM63.2724 8.512C64.7604 8.512 65.9724 7.3 65.9724 5.812C65.9724 4.324 64.7604 3.112 63.2724 3.112H60.5724V8.512H63.2724ZM70.182 10H68.682V1.6H70.182V10ZM75.5773 3.1C74.0893 3.1 72.8773 4.312 72.8773 5.8C72.8773 7.288 74.0893 8.5 75.5773 8.5H78.2773V6.892H75.5773V5.392H79.7773V10H75.5773C73.2613 10 71.3773 8.116 71.3773 5.8C71.3773 3.484 73.2613 1.6 75.5773 1.6H79.7773V3.1H75.5773ZM82.475 10H80.975V1.6H82.475V10ZM83.6703 1.612H92.0583V3.112H88.6143V10.012H87.1143V3.112H83.6703V1.612ZM98.2091 8.5L98.9771 10H97.2971L96.5291 8.5L94.6931 4.9L92.8571 8.5L92.0891 10H90.4091L91.1771 8.5L94.6931 1.6L98.2091 8.5ZM101.905 8.5L106.309 8.512V10.012H102.049C101.629 10.012 101.233 9.916 100.873 9.736C100.345 9.472 99.9132 9.04 99.6612 8.512C99.4812 8.152 99.3852 7.756 99.3852 7.336V1.612H100.885V7.48C100.957 8.008 101.377 8.428 101.905 8.5Z" fill="#676767"/>
<defs>
<filter id="filter0_bi_2_11" x="-2.78493" y="-2.82334" width="24.5699" height="16.6321" filterUnits="userSpaceOnUse" color-interpolation-filters="sRGB">
<feFlood flood-opacity="0" result="BackgroundImageFix"/>
<feGaussianBlur in="BackgroundImageFix" stdDeviation="1.5"/>
<feComposite in2="SourceAlpha" operator="in" result="effect1_backgroundBlur_2_11"/>
<feBlend mode="normal" in="SourceGraphic" in2="effect1_backgroundBlur_2_11" result="shape"/>
<feColorMatrix in="SourceAlpha" type="matrix" values="0 0 0 0 0 0 0 0 0 0 0 0 0 0 0 0 0 0 127 0" result="hardAlpha"/>
<feOffset dy="0.5"/>
<feGaussianBlur stdDeviation="1"/>
<feComposite in2="hardAlpha" operator="arithmetic" k2="-1" k3="1"/>
<feColorMatrix type="matrix" values="0 0 0 0 1 0 0 0 0 1 0 0 0 0 1 0 0 0 0.4 0"/>
<feBlend mode="normal" in2="shape" result="effect2_innerShadow_2_11"/>
</filter>
<linearGradient id="paint0_linear_2_11" x1="0.791666" y1="2.2" x2="20.7539" y2="6.98893" gradientUnits="userSpaceOnUse">
<stop stop-color="#FFC542"/>
<stop offset="1" stop-color="#FED987"/>
</linearGradient>
<linearGradient id="paint1_linear_2_11" x1="0.59375" y1="0.5" x2="19" y2="0.5" gradientUnits="userSpaceOnUse">
<stop stop-color="#FD84DC"/>
<stop offset="1" stop-color="#7FD6FA"/>
</linearGradient>
</defs>
</svg>
