<svg width="286" height="242" viewBox="0 0 286 242" fill="none" xmlns="http://www.w3.org/2000/svg">
<path d="M4.69922 195.451V204H3.01172V197.396L0.984375 198.041V196.711L4.51758 195.451H4.69922ZM13.2188 198.984V200.461C13.2188 201.102 13.1504 201.654 13.0137 202.119C12.877 202.58 12.6797 202.959 12.4219 203.256C12.168 203.549 11.8652 203.766 11.5137 203.906C11.1621 204.047 10.7715 204.117 10.3418 204.117C9.99805 204.117 9.67773 204.074 9.38086 203.988C9.08398 203.898 8.81641 203.76 8.57812 203.572C8.34375 203.385 8.14062 203.148 7.96875 202.863C7.80078 202.574 7.67188 202.23 7.58203 201.832C7.49219 201.434 7.44727 200.977 7.44727 200.461V198.984C7.44727 198.344 7.51562 197.795 7.65234 197.338C7.79297 196.877 7.99023 196.5 8.24414 196.207C8.50195 195.914 8.80664 195.699 9.1582 195.562C9.50977 195.422 9.90039 195.352 10.3301 195.352C10.6738 195.352 10.9922 195.396 11.2852 195.486C11.582 195.572 11.8496 195.707 12.0879 195.891C12.3262 196.074 12.5293 196.311 12.6973 196.6C12.8652 196.885 12.9941 197.227 13.084 197.625C13.1738 198.02 13.2188 198.473 13.2188 198.984ZM11.5254 200.684V198.756C11.5254 198.447 11.5078 198.178 11.4727 197.947C11.4414 197.717 11.3926 197.521 11.3262 197.361C11.2598 197.197 11.1777 197.064 11.0801 196.963C10.9824 196.861 10.8711 196.787 10.7461 196.74C10.6211 196.693 10.4824 196.67 10.3301 196.67C10.1387 196.67 9.96875 196.707 9.82031 196.781C9.67578 196.855 9.55273 196.975 9.45117 197.139C9.34961 197.299 9.27148 197.514 9.2168 197.783C9.16602 198.049 9.14062 198.373 9.14062 198.756V200.684C9.14062 200.992 9.15625 201.264 9.1875 201.498C9.22266 201.732 9.27344 201.934 9.33984 202.102C9.41016 202.266 9.49219 202.4 9.58594 202.506C9.68359 202.607 9.79492 202.682 9.91992 202.729C10.0488 202.775 10.1895 202.799 10.3418 202.799C10.5293 202.799 10.6953 202.762 10.8398 202.688C10.9883 202.609 11.1133 202.488 11.2148 202.324C11.3203 202.156 11.3984 201.938 11.4492 201.668C11.5 201.398 11.5254 201.07 11.5254 200.684ZM20.1094 198.984V200.461C20.1094 201.102 20.041 201.654 19.9043 202.119C19.7676 202.58 19.5703 202.959 19.3125 203.256C19.0586 203.549 18.7559 203.766 18.4043 203.906C18.0527 204.047 17.6621 204.117 17.2324 204.117C16.8887 204.117 16.5684 204.074 16.2715 203.988C15.9746 203.898 15.707 203.76 15.4688 203.572C15.2344 203.385 15.0312 203.148 14.8594 202.863C14.6914 202.574 14.5625 202.23 14.4727 201.832C14.3828 201.434 14.3379 200.977 14.3379 200.461V198.984C14.3379 198.344 14.4062 197.795 14.543 197.338C14.6836 196.877 14.8809 196.5 15.1348 196.207C15.3926 195.914 15.6973 195.699 16.0488 195.562C16.4004 195.422 16.791 195.352 17.2207 195.352C17.5645 195.352 17.8828 195.396 18.1758 195.486C18.4727 195.572 18.7402 195.707 18.9785 195.891C19.2168 196.074 19.4199 196.311 19.5879 196.6C19.7559 196.885 19.8848 197.227 19.9746 197.625C20.0645 198.02 20.1094 198.473 20.1094 198.984ZM18.416 200.684V198.756C18.416 198.447 18.3984 198.178 18.3633 197.947C18.332 197.717 18.2832 197.521 18.2168 197.361C18.1504 197.197 18.0684 197.064 17.9707 196.963C17.873 196.861 17.7617 196.787 17.6367 196.74C17.5117 196.693 17.373 196.67 17.2207 196.67C17.0293 196.67 16.8594 196.707 16.7109 196.781C16.5664 196.855 16.4434 196.975 16.3418 197.139C16.2402 197.299 16.1621 197.514 16.1074 197.783C16.0566 198.049 16.0312 198.373 16.0312 198.756V200.684C16.0312 200.992 16.0469 201.264 16.0781 201.498C16.1133 201.732 16.1641 201.934 16.2305 202.102C16.3008 202.266 16.3828 202.4 16.4766 202.506C16.5742 202.607 16.6855 202.682 16.8105 202.729C16.9395 202.775 17.0801 202.799 17.2324 202.799C17.4199 202.799 17.5859 202.762 17.7305 202.688C17.8789 202.609 18.0039 202.488 18.1055 202.324C18.2109 202.156 18.2891 201.938 18.3398 201.668C18.3906 201.398 18.416 201.07 18.416 200.684ZM25.3711 195.451V204H23.6836V197.396L21.6562 198.041V196.711L25.1895 195.451H25.3711ZM33.8906 198.984V200.461C33.8906 201.102 33.8223 201.654 33.6855 202.119C33.5488 202.58 33.3516 202.959 33.0938 203.256C32.8398 203.549 32.5371 203.766 32.1855 203.906C31.834 204.047 31.4434 204.117 31.0137 204.117C30.6699 204.117 30.3496 204.074 30.0527 203.988C29.7559 203.898 29.4883 203.76 29.25 203.572C29.0156 203.385 28.8125 203.148 28.6406 202.863C28.4727 202.574 28.3438 202.23 28.2539 201.832C28.1641 201.434 28.1191 200.977 28.1191 200.461V198.984C28.1191 198.344 28.1875 197.795 28.3242 197.338C28.4648 196.877 28.6621 196.5 28.916 196.207C29.1738 195.914 29.4785 195.699 29.8301 195.562C30.1816 195.422 30.5723 195.352 31.002 195.352C31.3457 195.352 31.6641 195.396 31.957 195.486C32.2539 195.572 32.5215 195.707 32.7598 195.891C32.998 196.074 33.2012 196.311 33.3691 196.6C33.5371 196.885 33.666 197.227 33.7559 197.625C33.8457 198.02 33.8906 198.473 33.8906 198.984ZM32.1973 200.684V198.756C32.1973 198.447 32.1797 198.178 32.1445 197.947C32.1133 197.717 32.0645 197.521 31.998 197.361C31.9316 197.197 31.8496 197.064 31.752 196.963C31.6543 196.861 31.543 196.787 31.418 196.74C31.293 196.693 31.1543 196.67 31.002 196.67C30.8105 196.67 30.6406 196.707 30.4922 196.781C30.3477 196.855 30.2246 196.975 30.123 197.139C30.0215 197.299 29.9434 197.514 29.8887 197.783C29.8379 198.049 29.8125 198.373 29.8125 198.756V200.684C29.8125 200.992 29.8281 201.264 29.8594 201.498C29.8945 201.732 29.9453 201.934 30.0117 202.102C30.082 202.266 30.1641 202.4 30.2578 202.506C30.3555 202.607 30.4668 202.682 30.5918 202.729C30.7207 202.775 30.8613 202.799 31.0137 202.799C31.2012 202.799 31.3672 202.762 31.5117 202.688C31.6602 202.609 31.7852 202.488 31.8867 202.324C31.9922 202.156 32.0703 201.938 32.1211 201.668C32.1719 201.398 32.1973 201.07 32.1973 200.684ZM39.1523 195.451V204H37.4648V197.396L35.4375 198.041V196.711L38.9707 195.451H39.1523ZM47.6719 198.984V200.461C47.6719 201.102 47.6035 201.654 47.4668 202.119C47.3301 202.58 47.1328 202.959 46.875 203.256C46.6211 203.549 46.3184 203.766 45.9668 203.906C45.6152 204.047 45.2246 204.117 44.7949 204.117C44.4512 204.117 44.1309 204.074 43.834 203.988C43.5371 203.898 43.2695 203.76 43.0312 203.572C42.7969 203.385 42.5938 203.148 42.4219 202.863C42.2539 202.574 42.125 202.23 42.0352 201.832C41.9453 201.434 41.9004 200.977 41.9004 200.461V198.984C41.9004 198.344 41.9688 197.795 42.1055 197.338C42.2461 196.877 42.4434 196.5 42.6973 196.207C42.9551 195.914 43.2598 195.699 43.6113 195.562C43.9629 195.422 44.3535 195.352 44.7832 195.352C45.127 195.352 45.4453 195.396 45.7383 195.486C46.0352 195.572 46.3027 195.707 46.541 195.891C46.7793 196.074 46.9824 196.311 47.1504 196.6C47.3184 196.885 47.4473 197.227 47.5371 197.625C47.627 198.02 47.6719 198.473 47.6719 198.984ZM45.9785 200.684V198.756C45.9785 198.447 45.9609 198.178 45.9258 197.947C45.8945 197.717 45.8457 197.521 45.7793 197.361C45.7129 197.197 45.6309 197.064 45.5332 196.963C45.4355 196.861 45.3242 196.787 45.1992 196.74C45.0742 196.693 44.9355 196.67 44.7832 196.67C44.5918 196.67 44.4219 196.707 44.2734 196.781C44.1289 196.855 44.0059 196.975 43.9043 197.139C43.8027 197.299 43.7246 197.514 43.6699 197.783C43.6191 198.049 43.5938 198.373 43.5938 198.756V200.684C43.5938 200.992 43.6094 201.264 43.6406 201.498C43.6758 201.732 43.7266 201.934 43.793 202.102C43.8633 202.266 43.9453 202.4 44.0391 202.506C44.1367 202.607 44.248 202.682 44.373 202.729C44.502 202.775 44.6426 202.799 44.7949 202.799C44.9824 202.799 45.1484 202.762 45.293 202.688C45.4414 202.609 45.5664 202.488 45.668 202.324C45.7734 202.156 45.8516 201.938 45.9023 201.668C45.9531 201.398 45.9785 201.07 45.9785 200.684ZM52.9336 195.451V204H51.2461V197.396L49.2188 198.041V196.711L52.752 195.451H52.9336ZM61.4531 198.984V200.461C61.4531 201.102 61.3848 201.654 61.248 202.119C61.1113 202.58 60.9141 202.959 60.6562 203.256C60.4023 203.549 60.0996 203.766 59.748 203.906C59.3965 204.047 59.0059 204.117 58.5762 204.117C58.2324 204.117 57.9121 204.074 57.6152 203.988C57.3184 203.898 57.0508 203.76 56.8125 203.572C56.5781 203.385 56.375 203.148 56.2031 202.863C56.0352 202.574 55.9062 202.23 55.8164 201.832C55.7266 201.434 55.6816 200.977 55.6816 200.461V198.984C55.6816 198.344 55.75 197.795 55.8867 197.338C56.0273 196.877 56.2246 196.5 56.4785 196.207C56.7363 195.914 57.041 195.699 57.3926 195.562C57.7441 195.422 58.1348 195.352 58.5645 195.352C58.9082 195.352 59.2266 195.396 59.5195 195.486C59.8164 195.572 60.084 195.707 60.3223 195.891C60.5605 196.074 60.7637 196.311 60.9316 196.6C61.0996 196.885 61.2285 197.227 61.3184 197.625C61.4082 198.02 61.4531 198.473 61.4531 198.984ZM59.7598 200.684V198.756C59.7598 198.447 59.7422 198.178 59.707 197.947C59.6758 197.717 59.627 197.521 59.5605 197.361C59.4941 197.197 59.4121 197.064 59.3145 196.963C59.2168 196.861 59.1055 196.787 58.9805 196.74C58.8555 196.693 58.7168 196.67 58.5645 196.67C58.373 196.67 58.2031 196.707 58.0547 196.781C57.9102 196.855 57.7871 196.975 57.6855 197.139C57.584 197.299 57.5059 197.514 57.4512 197.783C57.4004 198.049 57.375 198.373 57.375 198.756V200.684C57.375 200.992 57.3906 201.264 57.4219 201.498C57.457 201.732 57.5078 201.934 57.5742 202.102C57.6445 202.266 57.7266 202.4 57.8203 202.506C57.918 202.607 58.0293 202.682 58.1543 202.729C58.2832 202.775 58.4238 202.799 58.5762 202.799C58.7637 202.799 58.9297 202.762 59.0742 202.688C59.2227 202.609 59.3477 202.488 59.4492 202.324C59.5547 202.156 59.6328 201.938 59.6836 201.668C59.7344 201.398 59.7598 201.07 59.7598 200.684ZM68.3438 198.984V200.461C68.3438 201.102 68.2754 201.654 68.1387 202.119C68.002 202.58 67.8047 202.959 67.5469 203.256C67.293 203.549 66.9902 203.766 66.6387 203.906C66.2871 204.047 65.8965 204.117 65.4668 204.117C65.123 204.117 64.8027 204.074 64.5059 203.988C64.209 203.898 63.9414 203.76 63.7031 203.572C63.4688 203.385 63.2656 203.148 63.0938 202.863C62.9258 202.574 62.7969 202.23 62.707 201.832C62.6172 201.434 62.5723 200.977 62.5723 200.461V198.984C62.5723 198.344 62.6406 197.795 62.7773 197.338C62.918 196.877 63.1152 196.5 63.3691 196.207C63.627 195.914 63.9316 195.699 64.2832 195.562C64.6348 195.422 65.0254 195.352 65.4551 195.352C65.7988 195.352 66.1172 195.396 66.4102 195.486C66.707 195.572 66.9746 195.707 67.2129 195.891C67.4512 196.074 67.6543 196.311 67.8223 196.6C67.9902 196.885 68.1191 197.227 68.209 197.625C68.2988 198.02 68.3438 198.473 68.3438 198.984ZM66.6504 200.684V198.756C66.6504 198.447 66.6328 198.178 66.5977 197.947C66.5664 197.717 66.5176 197.521 66.4512 197.361C66.3848 197.197 66.3027 197.064 66.2051 196.963C66.1074 196.861 65.9961 196.787 65.8711 196.74C65.7461 196.693 65.6074 196.67 65.4551 196.67C65.2637 196.67 65.0938 196.707 64.9453 196.781C64.8008 196.855 64.6777 196.975 64.5762 197.139C64.4746 197.299 64.3965 197.514 64.3418 197.783C64.291 198.049 64.2656 198.373 64.2656 198.756V200.684C64.2656 200.992 64.2812 201.264 64.3125 201.498C64.3477 201.732 64.3984 201.934 64.4648 202.102C64.5352 202.266 64.6172 202.4 64.7109 202.506C64.8086 202.607 64.9199 202.682 65.0449 202.729C65.1738 202.775 65.3145 202.799 65.4668 202.799C65.6543 202.799 65.8203 202.762 65.9648 202.688C66.1133 202.609 66.2383 202.488 66.3398 202.324C66.4453 202.156 66.5234 201.938 66.5742 201.668C66.625 201.398 66.6504 201.07 66.6504 200.684ZM75.2344 198.984V200.461C75.2344 201.102 75.166 201.654 75.0293 202.119C74.8926 202.58 74.6953 202.959 74.4375 203.256C74.1836 203.549 73.8809 203.766 73.5293 203.906C73.1777 204.047 72.7871 204.117 72.3574 204.117C72.0137 204.117 71.6934 204.074 71.3965 203.988C71.0996 203.898 70.832 203.76 70.5938 203.572C70.3594 203.385 70.1562 203.148 69.9844 202.863C69.8164 202.574 69.6875 202.23 69.5977 201.832C69.5078 201.434 69.4629 200.977 69.4629 200.461V198.984C69.4629 198.344 69.5312 197.795 69.668 197.338C69.8086 196.877 70.0059 196.5 70.2598 196.207C70.5176 195.914 70.8223 195.699 71.1738 195.562C71.5254 195.422 71.916 195.352 72.3457 195.352C72.6895 195.352 73.0078 195.396 73.3008 195.486C73.5977 195.572 73.8652 195.707 74.1035 195.891C74.3418 196.074 74.5449 196.311 74.7129 196.6C74.8809 196.885 75.0098 197.227 75.0996 197.625C75.1895 198.02 75.2344 198.473 75.2344 198.984ZM73.541 200.684V198.756C73.541 198.447 73.5234 198.178 73.4883 197.947C73.457 197.717 73.4082 197.521 73.3418 197.361C73.2754 197.197 73.1934 197.064 73.0957 196.963C72.998 196.861 72.8867 196.787 72.7617 196.74C72.6367 196.693 72.498 196.67 72.3457 196.67C72.1543 196.67 71.9844 196.707 71.8359 196.781C71.6914 196.855 71.5684 196.975 71.4668 197.139C71.3652 197.299 71.2871 197.514 71.2324 197.783C71.1816 198.049 71.1562 198.373 71.1562 198.756V200.684C71.1562 200.992 71.1719 201.264 71.2031 201.498C71.2383 201.732 71.2891 201.934 71.3555 202.102C71.4258 202.266 71.5078 202.4 71.6016 202.506C71.6992 202.607 71.8105 202.682 71.9355 202.729C72.0645 202.775 72.2051 202.799 72.3574 202.799C72.5449 202.799 72.7109 202.762 72.8555 202.688C73.0039 202.609 73.1289 202.488 73.2305 202.324C73.3359 202.156 73.4141 201.938 73.4648 201.668C73.5156 201.398 73.541 201.07 73.541 200.684ZM80.4961 195.451V204H78.8086V197.396L76.7812 198.041V196.711L80.3145 195.451H80.4961ZM89.0156 198.984V200.461C89.0156 201.102 88.9473 201.654 88.8105 202.119C88.6738 202.58 88.4766 202.959 88.2188 203.256C87.9648 203.549 87.6621 203.766 87.3105 203.906C86.959 204.047 86.5684 204.117 86.1387 204.117C85.7949 204.117 85.4746 204.074 85.1777 203.988C84.8809 203.898 84.6133 203.76 84.375 203.572C84.1406 203.385 83.9375 203.148 83.7656 202.863C83.5977 202.574 83.4688 202.23 83.3789 201.832C83.2891 201.434 83.2441 200.977 83.2441 200.461V198.984C83.2441 198.344 83.3125 197.795 83.4492 197.338C83.5898 196.877 83.7871 196.5 84.041 196.207C84.2988 195.914 84.6035 195.699 84.9551 195.562C85.3066 195.422 85.6973 195.352 86.127 195.352C86.4707 195.352 86.7891 195.396 87.082 195.486C87.3789 195.572 87.6465 195.707 87.8848 195.891C88.123 196.074 88.3262 196.311 88.4941 196.6C88.6621 196.885 88.791 197.227 88.8809 197.625C88.9707 198.02 89.0156 198.473 89.0156 198.984ZM87.3223 200.684V198.756C87.3223 198.447 87.3047 198.178 87.2695 197.947C87.2383 197.717 87.1895 197.521 87.123 197.361C87.0566 197.197 86.9746 197.064 86.877 196.963C86.7793 196.861 86.668 196.787 86.543 196.74C86.418 196.693 86.2793 196.67 86.127 196.67C85.9355 196.67 85.7656 196.707 85.6172 196.781C85.4727 196.855 85.3496 196.975 85.248 197.139C85.1465 197.299 85.0684 197.514 85.0137 197.783C84.9629 198.049 84.9375 198.373 84.9375 198.756V200.684C84.9375 200.992 84.9531 201.264 84.9844 201.498C85.0195 201.732 85.0703 201.934 85.1367 202.102C85.207 202.266 85.2891 202.4 85.3828 202.506C85.4805 202.607 85.5918 202.682 85.7168 202.729C85.8457 202.775 85.9863 202.799 86.1387 202.799C86.3262 202.799 86.4922 202.762 86.6367 202.688C86.7852 202.609 86.9102 202.488 87.0117 202.324C87.1172 202.156 87.1953 201.938 87.2461 201.668C87.2969 201.398 87.3223 201.07 87.3223 200.684ZM94.2773 195.451V204H92.5898V197.396L90.5625 198.041V196.711L94.0957 195.451H94.2773ZM101.168 195.451V204H99.4805V197.396L97.4531 198.041V196.711L100.986 195.451H101.168ZM109.688 198.984V200.461C109.688 201.102 109.619 201.654 109.482 202.119C109.346 202.58 109.148 202.959 108.891 203.256C108.637 203.549 108.334 203.766 107.982 203.906C107.631 204.047 107.24 204.117 106.811 204.117C106.467 204.117 106.146 204.074 105.85 203.988C105.553 203.898 105.285 203.76 105.047 203.572C104.812 203.385 104.609 203.148 104.438 202.863C104.27 202.574 104.141 202.23 104.051 201.832C103.961 201.434 103.916 200.977 103.916 200.461V198.984C103.916 198.344 103.984 197.795 104.121 197.338C104.262 196.877 104.459 196.5 104.713 196.207C104.971 195.914 105.275 195.699 105.627 195.562C105.979 195.422 106.369 195.352 106.799 195.352C107.143 195.352 107.461 195.396 107.754 195.486C108.051 195.572 108.318 195.707 108.557 195.891C108.795 196.074 108.998 196.311 109.166 196.6C109.334 196.885 109.463 197.227 109.553 197.625C109.643 198.02 109.688 198.473 109.688 198.984ZM107.994 200.684V198.756C107.994 198.447 107.977 198.178 107.941 197.947C107.91 197.717 107.861 197.521 107.795 197.361C107.729 197.197 107.646 197.064 107.549 196.963C107.451 196.861 107.34 196.787 107.215 196.74C107.09 196.693 106.951 196.67 106.799 196.67C106.607 196.67 106.438 196.707 106.289 196.781C106.145 196.855 106.021 196.975 105.92 197.139C105.818 197.299 105.74 197.514 105.686 197.783C105.635 198.049 105.609 198.373 105.609 198.756V200.684C105.609 200.992 105.625 201.264 105.656 201.498C105.691 201.732 105.742 201.934 105.809 202.102C105.879 202.266 105.961 202.4 106.055 202.506C106.152 202.607 106.264 202.682 106.389 202.729C106.518 202.775 106.658 202.799 106.811 202.799C106.998 202.799 107.164 202.762 107.309 202.688C107.457 202.609 107.582 202.488 107.684 202.324C107.789 202.156 107.867 201.938 107.918 201.668C107.969 201.398 107.994 201.07 107.994 200.684ZM114.949 195.451V204H113.262V197.396L111.234 198.041V196.711L114.768 195.451H114.949ZM123.469 198.984V200.461C123.469 201.102 123.4 201.654 123.264 202.119C123.127 202.58 122.93 202.959 122.672 203.256C122.418 203.549 122.115 203.766 121.764 203.906C121.412 204.047 121.021 204.117 120.592 204.117C120.248 204.117 119.928 204.074 119.631 203.988C119.334 203.898 119.066 203.76 118.828 203.572C118.594 203.385 118.391 203.148 118.219 202.863C118.051 202.574 117.922 202.23 117.832 201.832C117.742 201.434 117.697 200.977 117.697 200.461V198.984C117.697 198.344 117.766 197.795 117.902 197.338C118.043 196.877 118.24 196.5 118.494 196.207C118.752 195.914 119.057 195.699 119.408 195.562C119.76 195.422 120.15 195.352 120.58 195.352C120.924 195.352 121.242 195.396 121.535 195.486C121.832 195.572 122.1 195.707 122.338 195.891C122.576 196.074 122.779 196.311 122.947 196.6C123.115 196.885 123.244 197.227 123.334 197.625C123.424 198.02 123.469 198.473 123.469 198.984ZM121.775 200.684V198.756C121.775 198.447 121.758 198.178 121.723 197.947C121.691 197.717 121.643 197.521 121.576 197.361C121.51 197.197 121.428 197.064 121.33 196.963C121.232 196.861 121.121 196.787 120.996 196.74C120.871 196.693 120.732 196.67 120.58 196.67C120.389 196.67 120.219 196.707 120.07 196.781C119.926 196.855 119.803 196.975 119.701 197.139C119.6 197.299 119.521 197.514 119.467 197.783C119.416 198.049 119.391 198.373 119.391 198.756V200.684C119.391 200.992 119.406 201.264 119.438 201.498C119.473 201.732 119.523 201.934 119.59 202.102C119.66 202.266 119.742 202.4 119.836 202.506C119.934 202.607 120.045 202.682 120.17 202.729C120.299 202.775 120.439 202.799 120.592 202.799C120.779 202.799 120.945 202.762 121.09 202.688C121.238 202.609 121.363 202.488 121.465 202.324C121.57 202.156 121.648 201.938 121.699 201.668C121.75 201.398 121.775 201.07 121.775 200.684ZM128.73 195.451V204H127.043V197.396L125.016 198.041V196.711L128.549 195.451H128.73ZM137.25 198.984V200.461C137.25 201.102 137.182 201.654 137.045 202.119C136.908 202.58 136.711 202.959 136.453 203.256C136.199 203.549 135.896 203.766 135.545 203.906C135.193 204.047 134.803 204.117 134.373 204.117C134.029 204.117 133.709 204.074 133.412 203.988C133.115 203.898 132.848 203.76 132.609 203.572C132.375 203.385 132.172 203.148 132 202.863C131.832 202.574 131.703 202.23 131.613 201.832C131.523 201.434 131.479 200.977 131.479 200.461V198.984C131.479 198.344 131.547 197.795 131.684 197.338C131.824 196.877 132.021 196.5 132.275 196.207C132.533 195.914 132.838 195.699 133.189 195.562C133.541 195.422 133.932 195.352 134.361 195.352C134.705 195.352 135.023 195.396 135.316 195.486C135.613 195.572 135.881 195.707 136.119 195.891C136.357 196.074 136.561 196.311 136.729 196.6C136.896 196.885 137.025 197.227 137.115 197.625C137.205 198.02 137.25 198.473 137.25 198.984ZM135.557 200.684V198.756C135.557 198.447 135.539 198.178 135.504 197.947C135.473 197.717 135.424 197.521 135.357 197.361C135.291 197.197 135.209 197.064 135.111 196.963C135.014 196.861 134.902 196.787 134.777 196.74C134.652 196.693 134.514 196.67 134.361 196.67C134.17 196.67 134 196.707 133.852 196.781C133.707 196.855 133.584 196.975 133.482 197.139C133.381 197.299 133.303 197.514 133.248 197.783C133.197 198.049 133.172 198.373 133.172 198.756V200.684C133.172 200.992 133.188 201.264 133.219 201.498C133.254 201.732 133.305 201.934 133.371 202.102C133.441 202.266 133.523 202.4 133.617 202.506C133.715 202.607 133.826 202.682 133.951 202.729C134.08 202.775 134.221 202.799 134.373 202.799C134.561 202.799 134.727 202.762 134.871 202.688C135.02 202.609 135.145 202.488 135.246 202.324C135.352 202.156 135.43 201.938 135.48 201.668C135.531 201.398 135.557 201.07 135.557 200.684ZM142.512 195.451V204H140.824V197.396L138.797 198.041V196.711L142.33 195.451H142.512ZM149.402 195.451V204H147.715V197.396L145.688 198.041V196.711L149.221 195.451H149.402ZM157.922 198.984V200.461C157.922 201.102 157.854 201.654 157.717 202.119C157.58 202.58 157.383 202.959 157.125 203.256C156.871 203.549 156.568 203.766 156.217 203.906C155.865 204.047 155.475 204.117 155.045 204.117C154.701 204.117 154.381 204.074 154.084 203.988C153.787 203.898 153.52 203.76 153.281 203.572C153.047 203.385 152.844 203.148 152.672 202.863C152.504 202.574 152.375 202.23 152.285 201.832C152.195 201.434 152.15 200.977 152.15 200.461V198.984C152.15 198.344 152.219 197.795 152.355 197.338C152.496 196.877 152.693 196.5 152.947 196.207C153.205 195.914 153.51 195.699 153.861 195.562C154.213 195.422 154.604 195.352 155.033 195.352C155.377 195.352 155.695 195.396 155.988 195.486C156.285 195.572 156.553 195.707 156.791 195.891C157.029 196.074 157.232 196.311 157.4 196.6C157.568 196.885 157.697 197.227 157.787 197.625C157.877 198.02 157.922 198.473 157.922 198.984ZM156.229 200.684V198.756C156.229 198.447 156.211 198.178 156.176 197.947C156.145 197.717 156.096 197.521 156.029 197.361C155.963 197.197 155.881 197.064 155.783 196.963C155.686 196.861 155.574 196.787 155.449 196.74C155.324 196.693 155.186 196.67 155.033 196.67C154.842 196.67 154.672 196.707 154.523 196.781C154.379 196.855 154.256 196.975 154.154 197.139C154.053 197.299 153.975 197.514 153.92 197.783C153.869 198.049 153.844 198.373 153.844 198.756V200.684C153.844 200.992 153.859 201.264 153.891 201.498C153.926 201.732 153.977 201.934 154.043 202.102C154.113 202.266 154.195 202.4 154.289 202.506C154.387 202.607 154.498 202.682 154.623 202.729C154.752 202.775 154.893 202.799 155.045 202.799C155.232 202.799 155.398 202.762 155.543 202.688C155.691 202.609 155.816 202.488 155.918 202.324C156.023 202.156 156.102 201.938 156.152 201.668C156.203 201.398 156.229 201.07 156.229 200.684ZM163.184 195.451V204H161.496V197.396L159.469 198.041V196.711L163.002 195.451H163.184ZM171.703 198.984V200.461C171.703 201.102 171.635 201.654 171.498 202.119C171.361 202.58 171.164 202.959 170.906 203.256C170.652 203.549 170.35 203.766 169.998 203.906C169.646 204.047 169.256 204.117 168.826 204.117C168.482 204.117 168.162 204.074 167.865 203.988C167.568 203.898 167.301 203.76 167.062 203.572C166.828 203.385 166.625 203.148 166.453 202.863C166.285 202.574 166.156 202.23 166.066 201.832C165.977 201.434 165.932 200.977 165.932 200.461V198.984C165.932 198.344 166 197.795 166.137 197.338C166.277 196.877 166.475 196.5 166.729 196.207C166.986 195.914 167.291 195.699 167.643 195.562C167.994 195.422 168.385 195.352 168.814 195.352C169.158 195.352 169.477 195.396 169.77 195.486C170.066 195.572 170.334 195.707 170.572 195.891C170.811 196.074 171.014 196.311 171.182 196.6C171.35 196.885 171.479 197.227 171.568 197.625C171.658 198.02 171.703 198.473 171.703 198.984ZM170.01 200.684V198.756C170.01 198.447 169.992 198.178 169.957 197.947C169.926 197.717 169.877 197.521 169.811 197.361C169.744 197.197 169.662 197.064 169.564 196.963C169.467 196.861 169.355 196.787 169.23 196.74C169.105 196.693 168.967 196.67 168.814 196.67C168.623 196.67 168.453 196.707 168.305 196.781C168.16 196.855 168.037 196.975 167.936 197.139C167.834 197.299 167.756 197.514 167.701 197.783C167.65 198.049 167.625 198.373 167.625 198.756V200.684C167.625 200.992 167.641 201.264 167.672 201.498C167.707 201.732 167.758 201.934 167.824 202.102C167.895 202.266 167.977 202.4 168.07 202.506C168.168 202.607 168.279 202.682 168.404 202.729C168.533 202.775 168.674 202.799 168.826 202.799C169.014 202.799 169.18 202.762 169.324 202.688C169.473 202.609 169.598 202.488 169.699 202.324C169.805 202.156 169.883 201.938 169.934 201.668C169.984 201.398 170.01 201.07 170.01 200.684ZM176.965 195.451V204H175.277V197.396L173.25 198.041V196.711L176.783 195.451H176.965ZM185.484 198.984V200.461C185.484 201.102 185.416 201.654 185.279 202.119C185.143 202.58 184.945 202.959 184.688 203.256C184.434 203.549 184.131 203.766 183.779 203.906C183.428 204.047 183.037 204.117 182.607 204.117C182.264 204.117 181.943 204.074 181.646 203.988C181.35 203.898 181.082 203.76 180.844 203.572C180.609 203.385 180.406 203.148 180.234 202.863C180.066 202.574 179.938 202.23 179.848 201.832C179.758 201.434 179.713 200.977 179.713 200.461V198.984C179.713 198.344 179.781 197.795 179.918 197.338C180.059 196.877 180.256 196.5 180.51 196.207C180.768 195.914 181.072 195.699 181.424 195.562C181.775 195.422 182.166 195.352 182.596 195.352C182.939 195.352 183.258 195.396 183.551 195.486C183.848 195.572 184.115 195.707 184.354 195.891C184.592 196.074 184.795 196.311 184.963 196.6C185.131 196.885 185.26 197.227 185.35 197.625C185.439 198.02 185.484 198.473 185.484 198.984ZM183.791 200.684V198.756C183.791 198.447 183.773 198.178 183.738 197.947C183.707 197.717 183.658 197.521 183.592 197.361C183.525 197.197 183.443 197.064 183.346 196.963C183.248 196.861 183.137 196.787 183.012 196.74C182.887 196.693 182.748 196.67 182.596 196.67C182.404 196.67 182.234 196.707 182.086 196.781C181.941 196.855 181.818 196.975 181.717 197.139C181.615 197.299 181.537 197.514 181.482 197.783C181.432 198.049 181.406 198.373 181.406 198.756V200.684C181.406 200.992 181.422 201.264 181.453 201.498C181.488 201.732 181.539 201.934 181.605 202.102C181.676 202.266 181.758 202.4 181.852 202.506C181.949 202.607 182.061 202.682 182.186 202.729C182.314 202.775 182.455 202.799 182.607 202.799C182.795 202.799 182.961 202.762 183.105 202.688C183.254 202.609 183.379 202.488 183.48 202.324C183.586 202.156 183.664 201.938 183.715 201.668C183.766 201.398 183.791 201.07 183.791 200.684ZM190.746 195.451V204H189.059V197.396L187.031 198.041V196.711L190.564 195.451H190.746ZM199.266 198.984V200.461C199.266 201.102 199.197 201.654 199.061 202.119C198.924 202.58 198.727 202.959 198.469 203.256C198.215 203.549 197.912 203.766 197.561 203.906C197.209 204.047 196.818 204.117 196.389 204.117C196.045 204.117 195.725 204.074 195.428 203.988C195.131 203.898 194.863 203.76 194.625 203.572C194.391 203.385 194.188 203.148 194.016 202.863C193.848 202.574 193.719 202.23 193.629 201.832C193.539 201.434 193.494 200.977 193.494 200.461V198.984C193.494 198.344 193.562 197.795 193.699 197.338C193.84 196.877 194.037 196.5 194.291 196.207C194.549 195.914 194.854 195.699 195.205 195.562C195.557 195.422 195.947 195.352 196.377 195.352C196.721 195.352 197.039 195.396 197.332 195.486C197.629 195.572 197.896 195.707 198.135 195.891C198.373 196.074 198.576 196.311 198.744 196.6C198.912 196.885 199.041 197.227 199.131 197.625C199.221 198.02 199.266 198.473 199.266 198.984ZM197.572 200.684V198.756C197.572 198.447 197.555 198.178 197.52 197.947C197.488 197.717 197.439 197.521 197.373 197.361C197.307 197.197 197.225 197.064 197.127 196.963C197.029 196.861 196.918 196.787 196.793 196.74C196.668 196.693 196.529 196.67 196.377 196.67C196.186 196.67 196.016 196.707 195.867 196.781C195.723 196.855 195.6 196.975 195.498 197.139C195.396 197.299 195.318 197.514 195.264 197.783C195.213 198.049 195.188 198.373 195.188 198.756V200.684C195.188 200.992 195.203 201.264 195.234 201.498C195.27 201.732 195.32 201.934 195.387 202.102C195.457 202.266 195.539 202.4 195.633 202.506C195.73 202.607 195.842 202.682 195.967 202.729C196.096 202.775 196.236 202.799 196.389 202.799C196.576 202.799 196.742 202.762 196.887 202.688C197.035 202.609 197.16 202.488 197.262 202.324C197.367 202.156 197.445 201.938 197.496 201.668C197.547 201.398 197.572 201.07 197.572 200.684ZM204.527 195.451V204H202.84V197.396L200.812 198.041V196.711L204.346 195.451H204.527ZM213.047 198.984V200.461C213.047 201.102 212.979 201.654 212.842 202.119C212.705 202.58 212.508 202.959 212.25 203.256C211.996 203.549 211.693 203.766 211.342 203.906C210.99 204.047 210.6 204.117 210.17 204.117C209.826 204.117 209.506 204.074 209.209 203.988C208.912 203.898 208.645 203.76 208.406 203.572C208.172 203.385 207.969 203.148 207.797 202.863C207.629 202.574 207.5 202.23 207.41 201.832C207.32 201.434 207.275 200.977 207.275 200.461V198.984C207.275 198.344 207.344 197.795 207.48 197.338C207.621 196.877 207.818 196.5 208.072 196.207C208.33 195.914 208.635 195.699 208.986 195.562C209.338 195.422 209.729 195.352 210.158 195.352C210.502 195.352 210.82 195.396 211.113 195.486C211.41 195.572 211.678 195.707 211.916 195.891C212.154 196.074 212.357 196.311 212.525 196.6C212.693 196.885 212.822 197.227 212.912 197.625C213.002 198.02 213.047 198.473 213.047 198.984ZM211.354 200.684V198.756C211.354 198.447 211.336 198.178 211.301 197.947C211.27 197.717 211.221 197.521 211.154 197.361C211.088 197.197 211.006 197.064 210.908 196.963C210.811 196.861 210.699 196.787 210.574 196.74C210.449 196.693 210.311 196.67 210.158 196.67C209.967 196.67 209.797 196.707 209.648 196.781C209.504 196.855 209.381 196.975 209.279 197.139C209.178 197.299 209.1 197.514 209.045 197.783C208.994 198.049 208.969 198.373 208.969 198.756V200.684C208.969 200.992 208.984 201.264 209.016 201.498C209.051 201.732 209.102 201.934 209.168 202.102C209.238 202.266 209.32 202.4 209.414 202.506C209.512 202.607 209.623 202.682 209.748 202.729C209.877 202.775 210.018 202.799 210.17 202.799C210.357 202.799 210.523 202.762 210.668 202.688C210.816 202.609 210.941 202.488 211.043 202.324C211.148 202.156 211.227 201.938 211.277 201.668C211.328 201.398 211.354 201.07 211.354 200.684ZM218.309 195.451V204H216.621V197.396L214.594 198.041V196.711L218.127 195.451H218.309ZM226.828 198.984V200.461C226.828 201.102 226.76 201.654 226.623 202.119C226.486 202.58 226.289 202.959 226.031 203.256C225.777 203.549 225.475 203.766 225.123 203.906C224.771 204.047 224.381 204.117 223.951 204.117C223.607 204.117 223.287 204.074 222.99 203.988C222.693 203.898 222.426 203.76 222.188 203.572C221.953 203.385 221.75 203.148 221.578 202.863C221.41 202.574 221.281 202.23 221.191 201.832C221.102 201.434 221.057 200.977 221.057 200.461V198.984C221.057 198.344 221.125 197.795 221.262 197.338C221.402 196.877 221.6 196.5 221.854 196.207C222.111 195.914 222.416 195.699 222.768 195.562C223.119 195.422 223.51 195.352 223.939 195.352C224.283 195.352 224.602 195.396 224.895 195.486C225.191 195.572 225.459 195.707 225.697 195.891C225.936 196.074 226.139 196.311 226.307 196.6C226.475 196.885 226.604 197.227 226.693 197.625C226.783 198.02 226.828 198.473 226.828 198.984ZM225.135 200.684V198.756C225.135 198.447 225.117 198.178 225.082 197.947C225.051 197.717 225.002 197.521 224.936 197.361C224.869 197.197 224.787 197.064 224.689 196.963C224.592 196.861 224.48 196.787 224.355 196.74C224.23 196.693 224.092 196.67 223.939 196.67C223.748 196.67 223.578 196.707 223.43 196.781C223.285 196.855 223.162 196.975 223.061 197.139C222.959 197.299 222.881 197.514 222.826 197.783C222.775 198.049 222.75 198.373 222.75 198.756V200.684C222.75 200.992 222.766 201.264 222.797 201.498C222.832 201.732 222.883 201.934 222.949 202.102C223.02 202.266 223.102 202.4 223.195 202.506C223.293 202.607 223.404 202.682 223.529 202.729C223.658 202.775 223.799 202.799 223.951 202.799C224.139 202.799 224.305 202.762 224.449 202.688C224.598 202.609 224.723 202.488 224.824 202.324C224.93 202.156 225.008 201.938 225.059 201.668C225.109 201.398 225.135 201.07 225.135 200.684Z" fill="#EAEAEA"/>
<path d="M50.3281 233.984V235.461C50.3281 236.102 50.2598 236.654 50.123 237.119C49.9863 237.58 49.7891 237.959 49.5312 238.256C49.2773 238.549 48.9746 238.766 48.623 238.906C48.2715 239.047 47.8809 239.117 47.4512 239.117C47.1074 239.117 46.7871 239.074 46.4902 238.988C46.1934 238.898 45.9258 238.76 45.6875 238.572C45.4531 238.385 45.25 238.148 45.0781 237.863C44.9102 237.574 44.7812 237.23 44.6914 236.832C44.6016 236.434 44.5566 235.977 44.5566 235.461V233.984C44.5566 233.344 44.625 232.795 44.7617 232.338C44.9023 231.877 45.0996 231.5 45.3535 231.207C45.6113 230.914 45.916 230.699 46.2676 230.562C46.6191 230.422 47.0098 230.352 47.4395 230.352C47.7832 230.352 48.1016 230.396 48.3945 230.486C48.6914 230.572 48.959 230.707 49.1973 230.891C49.4355 231.074 49.6387 231.311 49.8066 231.6C49.9746 231.885 50.1035 232.227 50.1934 232.625C50.2832 233.02 50.3281 233.473 50.3281 233.984ZM48.6348 235.684V233.756C48.6348 233.447 48.6172 233.178 48.582 232.947C48.5508 232.717 48.502 232.521 48.4355 232.361C48.3691 232.197 48.2871 232.064 48.1895 231.963C48.0918 231.861 47.9805 231.787 47.8555 231.74C47.7305 231.693 47.5918 231.67 47.4395 231.67C47.248 231.67 47.0781 231.707 46.9297 231.781C46.7852 231.855 46.6621 231.975 46.5605 232.139C46.459 232.299 46.3809 232.514 46.3262 232.783C46.2754 233.049 46.25 233.373 46.25 233.756V235.684C46.25 235.992 46.2656 236.264 46.2969 236.498C46.332 236.732 46.3828 236.934 46.4492 237.102C46.5195 237.266 46.6016 237.4 46.6953 237.506C46.793 237.607 46.9043 237.682 47.0293 237.729C47.1582 237.775 47.2988 237.799 47.4512 237.799C47.6387 237.799 47.8047 237.762 47.9492 237.688C48.0977 237.609 48.2227 237.488 48.3242 237.324C48.4297 237.156 48.5078 236.938 48.5586 236.668C48.6094 236.398 48.6348 236.07 48.6348 235.684ZM55.5898 230.451V239H53.9023V232.396L51.875 233.041V231.711L55.4082 230.451H55.5898ZM64.1094 233.984V235.461C64.1094 236.102 64.041 236.654 63.9043 237.119C63.7676 237.58 63.5703 237.959 63.3125 238.256C63.0586 238.549 62.7559 238.766 62.4043 238.906C62.0527 239.047 61.6621 239.117 61.2324 239.117C60.8887 239.117 60.5684 239.074 60.2715 238.988C59.9746 238.898 59.707 238.76 59.4688 238.572C59.2344 238.385 59.0312 238.148 58.8594 237.863C58.6914 237.574 58.5625 237.23 58.4727 236.832C58.3828 236.434 58.3379 235.977 58.3379 235.461V233.984C58.3379 233.344 58.4062 232.795 58.543 232.338C58.6836 231.877 58.8809 231.5 59.1348 231.207C59.3926 230.914 59.6973 230.699 60.0488 230.562C60.4004 230.422 60.791 230.352 61.2207 230.352C61.5645 230.352 61.8828 230.396 62.1758 230.486C62.4727 230.572 62.7402 230.707 62.9785 230.891C63.2168 231.074 63.4199 231.311 63.5879 231.6C63.7559 231.885 63.8848 232.227 63.9746 232.625C64.0645 233.02 64.1094 233.473 64.1094 233.984ZM62.416 235.684V233.756C62.416 233.447 62.3984 233.178 62.3633 232.947C62.332 232.717 62.2832 232.521 62.2168 232.361C62.1504 232.197 62.0684 232.064 61.9707 231.963C61.873 231.861 61.7617 231.787 61.6367 231.74C61.5117 231.693 61.373 231.67 61.2207 231.67C61.0293 231.67 60.8594 231.707 60.7109 231.781C60.5664 231.855 60.4434 231.975 60.3418 232.139C60.2402 232.299 60.1621 232.514 60.1074 232.783C60.0566 233.049 60.0312 233.373 60.0312 233.756V235.684C60.0312 235.992 60.0469 236.264 60.0781 236.498C60.1133 236.732 60.1641 236.934 60.2305 237.102C60.3008 237.266 60.3828 237.4 60.4766 237.506C60.5742 237.607 60.6855 237.682 60.8105 237.729C60.9395 237.775 61.0801 237.799 61.2324 237.799C61.4199 237.799 61.5859 237.762 61.7305 237.688C61.8789 237.609 62.0039 237.488 62.1055 237.324C62.2109 237.156 62.2891 236.938 62.3398 236.668C62.3906 236.398 62.416 236.07 62.416 235.684ZM69.3711 230.451V239H67.6836V232.396L65.6562 233.041V231.711L69.1895 230.451H69.3711ZM77.8906 233.984V235.461C77.8906 236.102 77.8223 236.654 77.6855 237.119C77.5488 237.58 77.3516 237.959 77.0938 238.256C76.8398 238.549 76.5371 238.766 76.1855 238.906C75.834 239.047 75.4434 239.117 75.0137 239.117C74.6699 239.117 74.3496 239.074 74.0527 238.988C73.7559 238.898 73.4883 238.76 73.25 238.572C73.0156 238.385 72.8125 238.148 72.6406 237.863C72.4727 237.574 72.3438 237.23 72.2539 236.832C72.1641 236.434 72.1191 235.977 72.1191 235.461V233.984C72.1191 233.344 72.1875 232.795 72.3242 232.338C72.4648 231.877 72.6621 231.5 72.916 231.207C73.1738 230.914 73.4785 230.699 73.8301 230.562C74.1816 230.422 74.5723 230.352 75.002 230.352C75.3457 230.352 75.6641 230.396 75.957 230.486C76.2539 230.572 76.5215 230.707 76.7598 230.891C76.998 231.074 77.2012 231.311 77.3691 231.6C77.5371 231.885 77.666 232.227 77.7559 232.625C77.8457 233.02 77.8906 233.473 77.8906 233.984ZM76.1973 235.684V233.756C76.1973 233.447 76.1797 233.178 76.1445 232.947C76.1133 232.717 76.0645 232.521 75.998 232.361C75.9316 232.197 75.8496 232.064 75.752 231.963C75.6543 231.861 75.543 231.787 75.418 231.74C75.293 231.693 75.1543 231.67 75.002 231.67C74.8105 231.67 74.6406 231.707 74.4922 231.781C74.3477 231.855 74.2246 231.975 74.123 232.139C74.0215 232.299 73.9434 232.514 73.8887 232.783C73.8379 233.049 73.8125 233.373 73.8125 233.756V235.684C73.8125 235.992 73.8281 236.264 73.8594 236.498C73.8945 236.732 73.9453 236.934 74.0117 237.102C74.082 237.266 74.1641 237.4 74.2578 237.506C74.3555 237.607 74.4668 237.682 74.5918 237.729C74.7207 237.775 74.8613 237.799 75.0137 237.799C75.2012 237.799 75.3672 237.762 75.5117 237.688C75.6602 237.609 75.7852 237.488 75.8867 237.324C75.9922 237.156 76.0703 236.938 76.1211 236.668C76.1719 236.398 76.1973 236.07 76.1973 235.684ZM83.1523 230.451V239H81.4648V232.396L79.4375 233.041V231.711L82.9707 230.451H83.1523ZM91.6719 233.984V235.461C91.6719 236.102 91.6035 236.654 91.4668 237.119C91.3301 237.58 91.1328 237.959 90.875 238.256C90.6211 238.549 90.3184 238.766 89.9668 238.906C89.6152 239.047 89.2246 239.117 88.7949 239.117C88.4512 239.117 88.1309 239.074 87.834 238.988C87.5371 238.898 87.2695 238.76 87.0312 238.572C86.7969 238.385 86.5938 238.148 86.4219 237.863C86.2539 237.574 86.125 237.23 86.0352 236.832C85.9453 236.434 85.9004 235.977 85.9004 235.461V233.984C85.9004 233.344 85.9688 232.795 86.1055 232.338C86.2461 231.877 86.4434 231.5 86.6973 231.207C86.9551 230.914 87.2598 230.699 87.6113 230.562C87.9629 230.422 88.3535 230.352 88.7832 230.352C89.127 230.352 89.4453 230.396 89.7383 230.486C90.0352 230.572 90.3027 230.707 90.541 230.891C90.7793 231.074 90.9824 231.311 91.1504 231.6C91.3184 231.885 91.4473 232.227 91.5371 232.625C91.627 233.02 91.6719 233.473 91.6719 233.984ZM89.9785 235.684V233.756C89.9785 233.447 89.9609 233.178 89.9258 232.947C89.8945 232.717 89.8457 232.521 89.7793 232.361C89.7129 232.197 89.6309 232.064 89.5332 231.963C89.4355 231.861 89.3242 231.787 89.1992 231.74C89.0742 231.693 88.9355 231.67 88.7832 231.67C88.5918 231.67 88.4219 231.707 88.2734 231.781C88.1289 231.855 88.0059 231.975 87.9043 232.139C87.8027 232.299 87.7246 232.514 87.6699 232.783C87.6191 233.049 87.5938 233.373 87.5938 233.756V235.684C87.5938 235.992 87.6094 236.264 87.6406 236.498C87.6758 236.732 87.7266 236.934 87.793 237.102C87.8633 237.266 87.9453 237.4 88.0391 237.506C88.1367 237.607 88.248 237.682 88.373 237.729C88.502 237.775 88.6426 237.799 88.7949 237.799C88.9824 237.799 89.1484 237.762 89.293 237.688C89.4414 237.609 89.5664 237.488 89.668 237.324C89.7734 237.156 89.8516 236.938 89.9023 236.668C89.9531 236.398 89.9785 236.07 89.9785 235.684ZM96.9336 230.451V239H95.2461V232.396L93.2188 233.041V231.711L96.752 230.451H96.9336ZM105.453 233.984V235.461C105.453 236.102 105.385 236.654 105.248 237.119C105.111 237.58 104.914 237.959 104.656 238.256C104.402 238.549 104.1 238.766 103.748 238.906C103.396 239.047 103.006 239.117 102.576 239.117C102.232 239.117 101.912 239.074 101.615 238.988C101.318 238.898 101.051 238.76 100.812 238.572C100.578 238.385 100.375 238.148 100.203 237.863C100.035 237.574 99.9062 237.23 99.8164 236.832C99.7266 236.434 99.6816 235.977 99.6816 235.461V233.984C99.6816 233.344 99.75 232.795 99.8867 232.338C100.027 231.877 100.225 231.5 100.479 231.207C100.736 230.914 101.041 230.699 101.393 230.562C101.744 230.422 102.135 230.352 102.564 230.352C102.908 230.352 103.227 230.396 103.52 230.486C103.816 230.572 104.084 230.707 104.322 230.891C104.561 231.074 104.764 231.311 104.932 231.6C105.1 231.885 105.229 232.227 105.318 232.625C105.408 233.02 105.453 233.473 105.453 233.984ZM103.76 235.684V233.756C103.76 233.447 103.742 233.178 103.707 232.947C103.676 232.717 103.627 232.521 103.561 232.361C103.494 232.197 103.412 232.064 103.314 231.963C103.217 231.861 103.105 231.787 102.98 231.74C102.855 231.693 102.717 231.67 102.564 231.67C102.373 231.67 102.203 231.707 102.055 231.781C101.91 231.855 101.787 231.975 101.686 232.139C101.584 232.299 101.506 232.514 101.451 232.783C101.4 233.049 101.375 233.373 101.375 233.756V235.684C101.375 235.992 101.391 236.264 101.422 236.498C101.457 236.732 101.508 236.934 101.574 237.102C101.645 237.266 101.727 237.4 101.82 237.506C101.918 237.607 102.029 237.682 102.154 237.729C102.283 237.775 102.424 237.799 102.576 237.799C102.764 237.799 102.93 237.762 103.074 237.688C103.223 237.609 103.348 237.488 103.449 237.324C103.555 237.156 103.633 236.938 103.684 236.668C103.734 236.398 103.76 236.07 103.76 235.684ZM112.344 233.984V235.461C112.344 236.102 112.275 236.654 112.139 237.119C112.002 237.58 111.805 237.959 111.547 238.256C111.293 238.549 110.99 238.766 110.639 238.906C110.287 239.047 109.896 239.117 109.467 239.117C109.123 239.117 108.803 239.074 108.506 238.988C108.209 238.898 107.941 238.76 107.703 238.572C107.469 238.385 107.266 238.148 107.094 237.863C106.926 237.574 106.797 237.23 106.707 236.832C106.617 236.434 106.572 235.977 106.572 235.461V233.984C106.572 233.344 106.641 232.795 106.777 232.338C106.918 231.877 107.115 231.5 107.369 231.207C107.627 230.914 107.932 230.699 108.283 230.562C108.635 230.422 109.025 230.352 109.455 230.352C109.799 230.352 110.117 230.396 110.41 230.486C110.707 230.572 110.975 230.707 111.213 230.891C111.451 231.074 111.654 231.311 111.822 231.6C111.99 231.885 112.119 232.227 112.209 232.625C112.299 233.02 112.344 233.473 112.344 233.984ZM110.65 235.684V233.756C110.65 233.447 110.633 233.178 110.598 232.947C110.566 232.717 110.518 232.521 110.451 232.361C110.385 232.197 110.303 232.064 110.205 231.963C110.107 231.861 109.996 231.787 109.871 231.74C109.746 231.693 109.607 231.67 109.455 231.67C109.264 231.67 109.094 231.707 108.945 231.781C108.801 231.855 108.678 231.975 108.576 232.139C108.475 232.299 108.396 232.514 108.342 232.783C108.291 233.049 108.266 233.373 108.266 233.756V235.684C108.266 235.992 108.281 236.264 108.312 236.498C108.348 236.732 108.398 236.934 108.465 237.102C108.535 237.266 108.617 237.4 108.711 237.506C108.809 237.607 108.92 237.682 109.045 237.729C109.174 237.775 109.314 237.799 109.467 237.799C109.654 237.799 109.82 237.762 109.965 237.688C110.113 237.609 110.238 237.488 110.34 237.324C110.445 237.156 110.523 236.938 110.574 236.668C110.625 236.398 110.65 236.07 110.65 235.684ZM119.234 233.984V235.461C119.234 236.102 119.166 236.654 119.029 237.119C118.893 237.58 118.695 237.959 118.438 238.256C118.184 238.549 117.881 238.766 117.529 238.906C117.178 239.047 116.787 239.117 116.357 239.117C116.014 239.117 115.693 239.074 115.396 238.988C115.1 238.898 114.832 238.76 114.594 238.572C114.359 238.385 114.156 238.148 113.984 237.863C113.816 237.574 113.688 237.23 113.598 236.832C113.508 236.434 113.463 235.977 113.463 235.461V233.984C113.463 233.344 113.531 232.795 113.668 232.338C113.809 231.877 114.006 231.5 114.26 231.207C114.518 230.914 114.822 230.699 115.174 230.562C115.525 230.422 115.916 230.352 116.346 230.352C116.689 230.352 117.008 230.396 117.301 230.486C117.598 230.572 117.865 230.707 118.104 230.891C118.342 231.074 118.545 231.311 118.713 231.6C118.881 231.885 119.01 232.227 119.1 232.625C119.189 233.02 119.234 233.473 119.234 233.984ZM117.541 235.684V233.756C117.541 233.447 117.523 233.178 117.488 232.947C117.457 232.717 117.408 232.521 117.342 232.361C117.275 232.197 117.193 232.064 117.096 231.963C116.998 231.861 116.887 231.787 116.762 231.74C116.637 231.693 116.498 231.67 116.346 231.67C116.154 231.67 115.984 231.707 115.836 231.781C115.691 231.855 115.568 231.975 115.467 232.139C115.365 232.299 115.287 232.514 115.232 232.783C115.182 233.049 115.156 233.373 115.156 233.756V235.684C115.156 235.992 115.172 236.264 115.203 236.498C115.238 236.732 115.289 236.934 115.355 237.102C115.426 237.266 115.508 237.4 115.602 237.506C115.699 237.607 115.811 237.682 115.936 237.729C116.064 237.775 116.205 237.799 116.357 237.799C116.545 237.799 116.711 237.762 116.855 237.688C117.004 237.609 117.129 237.488 117.23 237.324C117.336 237.156 117.414 236.938 117.465 236.668C117.516 236.398 117.541 236.07 117.541 235.684ZM124.496 230.451V239H122.809V232.396L120.781 233.041V231.711L124.314 230.451H124.496ZM133.016 233.984V235.461C133.016 236.102 132.947 236.654 132.811 237.119C132.674 237.58 132.477 237.959 132.219 238.256C131.965 238.549 131.662 238.766 131.311 238.906C130.959 239.047 130.568 239.117 130.139 239.117C129.795 239.117 129.475 239.074 129.178 238.988C128.881 238.898 128.613 238.76 128.375 238.572C128.141 238.385 127.938 238.148 127.766 237.863C127.598 237.574 127.469 237.23 127.379 236.832C127.289 236.434 127.244 235.977 127.244 235.461V233.984C127.244 233.344 127.312 232.795 127.449 232.338C127.59 231.877 127.787 231.5 128.041 231.207C128.299 230.914 128.604 230.699 128.955 230.562C129.307 230.422 129.697 230.352 130.127 230.352C130.471 230.352 130.789 230.396 131.082 230.486C131.379 230.572 131.646 230.707 131.885 230.891C132.123 231.074 132.326 231.311 132.494 231.6C132.662 231.885 132.791 232.227 132.881 232.625C132.971 233.02 133.016 233.473 133.016 233.984ZM131.322 235.684V233.756C131.322 233.447 131.305 233.178 131.27 232.947C131.238 232.717 131.189 232.521 131.123 232.361C131.057 232.197 130.975 232.064 130.877 231.963C130.779 231.861 130.668 231.787 130.543 231.74C130.418 231.693 130.279 231.67 130.127 231.67C129.936 231.67 129.766 231.707 129.617 231.781C129.473 231.855 129.35 231.975 129.248 232.139C129.146 232.299 129.068 232.514 129.014 232.783C128.963 233.049 128.938 233.373 128.938 233.756V235.684C128.938 235.992 128.953 236.264 128.984 236.498C129.02 236.732 129.07 236.934 129.137 237.102C129.207 237.266 129.289 237.4 129.383 237.506C129.48 237.607 129.592 237.682 129.717 237.729C129.846 237.775 129.986 237.799 130.139 237.799C130.326 237.799 130.492 237.762 130.637 237.688C130.785 237.609 130.91 237.488 131.012 237.324C131.117 237.156 131.195 236.938 131.246 236.668C131.297 236.398 131.322 236.07 131.322 235.684ZM138.277 230.451V239H136.59V232.396L134.562 233.041V231.711L138.096 230.451H138.277ZM145.168 230.451V239H143.48V232.396L141.453 233.041V231.711L144.986 230.451H145.168ZM153.688 233.984V235.461C153.688 236.102 153.619 236.654 153.482 237.119C153.346 237.58 153.148 237.959 152.891 238.256C152.637 238.549 152.334 238.766 151.982 238.906C151.631 239.047 151.24 239.117 150.811 239.117C150.467 239.117 150.146 239.074 149.85 238.988C149.553 238.898 149.285 238.76 149.047 238.572C148.812 238.385 148.609 238.148 148.438 237.863C148.27 237.574 148.141 237.23 148.051 236.832C147.961 236.434 147.916 235.977 147.916 235.461V233.984C147.916 233.344 147.984 232.795 148.121 232.338C148.262 231.877 148.459 231.5 148.713 231.207C148.971 230.914 149.275 230.699 149.627 230.562C149.979 230.422 150.369 230.352 150.799 230.352C151.143 230.352 151.461 230.396 151.754 230.486C152.051 230.572 152.318 230.707 152.557 230.891C152.795 231.074 152.998 231.311 153.166 231.6C153.334 231.885 153.463 232.227 153.553 232.625C153.643 233.02 153.688 233.473 153.688 233.984ZM151.994 235.684V233.756C151.994 233.447 151.977 233.178 151.941 232.947C151.91 232.717 151.861 232.521 151.795 232.361C151.729 232.197 151.646 232.064 151.549 231.963C151.451 231.861 151.34 231.787 151.215 231.74C151.09 231.693 150.951 231.67 150.799 231.67C150.607 231.67 150.438 231.707 150.289 231.781C150.145 231.855 150.021 231.975 149.92 232.139C149.818 232.299 149.74 232.514 149.686 232.783C149.635 233.049 149.609 233.373 149.609 233.756V235.684C149.609 235.992 149.625 236.264 149.656 236.498C149.691 236.732 149.742 236.934 149.809 237.102C149.879 237.266 149.961 237.4 150.055 237.506C150.152 237.607 150.264 237.682 150.389 237.729C150.518 237.775 150.658 237.799 150.811 237.799C150.998 237.799 151.164 237.762 151.309 237.688C151.457 237.609 151.582 237.488 151.684 237.324C151.789 237.156 151.867 236.938 151.918 236.668C151.969 236.398 151.994 236.07 151.994 235.684ZM158.949 230.451V239H157.262V232.396L155.234 233.041V231.711L158.768 230.451H158.949ZM167.469 233.984V235.461C167.469 236.102 167.4 236.654 167.264 237.119C167.127 237.58 166.93 237.959 166.672 238.256C166.418 238.549 166.115 238.766 165.764 238.906C165.412 239.047 165.021 239.117 164.592 239.117C164.248 239.117 163.928 239.074 163.631 238.988C163.334 238.898 163.066 238.76 162.828 238.572C162.594 238.385 162.391 238.148 162.219 237.863C162.051 237.574 161.922 237.23 161.832 236.832C161.742 236.434 161.697 235.977 161.697 235.461V233.984C161.697 233.344 161.766 232.795 161.902 232.338C162.043 231.877 162.24 231.5 162.494 231.207C162.752 230.914 163.057 230.699 163.408 230.562C163.76 230.422 164.15 230.352 164.58 230.352C164.924 230.352 165.242 230.396 165.535 230.486C165.832 230.572 166.1 230.707 166.338 230.891C166.576 231.074 166.779 231.311 166.947 231.6C167.115 231.885 167.244 232.227 167.334 232.625C167.424 233.02 167.469 233.473 167.469 233.984ZM165.775 235.684V233.756C165.775 233.447 165.758 233.178 165.723 232.947C165.691 232.717 165.643 232.521 165.576 232.361C165.51 232.197 165.428 232.064 165.33 231.963C165.232 231.861 165.121 231.787 164.996 231.74C164.871 231.693 164.732 231.67 164.58 231.67C164.389 231.67 164.219 231.707 164.07 231.781C163.926 231.855 163.803 231.975 163.701 232.139C163.6 232.299 163.521 232.514 163.467 232.783C163.416 233.049 163.391 233.373 163.391 233.756V235.684C163.391 235.992 163.406 236.264 163.438 236.498C163.473 236.732 163.523 236.934 163.59 237.102C163.66 237.266 163.742 237.4 163.836 237.506C163.934 237.607 164.045 237.682 164.17 237.729C164.299 237.775 164.439 237.799 164.592 237.799C164.779 237.799 164.945 237.762 165.09 237.688C165.238 237.609 165.363 237.488 165.465 237.324C165.57 237.156 165.648 236.938 165.699 236.668C165.75 236.398 165.775 236.07 165.775 235.684ZM172.73 230.451V239H171.043V232.396L169.016 233.041V231.711L172.549 230.451H172.73ZM181.25 233.984V235.461C181.25 236.102 181.182 236.654 181.045 237.119C180.908 237.58 180.711 237.959 180.453 238.256C180.199 238.549 179.896 238.766 179.545 238.906C179.193 239.047 178.803 239.117 178.373 239.117C178.029 239.117 177.709 239.074 177.412 238.988C177.115 238.898 176.848 238.76 176.609 238.572C176.375 238.385 176.172 238.148 176 237.863C175.832 237.574 175.703 237.23 175.613 236.832C175.523 236.434 175.479 235.977 175.479 235.461V233.984C175.479 233.344 175.547 232.795 175.684 232.338C175.824 231.877 176.021 231.5 176.275 231.207C176.533 230.914 176.838 230.699 177.189 230.562C177.541 230.422 177.932 230.352 178.361 230.352C178.705 230.352 179.023 230.396 179.316 230.486C179.613 230.572 179.881 230.707 180.119 230.891C180.357 231.074 180.561 231.311 180.729 231.6C180.896 231.885 181.025 232.227 181.115 232.625C181.205 233.02 181.25 233.473 181.25 233.984ZM179.557 235.684V233.756C179.557 233.447 179.539 233.178 179.504 232.947C179.473 232.717 179.424 232.521 179.357 232.361C179.291 232.197 179.209 232.064 179.111 231.963C179.014 231.861 178.902 231.787 178.777 231.74C178.652 231.693 178.514 231.67 178.361 231.67C178.17 231.67 178 231.707 177.852 231.781C177.707 231.855 177.584 231.975 177.482 232.139C177.381 232.299 177.303 232.514 177.248 232.783C177.197 233.049 177.172 233.373 177.172 233.756V235.684C177.172 235.992 177.188 236.264 177.219 236.498C177.254 236.732 177.305 236.934 177.371 237.102C177.441 237.266 177.523 237.4 177.617 237.506C177.715 237.607 177.826 237.682 177.951 237.729C178.08 237.775 178.221 237.799 178.373 237.799C178.561 237.799 178.727 237.762 178.871 237.688C179.02 237.609 179.145 237.488 179.246 237.324C179.352 237.156 179.43 236.938 179.48 236.668C179.531 236.398 179.557 236.07 179.557 235.684ZM186.512 230.451V239H184.824V232.396L182.797 233.041V231.711L186.33 230.451H186.512ZM193.402 230.451V239H191.715V232.396L189.688 233.041V231.711L193.221 230.451H193.402ZM201.922 233.984V235.461C201.922 236.102 201.854 236.654 201.717 237.119C201.58 237.58 201.383 237.959 201.125 238.256C200.871 238.549 200.568 238.766 200.217 238.906C199.865 239.047 199.475 239.117 199.045 239.117C198.701 239.117 198.381 239.074 198.084 238.988C197.787 238.898 197.52 238.76 197.281 238.572C197.047 238.385 196.844 238.148 196.672 237.863C196.504 237.574 196.375 237.23 196.285 236.832C196.195 236.434 196.15 235.977 196.15 235.461V233.984C196.15 233.344 196.219 232.795 196.355 232.338C196.496 231.877 196.693 231.5 196.947 231.207C197.205 230.914 197.51 230.699 197.861 230.562C198.213 230.422 198.604 230.352 199.033 230.352C199.377 230.352 199.695 230.396 199.988 230.486C200.285 230.572 200.553 230.707 200.791 230.891C201.029 231.074 201.232 231.311 201.4 231.6C201.568 231.885 201.697 232.227 201.787 232.625C201.877 233.02 201.922 233.473 201.922 233.984ZM200.229 235.684V233.756C200.229 233.447 200.211 233.178 200.176 232.947C200.145 232.717 200.096 232.521 200.029 232.361C199.963 232.197 199.881 232.064 199.783 231.963C199.686 231.861 199.574 231.787 199.449 231.74C199.324 231.693 199.186 231.67 199.033 231.67C198.842 231.67 198.672 231.707 198.523 231.781C198.379 231.855 198.256 231.975 198.154 232.139C198.053 232.299 197.975 232.514 197.92 232.783C197.869 233.049 197.844 233.373 197.844 233.756V235.684C197.844 235.992 197.859 236.264 197.891 236.498C197.926 236.732 197.977 236.934 198.043 237.102C198.113 237.266 198.195 237.4 198.289 237.506C198.387 237.607 198.498 237.682 198.623 237.729C198.752 237.775 198.893 237.799 199.045 237.799C199.232 237.799 199.398 237.762 199.543 237.688C199.691 237.609 199.816 237.488 199.918 237.324C200.023 237.156 200.102 236.938 200.152 236.668C200.203 236.398 200.229 236.07 200.229 235.684ZM207.184 230.451V239H205.496V232.396L203.469 233.041V231.711L207.002 230.451H207.184ZM215.703 233.984V235.461C215.703 236.102 215.635 236.654 215.498 237.119C215.361 237.58 215.164 237.959 214.906 238.256C214.652 238.549 214.35 238.766 213.998 238.906C213.646 239.047 213.256 239.117 212.826 239.117C212.482 239.117 212.162 239.074 211.865 238.988C211.568 238.898 211.301 238.76 211.062 238.572C210.828 238.385 210.625 238.148 210.453 237.863C210.285 237.574 210.156 237.23 210.066 236.832C209.977 236.434 209.932 235.977 209.932 235.461V233.984C209.932 233.344 210 232.795 210.137 232.338C210.277 231.877 210.475 231.5 210.729 231.207C210.986 230.914 211.291 230.699 211.643 230.562C211.994 230.422 212.385 230.352 212.814 230.352C213.158 230.352 213.477 230.396 213.77 230.486C214.066 230.572 214.334 230.707 214.572 230.891C214.811 231.074 215.014 231.311 215.182 231.6C215.35 231.885 215.479 232.227 215.568 232.625C215.658 233.02 215.703 233.473 215.703 233.984ZM214.01 235.684V233.756C214.01 233.447 213.992 233.178 213.957 232.947C213.926 232.717 213.877 232.521 213.811 232.361C213.744 232.197 213.662 232.064 213.564 231.963C213.467 231.861 213.355 231.787 213.23 231.74C213.105 231.693 212.967 231.67 212.814 231.67C212.623 231.67 212.453 231.707 212.305 231.781C212.16 231.855 212.037 231.975 211.936 232.139C211.834 232.299 211.756 232.514 211.701 232.783C211.65 233.049 211.625 233.373 211.625 233.756V235.684C211.625 235.992 211.641 236.264 211.672 236.498C211.707 236.732 211.758 236.934 211.824 237.102C211.895 237.266 211.977 237.4 212.07 237.506C212.168 237.607 212.279 237.682 212.404 237.729C212.533 237.775 212.674 237.799 212.826 237.799C213.014 237.799 213.18 237.762 213.324 237.688C213.473 237.609 213.598 237.488 213.699 237.324C213.805 237.156 213.883 236.938 213.934 236.668C213.984 236.398 214.01 236.07 214.01 235.684ZM220.965 230.451V239H219.277V232.396L217.25 233.041V231.711L220.783 230.451H220.965ZM227.855 230.451V239H226.168V232.396L224.141 233.041V231.711L227.674 230.451H227.855ZM236.375 233.984V235.461C236.375 236.102 236.307 236.654 236.17 237.119C236.033 237.58 235.836 237.959 235.578 238.256C235.324 238.549 235.021 238.766 234.67 238.906C234.318 239.047 233.928 239.117 233.498 239.117C233.154 239.117 232.834 239.074 232.537 238.988C232.24 238.898 231.973 238.76 231.734 238.572C231.5 238.385 231.297 238.148 231.125 237.863C230.957 237.574 230.828 237.23 230.738 236.832C230.648 236.434 230.604 235.977 230.604 235.461V233.984C230.604 233.344 230.672 232.795 230.809 232.338C230.949 231.877 231.146 231.5 231.4 231.207C231.658 230.914 231.963 230.699 232.314 230.562C232.666 230.422 233.057 230.352 233.486 230.352C233.83 230.352 234.148 230.396 234.441 230.486C234.738 230.572 235.006 230.707 235.244 230.891C235.482 231.074 235.686 231.311 235.854 231.6C236.021 231.885 236.15 232.227 236.24 232.625C236.33 233.02 236.375 233.473 236.375 233.984ZM234.682 235.684V233.756C234.682 233.447 234.664 233.178 234.629 232.947C234.598 232.717 234.549 232.521 234.482 232.361C234.416 232.197 234.334 232.064 234.236 231.963C234.139 231.861 234.027 231.787 233.902 231.74C233.777 231.693 233.639 231.67 233.486 231.67C233.295 231.67 233.125 231.707 232.977 231.781C232.832 231.855 232.709 231.975 232.607 232.139C232.506 232.299 232.428 232.514 232.373 232.783C232.322 233.049 232.297 233.373 232.297 233.756V235.684C232.297 235.992 232.312 236.264 232.344 236.498C232.379 236.732 232.43 236.934 232.496 237.102C232.566 237.266 232.648 237.4 232.742 237.506C232.84 237.607 232.951 237.682 233.076 237.729C233.205 237.775 233.346 237.799 233.498 237.799C233.686 237.799 233.852 237.762 233.996 237.688C234.145 237.609 234.27 237.488 234.371 237.324C234.477 237.156 234.555 236.938 234.605 236.668C234.656 236.398 234.682 236.07 234.682 235.684ZM241.637 230.451V239H239.949V232.396L237.922 233.041V231.711L241.455 230.451H241.637ZM250.156 233.984V235.461C250.156 236.102 250.088 236.654 249.951 237.119C249.814 237.58 249.617 237.959 249.359 238.256C249.105 238.549 248.803 238.766 248.451 238.906C248.1 239.047 247.709 239.117 247.279 239.117C246.936 239.117 246.615 239.074 246.318 238.988C246.021 238.898 245.754 238.76 245.516 238.572C245.281 238.385 245.078 238.148 244.906 237.863C244.738 237.574 244.609 237.23 244.52 236.832C244.43 236.434 244.385 235.977 244.385 235.461V233.984C244.385 233.344 244.453 232.795 244.59 232.338C244.73 231.877 244.928 231.5 245.182 231.207C245.439 230.914 245.744 230.699 246.096 230.562C246.447 230.422 246.838 230.352 247.268 230.352C247.611 230.352 247.93 230.396 248.223 230.486C248.52 230.572 248.787 230.707 249.025 230.891C249.264 231.074 249.467 231.311 249.635 231.6C249.803 231.885 249.932 232.227 250.021 232.625C250.111 233.02 250.156 233.473 250.156 233.984ZM248.463 235.684V233.756C248.463 233.447 248.445 233.178 248.41 232.947C248.379 232.717 248.33 232.521 248.264 232.361C248.197 232.197 248.115 232.064 248.018 231.963C247.92 231.861 247.809 231.787 247.684 231.74C247.559 231.693 247.42 231.67 247.268 231.67C247.076 231.67 246.906 231.707 246.758 231.781C246.613 231.855 246.49 231.975 246.389 232.139C246.287 232.299 246.209 232.514 246.154 232.783C246.104 233.049 246.078 233.373 246.078 233.756V235.684C246.078 235.992 246.094 236.264 246.125 236.498C246.16 236.732 246.211 236.934 246.277 237.102C246.348 237.266 246.43 237.4 246.523 237.506C246.621 237.607 246.732 237.682 246.857 237.729C246.986 237.775 247.127 237.799 247.279 237.799C247.467 237.799 247.633 237.762 247.777 237.688C247.926 237.609 248.051 237.488 248.152 237.324C248.258 237.156 248.336 236.938 248.387 236.668C248.438 236.398 248.463 236.07 248.463 235.684ZM257.047 233.984V235.461C257.047 236.102 256.979 236.654 256.842 237.119C256.705 237.58 256.508 237.959 256.25 238.256C255.996 238.549 255.693 238.766 255.342 238.906C254.99 239.047 254.6 239.117 254.17 239.117C253.826 239.117 253.506 239.074 253.209 238.988C252.912 238.898 252.645 238.76 252.406 238.572C252.172 238.385 251.969 238.148 251.797 237.863C251.629 237.574 251.5 237.23 251.41 236.832C251.32 236.434 251.275 235.977 251.275 235.461V233.984C251.275 233.344 251.344 232.795 251.48 232.338C251.621 231.877 251.818 231.5 252.072 231.207C252.33 230.914 252.635 230.699 252.986 230.562C253.338 230.422 253.729 230.352 254.158 230.352C254.502 230.352 254.82 230.396 255.113 230.486C255.41 230.572 255.678 230.707 255.916 230.891C256.154 231.074 256.357 231.311 256.525 231.6C256.693 231.885 256.822 232.227 256.912 232.625C257.002 233.02 257.047 233.473 257.047 233.984ZM255.354 235.684V233.756C255.354 233.447 255.336 233.178 255.301 232.947C255.27 232.717 255.221 232.521 255.154 232.361C255.088 232.197 255.006 232.064 254.908 231.963C254.811 231.861 254.699 231.787 254.574 231.74C254.449 231.693 254.311 231.67 254.158 231.67C253.967 231.67 253.797 231.707 253.648 231.781C253.504 231.855 253.381 231.975 253.279 232.139C253.178 232.299 253.1 232.514 253.045 232.783C252.994 233.049 252.969 233.373 252.969 233.756V235.684C252.969 235.992 252.984 236.264 253.016 236.498C253.051 236.732 253.102 236.934 253.168 237.102C253.238 237.266 253.32 237.4 253.414 237.506C253.512 237.607 253.623 237.682 253.748 237.729C253.877 237.775 254.018 237.799 254.17 237.799C254.357 237.799 254.523 237.762 254.668 237.688C254.816 237.609 254.941 237.488 255.043 237.324C255.148 237.156 255.227 236.938 255.277 236.668C255.328 236.398 255.354 236.07 255.354 235.684ZM262.309 230.451V239H260.621V232.396L258.594 233.041V231.711L262.127 230.451H262.309ZM269.199 230.451V239H267.512V232.396L265.484 233.041V231.711L269.018 230.451H269.199ZM276.09 230.451V239H274.402V232.396L272.375 233.041V231.711L275.908 230.451H276.09ZM284.609 233.984V235.461C284.609 236.102 284.541 236.654 284.404 237.119C284.268 237.58 284.07 237.959 283.812 238.256C283.559 238.549 283.256 238.766 282.904 238.906C282.553 239.047 282.162 239.117 281.732 239.117C281.389 239.117 281.068 239.074 280.771 238.988C280.475 238.898 280.207 238.76 279.969 238.572C279.734 238.385 279.531 238.148 279.359 237.863C279.191 237.574 279.062 237.23 278.973 236.832C278.883 236.434 278.838 235.977 278.838 235.461V233.984C278.838 233.344 278.906 232.795 279.043 232.338C279.184 231.877 279.381 231.5 279.635 231.207C279.893 230.914 280.197 230.699 280.549 230.562C280.9 230.422 281.291 230.352 281.721 230.352C282.064 230.352 282.383 230.396 282.676 230.486C282.973 230.572 283.24 230.707 283.479 230.891C283.717 231.074 283.92 231.311 284.088 231.6C284.256 231.885 284.385 232.227 284.475 232.625C284.564 233.02 284.609 233.473 284.609 233.984ZM282.916 235.684V233.756C282.916 233.447 282.898 233.178 282.863 232.947C282.832 232.717 282.783 232.521 282.717 232.361C282.65 232.197 282.568 232.064 282.471 231.963C282.373 231.861 282.262 231.787 282.137 231.74C282.012 231.693 281.873 231.67 281.721 231.67C281.529 231.67 281.359 231.707 281.211 231.781C281.066 231.855 280.943 231.975 280.842 232.139C280.74 232.299 280.662 232.514 280.607 232.783C280.557 233.049 280.531 233.373 280.531 233.756V235.684C280.531 235.992 280.547 236.264 280.578 236.498C280.613 236.732 280.664 236.934 280.73 237.102C280.801 237.266 280.883 237.4 280.977 237.506C281.074 237.607 281.186 237.682 281.311 237.729C281.439 237.775 281.58 237.799 281.732 237.799C281.92 237.799 282.086 237.762 282.23 237.688C282.379 237.609 282.504 237.488 282.605 237.324C282.711 237.156 282.789 236.938 282.84 236.668C282.891 236.398 282.916 236.07 282.916 235.684Z" fill="#EAEAEA"/>
<path opacity="0.602309" d="M80.877 3V51.8649L11.3501 130.04V162.817" stroke="url(#paint0_linear_2459_7)" stroke-width="4.94053" stroke-linecap="round"/>
<path fill-rule="evenodd" clip-rule="evenodd" d="M11.088 166.039C9.38259 166.039 8.00012 164.656 8.00012 162.951C8.00012 161.246 9.38259 159.863 11.088 159.863C12.7933 159.863 14.1758 161.246 14.1758 162.951C14.1758 164.656 12.7933 166.039 11.088 166.039Z" fill="#3693FF"/>
<defs>
<linearGradient id="paint0_linear_2459_7" x1="23.3476" y1="155.107" x2="23.3476" y2="6.27849" gradientUnits="userSpaceOnUse">
<stop stop-color="#3693FF"/>
<stop offset="0.301757" stop-color="#3693FF"/>
<stop offset="1" stop-color="#3693FF" stop-opacity="0.01"/>
</linearGradient>
</defs>
</svg>
