<svg width="318" height="228" viewBox="0 0 318 228" fill="none" xmlns="http://www.w3.org/2000/svg">
<path d="M98.6992 216.451V225H97.0117V218.396L94.9844 219.041V217.711L98.5176 216.451H98.6992ZM105.59 216.451V225H103.902V218.396L101.875 219.041V217.711L105.408 216.451H105.59ZM114.109 219.984V221.461C114.109 222.102 114.041 222.654 113.904 223.119C113.768 223.58 113.57 223.959 113.312 224.256C113.059 224.549 112.756 224.766 112.404 224.906C112.053 225.047 111.662 225.117 111.232 225.117C110.889 225.117 110.568 225.074 110.271 224.988C109.975 224.898 109.707 224.76 109.469 224.572C109.234 224.385 109.031 224.148 108.859 223.863C108.691 223.574 108.562 223.23 108.473 222.832C108.383 222.434 108.338 221.977 108.338 221.461V219.984C108.338 219.344 108.406 218.795 108.543 218.338C108.684 217.877 108.881 217.5 109.135 217.207C109.393 216.914 109.697 216.699 110.049 216.562C110.4 216.422 110.791 216.352 111.221 216.352C111.564 216.352 111.883 216.396 112.176 216.486C112.473 216.572 112.74 216.707 112.979 216.891C113.217 217.074 113.42 217.311 113.588 217.6C113.756 217.885 113.885 218.227 113.975 218.625C114.064 219.02 114.109 219.473 114.109 219.984ZM112.416 221.684V219.756C112.416 219.447 112.398 219.178 112.363 218.947C112.332 218.717 112.283 218.521 112.217 218.361C112.15 218.197 112.068 218.064 111.971 217.963C111.873 217.861 111.762 217.787 111.637 217.74C111.512 217.693 111.373 217.67 111.221 217.67C111.029 217.67 110.859 217.707 110.711 217.781C110.566 217.855 110.443 217.975 110.342 218.139C110.24 218.299 110.162 218.514 110.107 218.783C110.057 219.049 110.031 219.373 110.031 219.756V221.684C110.031 221.992 110.047 222.264 110.078 222.498C110.113 222.732 110.164 222.934 110.23 223.102C110.301 223.266 110.383 223.4 110.477 223.506C110.574 223.607 110.686 223.682 110.811 223.729C110.939 223.775 111.08 223.799 111.232 223.799C111.42 223.799 111.586 223.762 111.73 223.688C111.879 223.609 112.004 223.488 112.105 223.324C112.211 223.156 112.289 222.938 112.34 222.668C112.391 222.398 112.416 222.07 112.416 221.684ZM119.371 216.451V225H117.684V218.396L115.656 219.041V217.711L119.189 216.451H119.371ZM127.891 219.984V221.461C127.891 222.102 127.822 222.654 127.686 223.119C127.549 223.58 127.352 223.959 127.094 224.256C126.84 224.549 126.537 224.766 126.186 224.906C125.834 225.047 125.443 225.117 125.014 225.117C124.67 225.117 124.35 225.074 124.053 224.988C123.756 224.898 123.488 224.76 123.25 224.572C123.016 224.385 122.812 224.148 122.641 223.863C122.473 223.574 122.344 223.23 122.254 222.832C122.164 222.434 122.119 221.977 122.119 221.461V219.984C122.119 219.344 122.188 218.795 122.324 218.338C122.465 217.877 122.662 217.5 122.916 217.207C123.174 216.914 123.479 216.699 123.83 216.562C124.182 216.422 124.572 216.352 125.002 216.352C125.346 216.352 125.664 216.396 125.957 216.486C126.254 216.572 126.521 216.707 126.76 216.891C126.998 217.074 127.201 217.311 127.369 217.6C127.537 217.885 127.666 218.227 127.756 218.625C127.846 219.02 127.891 219.473 127.891 219.984ZM126.197 221.684V219.756C126.197 219.447 126.18 219.178 126.145 218.947C126.113 218.717 126.064 218.521 125.998 218.361C125.932 218.197 125.85 218.064 125.752 217.963C125.654 217.861 125.543 217.787 125.418 217.74C125.293 217.693 125.154 217.67 125.002 217.67C124.811 217.67 124.641 217.707 124.492 217.781C124.348 217.855 124.225 217.975 124.123 218.139C124.021 218.299 123.943 218.514 123.889 218.783C123.838 219.049 123.812 219.373 123.812 219.756V221.684C123.812 221.992 123.828 222.264 123.859 222.498C123.895 222.732 123.945 222.934 124.012 223.102C124.082 223.266 124.164 223.4 124.258 223.506C124.355 223.607 124.467 223.682 124.592 223.729C124.721 223.775 124.861 223.799 125.014 223.799C125.201 223.799 125.367 223.762 125.512 223.688C125.66 223.609 125.785 223.488 125.887 223.324C125.992 223.156 126.07 222.938 126.121 222.668C126.172 222.398 126.197 222.07 126.197 221.684ZM133.152 216.451V225H131.465V218.396L129.438 219.041V217.711L132.971 216.451H133.152ZM141.672 219.984V221.461C141.672 222.102 141.604 222.654 141.467 223.119C141.33 223.58 141.133 223.959 140.875 224.256C140.621 224.549 140.318 224.766 139.967 224.906C139.615 225.047 139.225 225.117 138.795 225.117C138.451 225.117 138.131 225.074 137.834 224.988C137.537 224.898 137.27 224.76 137.031 224.572C136.797 224.385 136.594 224.148 136.422 223.863C136.254 223.574 136.125 223.23 136.035 222.832C135.945 222.434 135.9 221.977 135.9 221.461V219.984C135.9 219.344 135.969 218.795 136.105 218.338C136.246 217.877 136.443 217.5 136.697 217.207C136.955 216.914 137.26 216.699 137.611 216.562C137.963 216.422 138.354 216.352 138.783 216.352C139.127 216.352 139.445 216.396 139.738 216.486C140.035 216.572 140.303 216.707 140.541 216.891C140.779 217.074 140.982 217.311 141.15 217.6C141.318 217.885 141.447 218.227 141.537 218.625C141.627 219.02 141.672 219.473 141.672 219.984ZM139.979 221.684V219.756C139.979 219.447 139.961 219.178 139.926 218.947C139.895 218.717 139.846 218.521 139.779 218.361C139.713 218.197 139.631 218.064 139.533 217.963C139.436 217.861 139.324 217.787 139.199 217.74C139.074 217.693 138.936 217.67 138.783 217.67C138.592 217.67 138.422 217.707 138.273 217.781C138.129 217.855 138.006 217.975 137.904 218.139C137.803 218.299 137.725 218.514 137.67 218.783C137.619 219.049 137.594 219.373 137.594 219.756V221.684C137.594 221.992 137.609 222.264 137.641 222.498C137.676 222.732 137.727 222.934 137.793 223.102C137.863 223.266 137.945 223.4 138.039 223.506C138.137 223.607 138.248 223.682 138.373 223.729C138.502 223.775 138.643 223.799 138.795 223.799C138.982 223.799 139.148 223.762 139.293 223.688C139.441 223.609 139.566 223.488 139.668 223.324C139.773 223.156 139.852 222.938 139.902 222.668C139.953 222.398 139.979 222.07 139.979 221.684ZM146.934 216.451V225H145.246V218.396L143.219 219.041V217.711L146.752 216.451H146.934ZM155.453 219.984V221.461C155.453 222.102 155.385 222.654 155.248 223.119C155.111 223.58 154.914 223.959 154.656 224.256C154.402 224.549 154.1 224.766 153.748 224.906C153.396 225.047 153.006 225.117 152.576 225.117C152.232 225.117 151.912 225.074 151.615 224.988C151.318 224.898 151.051 224.76 150.812 224.572C150.578 224.385 150.375 224.148 150.203 223.863C150.035 223.574 149.906 223.23 149.816 222.832C149.727 222.434 149.682 221.977 149.682 221.461V219.984C149.682 219.344 149.75 218.795 149.887 218.338C150.027 217.877 150.225 217.5 150.479 217.207C150.736 216.914 151.041 216.699 151.393 216.562C151.744 216.422 152.135 216.352 152.564 216.352C152.908 216.352 153.227 216.396 153.52 216.486C153.816 216.572 154.084 216.707 154.322 216.891C154.561 217.074 154.764 217.311 154.932 217.6C155.1 217.885 155.229 218.227 155.318 218.625C155.408 219.02 155.453 219.473 155.453 219.984ZM153.76 221.684V219.756C153.76 219.447 153.742 219.178 153.707 218.947C153.676 218.717 153.627 218.521 153.561 218.361C153.494 218.197 153.412 218.064 153.314 217.963C153.217 217.861 153.105 217.787 152.98 217.74C152.855 217.693 152.717 217.67 152.564 217.67C152.373 217.67 152.203 217.707 152.055 217.781C151.91 217.855 151.787 217.975 151.686 218.139C151.584 218.299 151.506 218.514 151.451 218.783C151.4 219.049 151.375 219.373 151.375 219.756V221.684C151.375 221.992 151.391 222.264 151.422 222.498C151.457 222.732 151.508 222.934 151.574 223.102C151.645 223.266 151.727 223.4 151.82 223.506C151.918 223.607 152.029 223.682 152.154 223.729C152.283 223.775 152.424 223.799 152.576 223.799C152.764 223.799 152.93 223.762 153.074 223.688C153.223 223.609 153.348 223.488 153.449 223.324C153.555 223.156 153.633 222.938 153.684 222.668C153.734 222.398 153.76 222.07 153.76 221.684ZM162.344 219.984V221.461C162.344 222.102 162.275 222.654 162.139 223.119C162.002 223.58 161.805 223.959 161.547 224.256C161.293 224.549 160.99 224.766 160.639 224.906C160.287 225.047 159.896 225.117 159.467 225.117C159.123 225.117 158.803 225.074 158.506 224.988C158.209 224.898 157.941 224.76 157.703 224.572C157.469 224.385 157.266 224.148 157.094 223.863C156.926 223.574 156.797 223.23 156.707 222.832C156.617 222.434 156.572 221.977 156.572 221.461V219.984C156.572 219.344 156.641 218.795 156.777 218.338C156.918 217.877 157.115 217.5 157.369 217.207C157.627 216.914 157.932 216.699 158.283 216.562C158.635 216.422 159.025 216.352 159.455 216.352C159.799 216.352 160.117 216.396 160.41 216.486C160.707 216.572 160.975 216.707 161.213 216.891C161.451 217.074 161.654 217.311 161.822 217.6C161.99 217.885 162.119 218.227 162.209 218.625C162.299 219.02 162.344 219.473 162.344 219.984ZM160.65 221.684V219.756C160.65 219.447 160.633 219.178 160.598 218.947C160.566 218.717 160.518 218.521 160.451 218.361C160.385 218.197 160.303 218.064 160.205 217.963C160.107 217.861 159.996 217.787 159.871 217.74C159.746 217.693 159.607 217.67 159.455 217.67C159.264 217.67 159.094 217.707 158.945 217.781C158.801 217.855 158.678 217.975 158.576 218.139C158.475 218.299 158.396 218.514 158.342 218.783C158.291 219.049 158.266 219.373 158.266 219.756V221.684C158.266 221.992 158.281 222.264 158.312 222.498C158.348 222.732 158.398 222.934 158.465 223.102C158.535 223.266 158.617 223.4 158.711 223.506C158.809 223.607 158.92 223.682 159.045 223.729C159.174 223.775 159.314 223.799 159.467 223.799C159.654 223.799 159.82 223.762 159.965 223.688C160.113 223.609 160.238 223.488 160.34 223.324C160.445 223.156 160.523 222.938 160.574 222.668C160.625 222.398 160.65 222.07 160.65 221.684ZM169.234 219.984V221.461C169.234 222.102 169.166 222.654 169.029 223.119C168.893 223.58 168.695 223.959 168.438 224.256C168.184 224.549 167.881 224.766 167.529 224.906C167.178 225.047 166.787 225.117 166.357 225.117C166.014 225.117 165.693 225.074 165.396 224.988C165.1 224.898 164.832 224.76 164.594 224.572C164.359 224.385 164.156 224.148 163.984 223.863C163.816 223.574 163.688 223.23 163.598 222.832C163.508 222.434 163.463 221.977 163.463 221.461V219.984C163.463 219.344 163.531 218.795 163.668 218.338C163.809 217.877 164.006 217.5 164.26 217.207C164.518 216.914 164.822 216.699 165.174 216.562C165.525 216.422 165.916 216.352 166.346 216.352C166.689 216.352 167.008 216.396 167.301 216.486C167.598 216.572 167.865 216.707 168.104 216.891C168.342 217.074 168.545 217.311 168.713 217.6C168.881 217.885 169.01 218.227 169.1 218.625C169.189 219.02 169.234 219.473 169.234 219.984ZM167.541 221.684V219.756C167.541 219.447 167.523 219.178 167.488 218.947C167.457 218.717 167.408 218.521 167.342 218.361C167.275 218.197 167.193 218.064 167.096 217.963C166.998 217.861 166.887 217.787 166.762 217.74C166.637 217.693 166.498 217.67 166.346 217.67C166.154 217.67 165.984 217.707 165.836 217.781C165.691 217.855 165.568 217.975 165.467 218.139C165.365 218.299 165.287 218.514 165.232 218.783C165.182 219.049 165.156 219.373 165.156 219.756V221.684C165.156 221.992 165.172 222.264 165.203 222.498C165.238 222.732 165.289 222.934 165.355 223.102C165.426 223.266 165.508 223.4 165.602 223.506C165.699 223.607 165.811 223.682 165.936 223.729C166.064 223.775 166.205 223.799 166.357 223.799C166.545 223.799 166.711 223.762 166.855 223.688C167.004 223.609 167.129 223.488 167.23 223.324C167.336 223.156 167.414 222.938 167.465 222.668C167.516 222.398 167.541 222.07 167.541 221.684ZM174.496 216.451V225H172.809V218.396L170.781 219.041V217.711L174.314 216.451H174.496ZM183.016 219.984V221.461C183.016 222.102 182.947 222.654 182.811 223.119C182.674 223.58 182.477 223.959 182.219 224.256C181.965 224.549 181.662 224.766 181.311 224.906C180.959 225.047 180.568 225.117 180.139 225.117C179.795 225.117 179.475 225.074 179.178 224.988C178.881 224.898 178.613 224.76 178.375 224.572C178.141 224.385 177.938 224.148 177.766 223.863C177.598 223.574 177.469 223.23 177.379 222.832C177.289 222.434 177.244 221.977 177.244 221.461V219.984C177.244 219.344 177.312 218.795 177.449 218.338C177.59 217.877 177.787 217.5 178.041 217.207C178.299 216.914 178.604 216.699 178.955 216.562C179.307 216.422 179.697 216.352 180.127 216.352C180.471 216.352 180.789 216.396 181.082 216.486C181.379 216.572 181.646 216.707 181.885 216.891C182.123 217.074 182.326 217.311 182.494 217.6C182.662 217.885 182.791 218.227 182.881 218.625C182.971 219.02 183.016 219.473 183.016 219.984ZM181.322 221.684V219.756C181.322 219.447 181.305 219.178 181.27 218.947C181.238 218.717 181.189 218.521 181.123 218.361C181.057 218.197 180.975 218.064 180.877 217.963C180.779 217.861 180.668 217.787 180.543 217.74C180.418 217.693 180.279 217.67 180.127 217.67C179.936 217.67 179.766 217.707 179.617 217.781C179.473 217.855 179.35 217.975 179.248 218.139C179.146 218.299 179.068 218.514 179.014 218.783C178.963 219.049 178.938 219.373 178.938 219.756V221.684C178.938 221.992 178.953 222.264 178.984 222.498C179.02 222.732 179.07 222.934 179.137 223.102C179.207 223.266 179.289 223.4 179.383 223.506C179.48 223.607 179.592 223.682 179.717 223.729C179.846 223.775 179.986 223.799 180.139 223.799C180.326 223.799 180.492 223.762 180.637 223.688C180.785 223.609 180.91 223.488 181.012 223.324C181.117 223.156 181.195 222.938 181.246 222.668C181.297 222.398 181.322 222.07 181.322 221.684ZM188.277 216.451V225H186.59V218.396L184.562 219.041V217.711L188.096 216.451H188.277ZM195.168 216.451V225H193.48V218.396L191.453 219.041V217.711L194.986 216.451H195.168ZM203.688 219.984V221.461C203.688 222.102 203.619 222.654 203.482 223.119C203.346 223.58 203.148 223.959 202.891 224.256C202.637 224.549 202.334 224.766 201.982 224.906C201.631 225.047 201.24 225.117 200.811 225.117C200.467 225.117 200.146 225.074 199.85 224.988C199.553 224.898 199.285 224.76 199.047 224.572C198.812 224.385 198.609 224.148 198.438 223.863C198.27 223.574 198.141 223.23 198.051 222.832C197.961 222.434 197.916 221.977 197.916 221.461V219.984C197.916 219.344 197.984 218.795 198.121 218.338C198.262 217.877 198.459 217.5 198.713 217.207C198.971 216.914 199.275 216.699 199.627 216.562C199.979 216.422 200.369 216.352 200.799 216.352C201.143 216.352 201.461 216.396 201.754 216.486C202.051 216.572 202.318 216.707 202.557 216.891C202.795 217.074 202.998 217.311 203.166 217.6C203.334 217.885 203.463 218.227 203.553 218.625C203.643 219.02 203.688 219.473 203.688 219.984ZM201.994 221.684V219.756C201.994 219.447 201.977 219.178 201.941 218.947C201.91 218.717 201.861 218.521 201.795 218.361C201.729 218.197 201.646 218.064 201.549 217.963C201.451 217.861 201.34 217.787 201.215 217.74C201.09 217.693 200.951 217.67 200.799 217.67C200.607 217.67 200.438 217.707 200.289 217.781C200.145 217.855 200.021 217.975 199.92 218.139C199.818 218.299 199.74 218.514 199.686 218.783C199.635 219.049 199.609 219.373 199.609 219.756V221.684C199.609 221.992 199.625 222.264 199.656 222.498C199.691 222.732 199.742 222.934 199.809 223.102C199.879 223.266 199.961 223.4 200.055 223.506C200.152 223.607 200.264 223.682 200.389 223.729C200.518 223.775 200.658 223.799 200.811 223.799C200.998 223.799 201.164 223.762 201.309 223.688C201.457 223.609 201.582 223.488 201.684 223.324C201.789 223.156 201.867 222.938 201.918 222.668C201.969 222.398 201.994 222.07 201.994 221.684ZM208.949 216.451V225H207.262V218.396L205.234 219.041V217.711L208.768 216.451H208.949ZM217.469 219.984V221.461C217.469 222.102 217.4 222.654 217.264 223.119C217.127 223.58 216.93 223.959 216.672 224.256C216.418 224.549 216.115 224.766 215.764 224.906C215.412 225.047 215.021 225.117 214.592 225.117C214.248 225.117 213.928 225.074 213.631 224.988C213.334 224.898 213.066 224.76 212.828 224.572C212.594 224.385 212.391 224.148 212.219 223.863C212.051 223.574 211.922 223.23 211.832 222.832C211.742 222.434 211.697 221.977 211.697 221.461V219.984C211.697 219.344 211.766 218.795 211.902 218.338C212.043 217.877 212.24 217.5 212.494 217.207C212.752 216.914 213.057 216.699 213.408 216.562C213.76 216.422 214.15 216.352 214.58 216.352C214.924 216.352 215.242 216.396 215.535 216.486C215.832 216.572 216.1 216.707 216.338 216.891C216.576 217.074 216.779 217.311 216.947 217.6C217.115 217.885 217.244 218.227 217.334 218.625C217.424 219.02 217.469 219.473 217.469 219.984ZM215.775 221.684V219.756C215.775 219.447 215.758 219.178 215.723 218.947C215.691 218.717 215.643 218.521 215.576 218.361C215.51 218.197 215.428 218.064 215.33 217.963C215.232 217.861 215.121 217.787 214.996 217.74C214.871 217.693 214.732 217.67 214.58 217.67C214.389 217.67 214.219 217.707 214.07 217.781C213.926 217.855 213.803 217.975 213.701 218.139C213.6 218.299 213.521 218.514 213.467 218.783C213.416 219.049 213.391 219.373 213.391 219.756V221.684C213.391 221.992 213.406 222.264 213.438 222.498C213.473 222.732 213.523 222.934 213.59 223.102C213.66 223.266 213.742 223.4 213.836 223.506C213.934 223.607 214.045 223.682 214.17 223.729C214.299 223.775 214.439 223.799 214.592 223.799C214.779 223.799 214.945 223.762 215.09 223.688C215.238 223.609 215.363 223.488 215.465 223.324C215.57 223.156 215.648 222.938 215.699 222.668C215.75 222.398 215.775 222.07 215.775 221.684ZM222.73 216.451V225H221.043V218.396L219.016 219.041V217.711L222.549 216.451H222.73ZM231.25 219.984V221.461C231.25 222.102 231.182 222.654 231.045 223.119C230.908 223.58 230.711 223.959 230.453 224.256C230.199 224.549 229.896 224.766 229.545 224.906C229.193 225.047 228.803 225.117 228.373 225.117C228.029 225.117 227.709 225.074 227.412 224.988C227.115 224.898 226.848 224.76 226.609 224.572C226.375 224.385 226.172 224.148 226 223.863C225.832 223.574 225.703 223.23 225.613 222.832C225.523 222.434 225.479 221.977 225.479 221.461V219.984C225.479 219.344 225.547 218.795 225.684 218.338C225.824 217.877 226.021 217.5 226.275 217.207C226.533 216.914 226.838 216.699 227.189 216.562C227.541 216.422 227.932 216.352 228.361 216.352C228.705 216.352 229.023 216.396 229.316 216.486C229.613 216.572 229.881 216.707 230.119 216.891C230.357 217.074 230.561 217.311 230.729 217.6C230.896 217.885 231.025 218.227 231.115 218.625C231.205 219.02 231.25 219.473 231.25 219.984ZM229.557 221.684V219.756C229.557 219.447 229.539 219.178 229.504 218.947C229.473 218.717 229.424 218.521 229.357 218.361C229.291 218.197 229.209 218.064 229.111 217.963C229.014 217.861 228.902 217.787 228.777 217.74C228.652 217.693 228.514 217.67 228.361 217.67C228.17 217.67 228 217.707 227.852 217.781C227.707 217.855 227.584 217.975 227.482 218.139C227.381 218.299 227.303 218.514 227.248 218.783C227.197 219.049 227.172 219.373 227.172 219.756V221.684C227.172 221.992 227.188 222.264 227.219 222.498C227.254 222.732 227.305 222.934 227.371 223.102C227.441 223.266 227.523 223.4 227.617 223.506C227.715 223.607 227.826 223.682 227.951 223.729C228.08 223.775 228.221 223.799 228.373 223.799C228.561 223.799 228.727 223.762 228.871 223.688C229.02 223.609 229.145 223.488 229.246 223.324C229.352 223.156 229.43 222.938 229.48 222.668C229.531 222.398 229.557 222.07 229.557 221.684ZM236.512 216.451V225H234.824V218.396L232.797 219.041V217.711L236.33 216.451H236.512ZM243.402 216.451V225H241.715V218.396L239.688 219.041V217.711L243.221 216.451H243.402ZM251.922 219.984V221.461C251.922 222.102 251.854 222.654 251.717 223.119C251.58 223.58 251.383 223.959 251.125 224.256C250.871 224.549 250.568 224.766 250.217 224.906C249.865 225.047 249.475 225.117 249.045 225.117C248.701 225.117 248.381 225.074 248.084 224.988C247.787 224.898 247.52 224.76 247.281 224.572C247.047 224.385 246.844 224.148 246.672 223.863C246.504 223.574 246.375 223.23 246.285 222.832C246.195 222.434 246.15 221.977 246.15 221.461V219.984C246.15 219.344 246.219 218.795 246.355 218.338C246.496 217.877 246.693 217.5 246.947 217.207C247.205 216.914 247.51 216.699 247.861 216.562C248.213 216.422 248.604 216.352 249.033 216.352C249.377 216.352 249.695 216.396 249.988 216.486C250.285 216.572 250.553 216.707 250.791 216.891C251.029 217.074 251.232 217.311 251.4 217.6C251.568 217.885 251.697 218.227 251.787 218.625C251.877 219.02 251.922 219.473 251.922 219.984ZM250.229 221.684V219.756C250.229 219.447 250.211 219.178 250.176 218.947C250.145 218.717 250.096 218.521 250.029 218.361C249.963 218.197 249.881 218.064 249.783 217.963C249.686 217.861 249.574 217.787 249.449 217.74C249.324 217.693 249.186 217.67 249.033 217.67C248.842 217.67 248.672 217.707 248.523 217.781C248.379 217.855 248.256 217.975 248.154 218.139C248.053 218.299 247.975 218.514 247.92 218.783C247.869 219.049 247.844 219.373 247.844 219.756V221.684C247.844 221.992 247.859 222.264 247.891 222.498C247.926 222.732 247.977 222.934 248.043 223.102C248.113 223.266 248.195 223.4 248.289 223.506C248.387 223.607 248.498 223.682 248.623 223.729C248.752 223.775 248.893 223.799 249.045 223.799C249.232 223.799 249.398 223.762 249.543 223.688C249.691 223.609 249.816 223.488 249.918 223.324C250.023 223.156 250.102 222.938 250.152 222.668C250.203 222.398 250.229 222.07 250.229 221.684ZM257.184 216.451V225H255.496V218.396L253.469 219.041V217.711L257.002 216.451H257.184ZM265.703 219.984V221.461C265.703 222.102 265.635 222.654 265.498 223.119C265.361 223.58 265.164 223.959 264.906 224.256C264.652 224.549 264.35 224.766 263.998 224.906C263.646 225.047 263.256 225.117 262.826 225.117C262.482 225.117 262.162 225.074 261.865 224.988C261.568 224.898 261.301 224.76 261.062 224.572C260.828 224.385 260.625 224.148 260.453 223.863C260.285 223.574 260.156 223.23 260.066 222.832C259.977 222.434 259.932 221.977 259.932 221.461V219.984C259.932 219.344 260 218.795 260.137 218.338C260.277 217.877 260.475 217.5 260.729 217.207C260.986 216.914 261.291 216.699 261.643 216.562C261.994 216.422 262.385 216.352 262.814 216.352C263.158 216.352 263.477 216.396 263.77 216.486C264.066 216.572 264.334 216.707 264.572 216.891C264.811 217.074 265.014 217.311 265.182 217.6C265.35 217.885 265.479 218.227 265.568 218.625C265.658 219.02 265.703 219.473 265.703 219.984ZM264.01 221.684V219.756C264.01 219.447 263.992 219.178 263.957 218.947C263.926 218.717 263.877 218.521 263.811 218.361C263.744 218.197 263.662 218.064 263.564 217.963C263.467 217.861 263.355 217.787 263.23 217.74C263.105 217.693 262.967 217.67 262.814 217.67C262.623 217.67 262.453 217.707 262.305 217.781C262.16 217.855 262.037 217.975 261.936 218.139C261.834 218.299 261.756 218.514 261.701 218.783C261.65 219.049 261.625 219.373 261.625 219.756V221.684C261.625 221.992 261.641 222.264 261.672 222.498C261.707 222.732 261.758 222.934 261.824 223.102C261.895 223.266 261.977 223.4 262.07 223.506C262.168 223.607 262.279 223.682 262.404 223.729C262.533 223.775 262.674 223.799 262.826 223.799C263.014 223.799 263.18 223.762 263.324 223.688C263.473 223.609 263.598 223.488 263.699 223.324C263.805 223.156 263.883 222.938 263.934 222.668C263.984 222.398 264.01 222.07 264.01 221.684ZM270.965 216.451V225H269.277V218.396L267.25 219.041V217.711L270.783 216.451H270.965ZM279.484 219.984V221.461C279.484 222.102 279.416 222.654 279.279 223.119C279.143 223.58 278.945 223.959 278.688 224.256C278.434 224.549 278.131 224.766 277.779 224.906C277.428 225.047 277.037 225.117 276.607 225.117C276.264 225.117 275.943 225.074 275.646 224.988C275.35 224.898 275.082 224.76 274.844 224.572C274.609 224.385 274.406 224.148 274.234 223.863C274.066 223.574 273.938 223.23 273.848 222.832C273.758 222.434 273.713 221.977 273.713 221.461V219.984C273.713 219.344 273.781 218.795 273.918 218.338C274.059 217.877 274.256 217.5 274.51 217.207C274.768 216.914 275.072 216.699 275.424 216.562C275.775 216.422 276.166 216.352 276.596 216.352C276.939 216.352 277.258 216.396 277.551 216.486C277.848 216.572 278.115 216.707 278.354 216.891C278.592 217.074 278.795 217.311 278.963 217.6C279.131 217.885 279.26 218.227 279.35 218.625C279.439 219.02 279.484 219.473 279.484 219.984ZM277.791 221.684V219.756C277.791 219.447 277.773 219.178 277.738 218.947C277.707 218.717 277.658 218.521 277.592 218.361C277.525 218.197 277.443 218.064 277.346 217.963C277.248 217.861 277.137 217.787 277.012 217.74C276.887 217.693 276.748 217.67 276.596 217.67C276.404 217.67 276.234 217.707 276.086 217.781C275.941 217.855 275.818 217.975 275.717 218.139C275.615 218.299 275.537 218.514 275.482 218.783C275.432 219.049 275.406 219.373 275.406 219.756V221.684C275.406 221.992 275.422 222.264 275.453 222.498C275.488 222.732 275.539 222.934 275.605 223.102C275.676 223.266 275.758 223.4 275.852 223.506C275.949 223.607 276.061 223.682 276.186 223.729C276.314 223.775 276.455 223.799 276.607 223.799C276.795 223.799 276.961 223.762 277.105 223.688C277.254 223.609 277.379 223.488 277.48 223.324C277.586 223.156 277.664 222.938 277.715 222.668C277.766 222.398 277.791 222.07 277.791 221.684ZM284.746 216.451V225H283.059V218.396L281.031 219.041V217.711L284.564 216.451H284.746ZM293.266 219.984V221.461C293.266 222.102 293.197 222.654 293.061 223.119C292.924 223.58 292.727 223.959 292.469 224.256C292.215 224.549 291.912 224.766 291.561 224.906C291.209 225.047 290.818 225.117 290.389 225.117C290.045 225.117 289.725 225.074 289.428 224.988C289.131 224.898 288.863 224.76 288.625 224.572C288.391 224.385 288.188 224.148 288.016 223.863C287.848 223.574 287.719 223.23 287.629 222.832C287.539 222.434 287.494 221.977 287.494 221.461V219.984C287.494 219.344 287.562 218.795 287.699 218.338C287.84 217.877 288.037 217.5 288.291 217.207C288.549 216.914 288.854 216.699 289.205 216.562C289.557 216.422 289.947 216.352 290.377 216.352C290.721 216.352 291.039 216.396 291.332 216.486C291.629 216.572 291.896 216.707 292.135 216.891C292.373 217.074 292.576 217.311 292.744 217.6C292.912 217.885 293.041 218.227 293.131 218.625C293.221 219.02 293.266 219.473 293.266 219.984ZM291.572 221.684V219.756C291.572 219.447 291.555 219.178 291.52 218.947C291.488 218.717 291.439 218.521 291.373 218.361C291.307 218.197 291.225 218.064 291.127 217.963C291.029 217.861 290.918 217.787 290.793 217.74C290.668 217.693 290.529 217.67 290.377 217.67C290.186 217.67 290.016 217.707 289.867 217.781C289.723 217.855 289.6 217.975 289.498 218.139C289.396 218.299 289.318 218.514 289.264 218.783C289.213 219.049 289.188 219.373 289.188 219.756V221.684C289.188 221.992 289.203 222.264 289.234 222.498C289.27 222.732 289.32 222.934 289.387 223.102C289.457 223.266 289.539 223.4 289.633 223.506C289.73 223.607 289.842 223.682 289.967 223.729C290.096 223.775 290.236 223.799 290.389 223.799C290.576 223.799 290.742 223.762 290.887 223.688C291.035 223.609 291.16 223.488 291.262 223.324C291.367 223.156 291.445 222.938 291.496 222.668C291.547 222.398 291.572 222.07 291.572 221.684ZM298.527 216.451V225H296.84V218.396L294.812 219.041V217.711L298.346 216.451H298.527ZM305.418 216.451V225H303.73V218.396L301.703 219.041V217.711L305.236 216.451H305.418Z" fill="#EAEAEA"/>
<path d="M103.328 201.984V203.461C103.328 204.102 103.26 204.654 103.123 205.119C102.986 205.58 102.789 205.959 102.531 206.256C102.277 206.549 101.975 206.766 101.623 206.906C101.271 207.047 100.881 207.117 100.451 207.117C100.107 207.117 99.7871 207.074 99.4902 206.988C99.1934 206.898 98.9258 206.76 98.6875 206.572C98.4531 206.385 98.25 206.148 98.0781 205.863C97.9102 205.574 97.7812 205.23 97.6914 204.832C97.6016 204.434 97.5566 203.977 97.5566 203.461V201.984C97.5566 201.344 97.625 200.795 97.7617 200.338C97.9023 199.877 98.0996 199.5 98.3535 199.207C98.6113 198.914 98.916 198.699 99.2676 198.562C99.6191 198.422 100.01 198.352 100.439 198.352C100.783 198.352 101.102 198.396 101.395 198.486C101.691 198.572 101.959 198.707 102.197 198.891C102.436 199.074 102.639 199.311 102.807 199.6C102.975 199.885 103.104 200.227 103.193 200.625C103.283 201.02 103.328 201.473 103.328 201.984ZM101.635 203.684V201.756C101.635 201.447 101.617 201.178 101.582 200.947C101.551 200.717 101.502 200.521 101.436 200.361C101.369 200.197 101.287 200.064 101.189 199.963C101.092 199.861 100.98 199.787 100.855 199.74C100.73 199.693 100.592 199.67 100.439 199.67C100.248 199.67 100.078 199.707 99.9297 199.781C99.7852 199.855 99.6621 199.975 99.5605 200.139C99.459 200.299 99.3809 200.514 99.3262 200.783C99.2754 201.049 99.25 201.373 99.25 201.756V203.684C99.25 203.992 99.2656 204.264 99.2969 204.498C99.332 204.732 99.3828 204.934 99.4492 205.102C99.5195 205.266 99.6016 205.4 99.6953 205.506C99.793 205.607 99.9043 205.682 100.029 205.729C100.158 205.775 100.299 205.799 100.451 205.799C100.639 205.799 100.805 205.762 100.949 205.688C101.098 205.609 101.223 205.488 101.324 205.324C101.43 205.156 101.508 204.938 101.559 204.668C101.609 204.398 101.635 204.07 101.635 203.684ZM108.59 198.451V207H106.902V200.396L104.875 201.041V199.711L108.408 198.451H108.59ZM117.109 201.984V203.461C117.109 204.102 117.041 204.654 116.904 205.119C116.768 205.58 116.57 205.959 116.312 206.256C116.059 206.549 115.756 206.766 115.404 206.906C115.053 207.047 114.662 207.117 114.232 207.117C113.889 207.117 113.568 207.074 113.271 206.988C112.975 206.898 112.707 206.76 112.469 206.572C112.234 206.385 112.031 206.148 111.859 205.863C111.691 205.574 111.562 205.23 111.473 204.832C111.383 204.434 111.338 203.977 111.338 203.461V201.984C111.338 201.344 111.406 200.795 111.543 200.338C111.684 199.877 111.881 199.5 112.135 199.207C112.393 198.914 112.697 198.699 113.049 198.562C113.4 198.422 113.791 198.352 114.221 198.352C114.564 198.352 114.883 198.396 115.176 198.486C115.473 198.572 115.74 198.707 115.979 198.891C116.217 199.074 116.42 199.311 116.588 199.6C116.756 199.885 116.885 200.227 116.975 200.625C117.064 201.02 117.109 201.473 117.109 201.984ZM115.416 203.684V201.756C115.416 201.447 115.398 201.178 115.363 200.947C115.332 200.717 115.283 200.521 115.217 200.361C115.15 200.197 115.068 200.064 114.971 199.963C114.873 199.861 114.762 199.787 114.637 199.74C114.512 199.693 114.373 199.67 114.221 199.67C114.029 199.67 113.859 199.707 113.711 199.781C113.566 199.855 113.443 199.975 113.342 200.139C113.24 200.299 113.162 200.514 113.107 200.783C113.057 201.049 113.031 201.373 113.031 201.756V203.684C113.031 203.992 113.047 204.264 113.078 204.498C113.113 204.732 113.164 204.934 113.23 205.102C113.301 205.266 113.383 205.4 113.477 205.506C113.574 205.607 113.686 205.682 113.811 205.729C113.939 205.775 114.08 205.799 114.232 205.799C114.42 205.799 114.586 205.762 114.73 205.688C114.879 205.609 115.004 205.488 115.105 205.324C115.211 205.156 115.289 204.938 115.34 204.668C115.391 204.398 115.416 204.07 115.416 203.684ZM124 201.984V203.461C124 204.102 123.932 204.654 123.795 205.119C123.658 205.58 123.461 205.959 123.203 206.256C122.949 206.549 122.646 206.766 122.295 206.906C121.943 207.047 121.553 207.117 121.123 207.117C120.779 207.117 120.459 207.074 120.162 206.988C119.865 206.898 119.598 206.76 119.359 206.572C119.125 206.385 118.922 206.148 118.75 205.863C118.582 205.574 118.453 205.23 118.363 204.832C118.273 204.434 118.229 203.977 118.229 203.461V201.984C118.229 201.344 118.297 200.795 118.434 200.338C118.574 199.877 118.771 199.5 119.025 199.207C119.283 198.914 119.588 198.699 119.939 198.562C120.291 198.422 120.682 198.352 121.111 198.352C121.455 198.352 121.773 198.396 122.066 198.486C122.363 198.572 122.631 198.707 122.869 198.891C123.107 199.074 123.311 199.311 123.479 199.6C123.646 199.885 123.775 200.227 123.865 200.625C123.955 201.02 124 201.473 124 201.984ZM122.307 203.684V201.756C122.307 201.447 122.289 201.178 122.254 200.947C122.223 200.717 122.174 200.521 122.107 200.361C122.041 200.197 121.959 200.064 121.861 199.963C121.764 199.861 121.652 199.787 121.527 199.74C121.402 199.693 121.264 199.67 121.111 199.67C120.92 199.67 120.75 199.707 120.602 199.781C120.457 199.855 120.334 199.975 120.232 200.139C120.131 200.299 120.053 200.514 119.998 200.783C119.947 201.049 119.922 201.373 119.922 201.756V203.684C119.922 203.992 119.938 204.264 119.969 204.498C120.004 204.732 120.055 204.934 120.121 205.102C120.191 205.266 120.273 205.4 120.367 205.506C120.465 205.607 120.576 205.682 120.701 205.729C120.83 205.775 120.971 205.799 121.123 205.799C121.311 205.799 121.477 205.762 121.621 205.688C121.77 205.609 121.895 205.488 121.996 205.324C122.102 205.156 122.18 204.938 122.23 204.668C122.281 204.398 122.307 204.07 122.307 203.684ZM129.262 198.451V207H127.574V200.396L125.547 201.041V199.711L129.08 198.451H129.262ZM137.781 201.984V203.461C137.781 204.102 137.713 204.654 137.576 205.119C137.439 205.58 137.242 205.959 136.984 206.256C136.73 206.549 136.428 206.766 136.076 206.906C135.725 207.047 135.334 207.117 134.904 207.117C134.561 207.117 134.24 207.074 133.943 206.988C133.646 206.898 133.379 206.76 133.141 206.572C132.906 206.385 132.703 206.148 132.531 205.863C132.363 205.574 132.234 205.23 132.145 204.832C132.055 204.434 132.01 203.977 132.01 203.461V201.984C132.01 201.344 132.078 200.795 132.215 200.338C132.355 199.877 132.553 199.5 132.807 199.207C133.064 198.914 133.369 198.699 133.721 198.562C134.072 198.422 134.463 198.352 134.893 198.352C135.236 198.352 135.555 198.396 135.848 198.486C136.145 198.572 136.412 198.707 136.65 198.891C136.889 199.074 137.092 199.311 137.26 199.6C137.428 199.885 137.557 200.227 137.646 200.625C137.736 201.02 137.781 201.473 137.781 201.984ZM136.088 203.684V201.756C136.088 201.447 136.07 201.178 136.035 200.947C136.004 200.717 135.955 200.521 135.889 200.361C135.822 200.197 135.74 200.064 135.643 199.963C135.545 199.861 135.434 199.787 135.309 199.74C135.184 199.693 135.045 199.67 134.893 199.67C134.701 199.67 134.531 199.707 134.383 199.781C134.238 199.855 134.115 199.975 134.014 200.139C133.912 200.299 133.834 200.514 133.779 200.783C133.729 201.049 133.703 201.373 133.703 201.756V203.684C133.703 203.992 133.719 204.264 133.75 204.498C133.785 204.732 133.836 204.934 133.902 205.102C133.973 205.266 134.055 205.4 134.148 205.506C134.246 205.607 134.357 205.682 134.482 205.729C134.611 205.775 134.752 205.799 134.904 205.799C135.092 205.799 135.258 205.762 135.402 205.688C135.551 205.609 135.676 205.488 135.777 205.324C135.883 205.156 135.961 204.938 136.012 204.668C136.062 204.398 136.088 204.07 136.088 203.684ZM143.043 198.451V207H141.355V200.396L139.328 201.041V199.711L142.861 198.451H143.043ZM151.562 201.984V203.461C151.562 204.102 151.494 204.654 151.357 205.119C151.221 205.58 151.023 205.959 150.766 206.256C150.512 206.549 150.209 206.766 149.857 206.906C149.506 207.047 149.115 207.117 148.686 207.117C148.342 207.117 148.021 207.074 147.725 206.988C147.428 206.898 147.16 206.76 146.922 206.572C146.688 206.385 146.484 206.148 146.312 205.863C146.145 205.574 146.016 205.23 145.926 204.832C145.836 204.434 145.791 203.977 145.791 203.461V201.984C145.791 201.344 145.859 200.795 145.996 200.338C146.137 199.877 146.334 199.5 146.588 199.207C146.846 198.914 147.15 198.699 147.502 198.562C147.854 198.422 148.244 198.352 148.674 198.352C149.018 198.352 149.336 198.396 149.629 198.486C149.926 198.572 150.193 198.707 150.432 198.891C150.67 199.074 150.873 199.311 151.041 199.6C151.209 199.885 151.338 200.227 151.428 200.625C151.518 201.02 151.562 201.473 151.562 201.984ZM149.869 203.684V201.756C149.869 201.447 149.852 201.178 149.816 200.947C149.785 200.717 149.736 200.521 149.67 200.361C149.604 200.197 149.521 200.064 149.424 199.963C149.326 199.861 149.215 199.787 149.09 199.74C148.965 199.693 148.826 199.67 148.674 199.67C148.482 199.67 148.312 199.707 148.164 199.781C148.02 199.855 147.896 199.975 147.795 200.139C147.693 200.299 147.615 200.514 147.561 200.783C147.51 201.049 147.484 201.373 147.484 201.756V203.684C147.484 203.992 147.5 204.264 147.531 204.498C147.566 204.732 147.617 204.934 147.684 205.102C147.754 205.266 147.836 205.4 147.93 205.506C148.027 205.607 148.139 205.682 148.264 205.729C148.393 205.775 148.533 205.799 148.686 205.799C148.873 205.799 149.039 205.762 149.184 205.688C149.332 205.609 149.457 205.488 149.559 205.324C149.664 205.156 149.742 204.938 149.793 204.668C149.844 204.398 149.869 204.07 149.869 203.684ZM156.824 198.451V207H155.137V200.396L153.109 201.041V199.711L156.643 198.451H156.824ZM163.715 198.451V207H162.027V200.396L160 201.041V199.711L163.533 198.451H163.715ZM172.234 201.984V203.461C172.234 204.102 172.166 204.654 172.029 205.119C171.893 205.58 171.695 205.959 171.438 206.256C171.184 206.549 170.881 206.766 170.529 206.906C170.178 207.047 169.787 207.117 169.357 207.117C169.014 207.117 168.693 207.074 168.396 206.988C168.1 206.898 167.832 206.76 167.594 206.572C167.359 206.385 167.156 206.148 166.984 205.863C166.816 205.574 166.688 205.23 166.598 204.832C166.508 204.434 166.463 203.977 166.463 203.461V201.984C166.463 201.344 166.531 200.795 166.668 200.338C166.809 199.877 167.006 199.5 167.26 199.207C167.518 198.914 167.822 198.699 168.174 198.562C168.525 198.422 168.916 198.352 169.346 198.352C169.689 198.352 170.008 198.396 170.301 198.486C170.598 198.572 170.865 198.707 171.104 198.891C171.342 199.074 171.545 199.311 171.713 199.6C171.881 199.885 172.01 200.227 172.1 200.625C172.189 201.02 172.234 201.473 172.234 201.984ZM170.541 203.684V201.756C170.541 201.447 170.523 201.178 170.488 200.947C170.457 200.717 170.408 200.521 170.342 200.361C170.275 200.197 170.193 200.064 170.096 199.963C169.998 199.861 169.887 199.787 169.762 199.74C169.637 199.693 169.498 199.67 169.346 199.67C169.154 199.67 168.984 199.707 168.836 199.781C168.691 199.855 168.568 199.975 168.467 200.139C168.365 200.299 168.287 200.514 168.232 200.783C168.182 201.049 168.156 201.373 168.156 201.756V203.684C168.156 203.992 168.172 204.264 168.203 204.498C168.238 204.732 168.289 204.934 168.355 205.102C168.426 205.266 168.508 205.4 168.602 205.506C168.699 205.607 168.811 205.682 168.936 205.729C169.064 205.775 169.205 205.799 169.357 205.799C169.545 205.799 169.711 205.762 169.855 205.688C170.004 205.609 170.129 205.488 170.23 205.324C170.336 205.156 170.414 204.938 170.465 204.668C170.516 204.398 170.541 204.07 170.541 203.684ZM177.496 198.451V207H175.809V200.396L173.781 201.041V199.711L177.314 198.451H177.496ZM186.016 201.984V203.461C186.016 204.102 185.947 204.654 185.811 205.119C185.674 205.58 185.477 205.959 185.219 206.256C184.965 206.549 184.662 206.766 184.311 206.906C183.959 207.047 183.568 207.117 183.139 207.117C182.795 207.117 182.475 207.074 182.178 206.988C181.881 206.898 181.613 206.76 181.375 206.572C181.141 206.385 180.938 206.148 180.766 205.863C180.598 205.574 180.469 205.23 180.379 204.832C180.289 204.434 180.244 203.977 180.244 203.461V201.984C180.244 201.344 180.312 200.795 180.449 200.338C180.59 199.877 180.787 199.5 181.041 199.207C181.299 198.914 181.604 198.699 181.955 198.562C182.307 198.422 182.697 198.352 183.127 198.352C183.471 198.352 183.789 198.396 184.082 198.486C184.379 198.572 184.646 198.707 184.885 198.891C185.123 199.074 185.326 199.311 185.494 199.6C185.662 199.885 185.791 200.227 185.881 200.625C185.971 201.02 186.016 201.473 186.016 201.984ZM184.322 203.684V201.756C184.322 201.447 184.305 201.178 184.27 200.947C184.238 200.717 184.189 200.521 184.123 200.361C184.057 200.197 183.975 200.064 183.877 199.963C183.779 199.861 183.668 199.787 183.543 199.74C183.418 199.693 183.279 199.67 183.127 199.67C182.936 199.67 182.766 199.707 182.617 199.781C182.473 199.855 182.35 199.975 182.248 200.139C182.146 200.299 182.068 200.514 182.014 200.783C181.963 201.049 181.938 201.373 181.938 201.756V203.684C181.938 203.992 181.953 204.264 181.984 204.498C182.02 204.732 182.07 204.934 182.137 205.102C182.207 205.266 182.289 205.4 182.383 205.506C182.48 205.607 182.592 205.682 182.717 205.729C182.846 205.775 182.986 205.799 183.139 205.799C183.326 205.799 183.492 205.762 183.637 205.688C183.785 205.609 183.91 205.488 184.012 205.324C184.117 205.156 184.195 204.938 184.246 204.668C184.297 204.398 184.322 204.07 184.322 203.684ZM191.277 198.451V207H189.59V200.396L187.562 201.041V199.711L191.096 198.451H191.277ZM199.797 201.984V203.461C199.797 204.102 199.729 204.654 199.592 205.119C199.455 205.58 199.258 205.959 199 206.256C198.746 206.549 198.443 206.766 198.092 206.906C197.74 207.047 197.35 207.117 196.92 207.117C196.576 207.117 196.256 207.074 195.959 206.988C195.662 206.898 195.395 206.76 195.156 206.572C194.922 206.385 194.719 206.148 194.547 205.863C194.379 205.574 194.25 205.23 194.16 204.832C194.07 204.434 194.025 203.977 194.025 203.461V201.984C194.025 201.344 194.094 200.795 194.23 200.338C194.371 199.877 194.568 199.5 194.822 199.207C195.08 198.914 195.385 198.699 195.736 198.562C196.088 198.422 196.479 198.352 196.908 198.352C197.252 198.352 197.57 198.396 197.863 198.486C198.16 198.572 198.428 198.707 198.666 198.891C198.904 199.074 199.107 199.311 199.275 199.6C199.443 199.885 199.572 200.227 199.662 200.625C199.752 201.02 199.797 201.473 199.797 201.984ZM198.104 203.684V201.756C198.104 201.447 198.086 201.178 198.051 200.947C198.02 200.717 197.971 200.521 197.904 200.361C197.838 200.197 197.756 200.064 197.658 199.963C197.561 199.861 197.449 199.787 197.324 199.74C197.199 199.693 197.061 199.67 196.908 199.67C196.717 199.67 196.547 199.707 196.398 199.781C196.254 199.855 196.131 199.975 196.029 200.139C195.928 200.299 195.85 200.514 195.795 200.783C195.744 201.049 195.719 201.373 195.719 201.756V203.684C195.719 203.992 195.734 204.264 195.766 204.498C195.801 204.732 195.852 204.934 195.918 205.102C195.988 205.266 196.07 205.4 196.164 205.506C196.262 205.607 196.373 205.682 196.498 205.729C196.627 205.775 196.768 205.799 196.92 205.799C197.107 205.799 197.273 205.762 197.418 205.688C197.566 205.609 197.691 205.488 197.793 205.324C197.898 205.156 197.977 204.938 198.027 204.668C198.078 204.398 198.104 204.07 198.104 203.684ZM206.688 201.984V203.461C206.688 204.102 206.619 204.654 206.482 205.119C206.346 205.58 206.148 205.959 205.891 206.256C205.637 206.549 205.334 206.766 204.982 206.906C204.631 207.047 204.24 207.117 203.811 207.117C203.467 207.117 203.146 207.074 202.85 206.988C202.553 206.898 202.285 206.76 202.047 206.572C201.812 206.385 201.609 206.148 201.438 205.863C201.27 205.574 201.141 205.23 201.051 204.832C200.961 204.434 200.916 203.977 200.916 203.461V201.984C200.916 201.344 200.984 200.795 201.121 200.338C201.262 199.877 201.459 199.5 201.713 199.207C201.971 198.914 202.275 198.699 202.627 198.562C202.979 198.422 203.369 198.352 203.799 198.352C204.143 198.352 204.461 198.396 204.754 198.486C205.051 198.572 205.318 198.707 205.557 198.891C205.795 199.074 205.998 199.311 206.166 199.6C206.334 199.885 206.463 200.227 206.553 200.625C206.643 201.02 206.688 201.473 206.688 201.984ZM204.994 203.684V201.756C204.994 201.447 204.977 201.178 204.941 200.947C204.91 200.717 204.861 200.521 204.795 200.361C204.729 200.197 204.646 200.064 204.549 199.963C204.451 199.861 204.34 199.787 204.215 199.74C204.09 199.693 203.951 199.67 203.799 199.67C203.607 199.67 203.438 199.707 203.289 199.781C203.145 199.855 203.021 199.975 202.92 200.139C202.818 200.299 202.74 200.514 202.686 200.783C202.635 201.049 202.609 201.373 202.609 201.756V203.684C202.609 203.992 202.625 204.264 202.656 204.498C202.691 204.732 202.742 204.934 202.809 205.102C202.879 205.266 202.961 205.4 203.055 205.506C203.152 205.607 203.264 205.682 203.389 205.729C203.518 205.775 203.658 205.799 203.811 205.799C203.998 205.799 204.164 205.762 204.309 205.688C204.457 205.609 204.582 205.488 204.684 205.324C204.789 205.156 204.867 204.938 204.918 204.668C204.969 204.398 204.994 204.07 204.994 203.684ZM213.578 201.984V203.461C213.578 204.102 213.51 204.654 213.373 205.119C213.236 205.58 213.039 205.959 212.781 206.256C212.527 206.549 212.225 206.766 211.873 206.906C211.521 207.047 211.131 207.117 210.701 207.117C210.357 207.117 210.037 207.074 209.74 206.988C209.443 206.898 209.176 206.76 208.938 206.572C208.703 206.385 208.5 206.148 208.328 205.863C208.16 205.574 208.031 205.23 207.941 204.832C207.852 204.434 207.807 203.977 207.807 203.461V201.984C207.807 201.344 207.875 200.795 208.012 200.338C208.152 199.877 208.35 199.5 208.604 199.207C208.861 198.914 209.166 198.699 209.518 198.562C209.869 198.422 210.26 198.352 210.689 198.352C211.033 198.352 211.352 198.396 211.645 198.486C211.941 198.572 212.209 198.707 212.447 198.891C212.686 199.074 212.889 199.311 213.057 199.6C213.225 199.885 213.354 200.227 213.443 200.625C213.533 201.02 213.578 201.473 213.578 201.984ZM211.885 203.684V201.756C211.885 201.447 211.867 201.178 211.832 200.947C211.801 200.717 211.752 200.521 211.686 200.361C211.619 200.197 211.537 200.064 211.439 199.963C211.342 199.861 211.23 199.787 211.105 199.74C210.98 199.693 210.842 199.67 210.689 199.67C210.498 199.67 210.328 199.707 210.18 199.781C210.035 199.855 209.912 199.975 209.811 200.139C209.709 200.299 209.631 200.514 209.576 200.783C209.525 201.049 209.5 201.373 209.5 201.756V203.684C209.5 203.992 209.516 204.264 209.547 204.498C209.582 204.732 209.633 204.934 209.699 205.102C209.77 205.266 209.852 205.4 209.945 205.506C210.043 205.607 210.154 205.682 210.279 205.729C210.408 205.775 210.549 205.799 210.701 205.799C210.889 205.799 211.055 205.762 211.199 205.688C211.348 205.609 211.473 205.488 211.574 205.324C211.68 205.156 211.758 204.938 211.809 204.668C211.859 204.398 211.885 204.07 211.885 203.684ZM220.469 201.984V203.461C220.469 204.102 220.4 204.654 220.264 205.119C220.127 205.58 219.93 205.959 219.672 206.256C219.418 206.549 219.115 206.766 218.764 206.906C218.412 207.047 218.021 207.117 217.592 207.117C217.248 207.117 216.928 207.074 216.631 206.988C216.334 206.898 216.066 206.76 215.828 206.572C215.594 206.385 215.391 206.148 215.219 205.863C215.051 205.574 214.922 205.23 214.832 204.832C214.742 204.434 214.697 203.977 214.697 203.461V201.984C214.697 201.344 214.766 200.795 214.902 200.338C215.043 199.877 215.24 199.5 215.494 199.207C215.752 198.914 216.057 198.699 216.408 198.562C216.76 198.422 217.15 198.352 217.58 198.352C217.924 198.352 218.242 198.396 218.535 198.486C218.832 198.572 219.1 198.707 219.338 198.891C219.576 199.074 219.779 199.311 219.947 199.6C220.115 199.885 220.244 200.227 220.334 200.625C220.424 201.02 220.469 201.473 220.469 201.984ZM218.775 203.684V201.756C218.775 201.447 218.758 201.178 218.723 200.947C218.691 200.717 218.643 200.521 218.576 200.361C218.51 200.197 218.428 200.064 218.33 199.963C218.232 199.861 218.121 199.787 217.996 199.74C217.871 199.693 217.732 199.67 217.58 199.67C217.389 199.67 217.219 199.707 217.07 199.781C216.926 199.855 216.803 199.975 216.701 200.139C216.6 200.299 216.521 200.514 216.467 200.783C216.416 201.049 216.391 201.373 216.391 201.756V203.684C216.391 203.992 216.406 204.264 216.438 204.498C216.473 204.732 216.523 204.934 216.59 205.102C216.66 205.266 216.742 205.4 216.836 205.506C216.934 205.607 217.045 205.682 217.17 205.729C217.299 205.775 217.439 205.799 217.592 205.799C217.779 205.799 217.945 205.762 218.09 205.688C218.238 205.609 218.363 205.488 218.465 205.324C218.57 205.156 218.648 204.938 218.699 204.668C218.75 204.398 218.775 204.07 218.775 203.684ZM225.73 198.451V207H224.043V200.396L222.016 201.041V199.711L225.549 198.451H225.73ZM232.621 198.451V207H230.934V200.396L228.906 201.041V199.711L232.439 198.451H232.621ZM239.512 198.451V207H237.824V200.396L235.797 201.041V199.711L239.33 198.451H239.512ZM248.031 201.984V203.461C248.031 204.102 247.963 204.654 247.826 205.119C247.689 205.58 247.492 205.959 247.234 206.256C246.98 206.549 246.678 206.766 246.326 206.906C245.975 207.047 245.584 207.117 245.154 207.117C244.811 207.117 244.49 207.074 244.193 206.988C243.896 206.898 243.629 206.76 243.391 206.572C243.156 206.385 242.953 206.148 242.781 205.863C242.613 205.574 242.484 205.23 242.395 204.832C242.305 204.434 242.26 203.977 242.26 203.461V201.984C242.26 201.344 242.328 200.795 242.465 200.338C242.605 199.877 242.803 199.5 243.057 199.207C243.314 198.914 243.619 198.699 243.971 198.562C244.322 198.422 244.713 198.352 245.143 198.352C245.486 198.352 245.805 198.396 246.098 198.486C246.395 198.572 246.662 198.707 246.9 198.891C247.139 199.074 247.342 199.311 247.51 199.6C247.678 199.885 247.807 200.227 247.896 200.625C247.986 201.02 248.031 201.473 248.031 201.984ZM246.338 203.684V201.756C246.338 201.447 246.32 201.178 246.285 200.947C246.254 200.717 246.205 200.521 246.139 200.361C246.072 200.197 245.99 200.064 245.893 199.963C245.795 199.861 245.684 199.787 245.559 199.74C245.434 199.693 245.295 199.67 245.143 199.67C244.951 199.67 244.781 199.707 244.633 199.781C244.488 199.855 244.365 199.975 244.264 200.139C244.162 200.299 244.084 200.514 244.029 200.783C243.979 201.049 243.953 201.373 243.953 201.756V203.684C243.953 203.992 243.969 204.264 244 204.498C244.035 204.732 244.086 204.934 244.152 205.102C244.223 205.266 244.305 205.4 244.398 205.506C244.496 205.607 244.607 205.682 244.732 205.729C244.861 205.775 245.002 205.799 245.154 205.799C245.342 205.799 245.508 205.762 245.652 205.688C245.801 205.609 245.926 205.488 246.027 205.324C246.133 205.156 246.211 204.938 246.262 204.668C246.312 204.398 246.338 204.07 246.338 203.684ZM253.293 198.451V207H251.605V200.396L249.578 201.041V199.711L253.111 198.451H253.293ZM261.812 201.984V203.461C261.812 204.102 261.744 204.654 261.607 205.119C261.471 205.58 261.273 205.959 261.016 206.256C260.762 206.549 260.459 206.766 260.107 206.906C259.756 207.047 259.365 207.117 258.936 207.117C258.592 207.117 258.271 207.074 257.975 206.988C257.678 206.898 257.41 206.76 257.172 206.572C256.938 206.385 256.734 206.148 256.562 205.863C256.395 205.574 256.266 205.23 256.176 204.832C256.086 204.434 256.041 203.977 256.041 203.461V201.984C256.041 201.344 256.109 200.795 256.246 200.338C256.387 199.877 256.584 199.5 256.838 199.207C257.096 198.914 257.4 198.699 257.752 198.562C258.104 198.422 258.494 198.352 258.924 198.352C259.268 198.352 259.586 198.396 259.879 198.486C260.176 198.572 260.443 198.707 260.682 198.891C260.92 199.074 261.123 199.311 261.291 199.6C261.459 199.885 261.588 200.227 261.678 200.625C261.768 201.02 261.812 201.473 261.812 201.984ZM260.119 203.684V201.756C260.119 201.447 260.102 201.178 260.066 200.947C260.035 200.717 259.986 200.521 259.92 200.361C259.854 200.197 259.771 200.064 259.674 199.963C259.576 199.861 259.465 199.787 259.34 199.74C259.215 199.693 259.076 199.67 258.924 199.67C258.732 199.67 258.562 199.707 258.414 199.781C258.27 199.855 258.146 199.975 258.045 200.139C257.943 200.299 257.865 200.514 257.811 200.783C257.76 201.049 257.734 201.373 257.734 201.756V203.684C257.734 203.992 257.75 204.264 257.781 204.498C257.816 204.732 257.867 204.934 257.934 205.102C258.004 205.266 258.086 205.4 258.18 205.506C258.277 205.607 258.389 205.682 258.514 205.729C258.643 205.775 258.783 205.799 258.936 205.799C259.123 205.799 259.289 205.762 259.434 205.688C259.582 205.609 259.707 205.488 259.809 205.324C259.914 205.156 259.992 204.938 260.043 204.668C260.094 204.398 260.119 204.07 260.119 203.684ZM268.703 201.984V203.461C268.703 204.102 268.635 204.654 268.498 205.119C268.361 205.58 268.164 205.959 267.906 206.256C267.652 206.549 267.35 206.766 266.998 206.906C266.646 207.047 266.256 207.117 265.826 207.117C265.482 207.117 265.162 207.074 264.865 206.988C264.568 206.898 264.301 206.76 264.062 206.572C263.828 206.385 263.625 206.148 263.453 205.863C263.285 205.574 263.156 205.23 263.066 204.832C262.977 204.434 262.932 203.977 262.932 203.461V201.984C262.932 201.344 263 200.795 263.137 200.338C263.277 199.877 263.475 199.5 263.729 199.207C263.986 198.914 264.291 198.699 264.643 198.562C264.994 198.422 265.385 198.352 265.814 198.352C266.158 198.352 266.477 198.396 266.77 198.486C267.066 198.572 267.334 198.707 267.572 198.891C267.811 199.074 268.014 199.311 268.182 199.6C268.35 199.885 268.479 200.227 268.568 200.625C268.658 201.02 268.703 201.473 268.703 201.984ZM267.01 203.684V201.756C267.01 201.447 266.992 201.178 266.957 200.947C266.926 200.717 266.877 200.521 266.811 200.361C266.744 200.197 266.662 200.064 266.564 199.963C266.467 199.861 266.355 199.787 266.23 199.74C266.105 199.693 265.967 199.67 265.814 199.67C265.623 199.67 265.453 199.707 265.305 199.781C265.16 199.855 265.037 199.975 264.936 200.139C264.834 200.299 264.756 200.514 264.701 200.783C264.65 201.049 264.625 201.373 264.625 201.756V203.684C264.625 203.992 264.641 204.264 264.672 204.498C264.707 204.732 264.758 204.934 264.824 205.102C264.895 205.266 264.977 205.4 265.07 205.506C265.168 205.607 265.279 205.682 265.404 205.729C265.533 205.775 265.674 205.799 265.826 205.799C266.014 205.799 266.18 205.762 266.324 205.688C266.473 205.609 266.598 205.488 266.699 205.324C266.805 205.156 266.883 204.938 266.934 204.668C266.984 204.398 267.01 204.07 267.01 203.684ZM273.965 198.451V207H272.277V200.396L270.25 201.041V199.711L273.783 198.451H273.965ZM282.484 201.984V203.461C282.484 204.102 282.416 204.654 282.279 205.119C282.143 205.58 281.945 205.959 281.688 206.256C281.434 206.549 281.131 206.766 280.779 206.906C280.428 207.047 280.037 207.117 279.607 207.117C279.264 207.117 278.943 207.074 278.646 206.988C278.35 206.898 278.082 206.76 277.844 206.572C277.609 206.385 277.406 206.148 277.234 205.863C277.066 205.574 276.938 205.23 276.848 204.832C276.758 204.434 276.713 203.977 276.713 203.461V201.984C276.713 201.344 276.781 200.795 276.918 200.338C277.059 199.877 277.256 199.5 277.51 199.207C277.768 198.914 278.072 198.699 278.424 198.562C278.775 198.422 279.166 198.352 279.596 198.352C279.939 198.352 280.258 198.396 280.551 198.486C280.848 198.572 281.115 198.707 281.354 198.891C281.592 199.074 281.795 199.311 281.963 199.6C282.131 199.885 282.26 200.227 282.35 200.625C282.439 201.02 282.484 201.473 282.484 201.984ZM280.791 203.684V201.756C280.791 201.447 280.773 201.178 280.738 200.947C280.707 200.717 280.658 200.521 280.592 200.361C280.525 200.197 280.443 200.064 280.346 199.963C280.248 199.861 280.137 199.787 280.012 199.74C279.887 199.693 279.748 199.67 279.596 199.67C279.404 199.67 279.234 199.707 279.086 199.781C278.941 199.855 278.818 199.975 278.717 200.139C278.615 200.299 278.537 200.514 278.482 200.783C278.432 201.049 278.406 201.373 278.406 201.756V203.684C278.406 203.992 278.422 204.264 278.453 204.498C278.488 204.732 278.539 204.934 278.605 205.102C278.676 205.266 278.758 205.4 278.852 205.506C278.949 205.607 279.061 205.682 279.186 205.729C279.314 205.775 279.455 205.799 279.607 205.799C279.795 205.799 279.961 205.762 280.105 205.688C280.254 205.609 280.379 205.488 280.48 205.324C280.586 205.156 280.664 204.938 280.715 204.668C280.766 204.398 280.791 204.07 280.791 203.684ZM287.746 198.451V207H286.059V200.396L284.031 201.041V199.711L287.564 198.451H287.746ZM296.266 201.984V203.461C296.266 204.102 296.197 204.654 296.061 205.119C295.924 205.58 295.727 205.959 295.469 206.256C295.215 206.549 294.912 206.766 294.561 206.906C294.209 207.047 293.818 207.117 293.389 207.117C293.045 207.117 292.725 207.074 292.428 206.988C292.131 206.898 291.863 206.76 291.625 206.572C291.391 206.385 291.188 206.148 291.016 205.863C290.848 205.574 290.719 205.23 290.629 204.832C290.539 204.434 290.494 203.977 290.494 203.461V201.984C290.494 201.344 290.562 200.795 290.699 200.338C290.84 199.877 291.037 199.5 291.291 199.207C291.549 198.914 291.854 198.699 292.205 198.562C292.557 198.422 292.947 198.352 293.377 198.352C293.721 198.352 294.039 198.396 294.332 198.486C294.629 198.572 294.896 198.707 295.135 198.891C295.373 199.074 295.576 199.311 295.744 199.6C295.912 199.885 296.041 200.227 296.131 200.625C296.221 201.02 296.266 201.473 296.266 201.984ZM294.572 203.684V201.756C294.572 201.447 294.555 201.178 294.52 200.947C294.488 200.717 294.439 200.521 294.373 200.361C294.307 200.197 294.225 200.064 294.127 199.963C294.029 199.861 293.918 199.787 293.793 199.74C293.668 199.693 293.529 199.67 293.377 199.67C293.186 199.67 293.016 199.707 292.867 199.781C292.723 199.855 292.6 199.975 292.498 200.139C292.396 200.299 292.318 200.514 292.264 200.783C292.213 201.049 292.188 201.373 292.188 201.756V203.684C292.188 203.992 292.203 204.264 292.234 204.498C292.27 204.732 292.32 204.934 292.387 205.102C292.457 205.266 292.539 205.4 292.633 205.506C292.73 205.607 292.842 205.682 292.967 205.729C293.096 205.775 293.236 205.799 293.389 205.799C293.576 205.799 293.742 205.762 293.887 205.688C294.035 205.609 294.16 205.488 294.262 205.324C294.367 205.156 294.445 204.938 294.496 204.668C294.547 204.398 294.572 204.07 294.572 203.684ZM301.527 198.451V207H299.84V200.396L297.812 201.041V199.711L301.346 198.451H301.527ZM308.418 198.451V207H306.73V200.396L304.703 201.041V199.711L308.236 198.451H308.418ZM316.938 201.984V203.461C316.938 204.102 316.869 204.654 316.732 205.119C316.596 205.58 316.398 205.959 316.141 206.256C315.887 206.549 315.584 206.766 315.232 206.906C314.881 207.047 314.49 207.117 314.061 207.117C313.717 207.117 313.396 207.074 313.1 206.988C312.803 206.898 312.535 206.76 312.297 206.572C312.062 206.385 311.859 206.148 311.688 205.863C311.52 205.574 311.391 205.23 311.301 204.832C311.211 204.434 311.166 203.977 311.166 203.461V201.984C311.166 201.344 311.234 200.795 311.371 200.338C311.512 199.877 311.709 199.5 311.963 199.207C312.221 198.914 312.525 198.699 312.877 198.562C313.229 198.422 313.619 198.352 314.049 198.352C314.393 198.352 314.711 198.396 315.004 198.486C315.301 198.572 315.568 198.707 315.807 198.891C316.045 199.074 316.248 199.311 316.416 199.6C316.584 199.885 316.713 200.227 316.803 200.625C316.893 201.02 316.938 201.473 316.938 201.984ZM315.244 203.684V201.756C315.244 201.447 315.227 201.178 315.191 200.947C315.16 200.717 315.111 200.521 315.045 200.361C314.979 200.197 314.896 200.064 314.799 199.963C314.701 199.861 314.59 199.787 314.465 199.74C314.34 199.693 314.201 199.67 314.049 199.67C313.857 199.67 313.688 199.707 313.539 199.781C313.395 199.855 313.271 199.975 313.17 200.139C313.068 200.299 312.99 200.514 312.936 200.783C312.885 201.049 312.859 201.373 312.859 201.756V203.684C312.859 203.992 312.875 204.264 312.906 204.498C312.941 204.732 312.992 204.934 313.059 205.102C313.129 205.266 313.211 205.4 313.305 205.506C313.402 205.607 313.514 205.682 313.639 205.729C313.768 205.775 313.908 205.799 314.061 205.799C314.248 205.799 314.414 205.762 314.559 205.688C314.707 205.609 314.832 205.488 314.934 205.324C315.039 205.156 315.117 204.938 315.168 204.668C315.219 204.398 315.244 204.07 315.244 203.684Z" fill="#EAEAEA"/>
<path opacity="0.602309" d="M39.5287 56.7803V109.954" stroke="url(#paint0_linear_4882_2479)" stroke-width="4.94053" stroke-linecap="round"/>
<path fill-rule="evenodd" clip-rule="evenodd" d="M39.5279 112.385C40.8922 112.385 41.9981 111.279 41.9981 109.915C41.9981 108.55 40.8922 107.444 39.5279 107.444C38.1636 107.444 37.0576 108.55 37.0576 109.915C37.0576 111.279 38.1636 112.385 39.5279 112.385Z" fill="#827CD3"/>
<path opacity="0.602309" d="M76.5736 41.9844V91.4287" stroke="url(#paint1_linear_4882_2479)" stroke-width="4.94053" stroke-linecap="round"/>
<path fill-rule="evenodd" clip-rule="evenodd" d="M76.5728 93.8595C77.9371 93.8595 79.0431 92.7535 79.0431 91.3892C79.0431 90.0249 77.9371 88.9189 76.5728 88.9189C75.2085 88.9189 74.1025 90.0249 74.1025 91.3892C74.1025 92.7535 75.2085 93.8595 76.5728 93.8595Z" fill="#827CD3"/>
<path opacity="0.602309" d="M113.631 48.7764V128.484" stroke="url(#paint2_linear_4882_2479)" stroke-width="4.94053" stroke-linecap="round"/>
<path fill-rule="evenodd" clip-rule="evenodd" d="M113.63 130.911C114.995 130.911 116.101 129.805 116.101 128.44C116.101 127.076 114.995 125.97 113.63 125.97C112.266 125.97 111.16 127.076 111.16 128.44C111.16 129.805 112.266 130.911 113.63 130.911Z" fill="#827CD3"/>
<path opacity="0.602309" d="M2.47108 3V69.1958" stroke="url(#paint3_linear_4882_2479)" stroke-width="4.94053" stroke-linecap="round"/>
<path fill-rule="evenodd" clip-rule="evenodd" d="M2.47026 71.6266C3.83455 71.6266 4.94053 70.5206 4.94053 69.1563C4.94053 67.792 3.83455 66.686 2.47026 66.686C1.10597 66.686 0 67.792 0 69.1563C0 70.5206 1.10597 71.6266 2.47026 71.6266Z" fill="#827CD3"/>
<defs>
<linearGradient id="paint0_linear_4882_2479" x1="39.8569" y1="109.954" x2="39.8569" y2="60.4544" gradientUnits="userSpaceOnUse">
<stop stop-color="#827CD3"/>
<stop offset="1" stop-color="#827CD3" stop-opacity="0.01"/>
</linearGradient>
<linearGradient id="paint1_linear_4882_2479" x1="76.9018" y1="91.4287" x2="76.9018" y2="45.4008" gradientUnits="userSpaceOnUse">
<stop stop-color="#827CD3"/>
<stop offset="1" stop-color="#827CD3" stop-opacity="0.01"/>
</linearGradient>
<linearGradient id="paint2_linear_4882_2479" x1="113.959" y1="128.484" x2="113.959" y2="54.2838" gradientUnits="userSpaceOnUse">
<stop stop-color="#827CD3"/>
<stop offset="1" stop-color="#827CD3" stop-opacity="0.01"/>
</linearGradient>
<linearGradient id="paint3_linear_4882_2479" x1="2.79928" y1="69.1958" x2="2.79928" y2="7.57384" gradientUnits="userSpaceOnUse">
<stop stop-color="#827CD3"/>
<stop offset="1" stop-color="#827CD3" stop-opacity="0.01"/>
</linearGradient>
</defs>
</svg>
