<svg width="24" height="24" viewBox="0 0 24 24" fill="none" xmlns="http://www.w3.org/2000/svg">
<circle cx="12" cy="14" r="4" fill="url(#paint0_linear_214_40)"/>
<g filter="url(#filter0_bi_214_40)">
<path d="M8.70406 5.4565C8.13998 5.21719 7.62803 5 6.6189 5C2.56099 5 -0.151939 19 4.27766 19C5.9314 19 7.02161 17.9326 8.11666 16.8605C9.22145 15.7788 10.3312 14.6923 12.0294 14.6923C13.6799 14.6923 14.7865 15.7665 15.8946 16.842C17.0056 17.9203 18.118 19 19.7812 19C24.2108 19 21.2837 5 17.3176 5C16.0692 5 15.5576 5.24006 15.0175 5.4935C14.4136 5.77685 13.7741 6.07692 12.0294 6.07692C10.1665 6.07692 9.39605 5.75007 8.70406 5.4565Z" fill="#F1F1F1" fill-opacity="0.1"/>
<path d="M8.70406 5.4565C8.13998 5.21719 7.62803 5 6.6189 5C2.56099 5 -0.151939 19 4.27766 19C5.9314 19 7.02161 17.9326 8.11666 16.8605C9.22145 15.7788 10.3312 14.6923 12.0294 14.6923C13.6799 14.6923 14.7865 15.7665 15.8946 16.842C17.0056 17.9203 18.118 19 19.7812 19C24.2108 19 21.2837 5 17.3176 5C16.0692 5 15.5576 5.24006 15.0175 5.4935C14.4136 5.77685 13.7741 6.07692 12.0294 6.07692C10.1665 6.07692 9.39605 5.75007 8.70406 5.4565Z" fill="url(#paint1_linear_214_40)" fill-opacity="0.2"/>
<path d="M6.6189 5.1C7.60769 5.1 8.10512 5.31103 8.66395 5.54811L8.66501 5.54856L8.66632 5.54911C9.01242 5.69595 9.38463 5.85385 9.90511 5.97423C10.4259 6.09469 11.0921 6.17692 12.0294 6.17692C12.9074 6.17692 13.5117 6.10144 13.9749 5.98863C14.4381 5.87582 14.7564 5.72646 15.0586 5.58466L15.06 5.58403C15.3301 5.45729 15.5856 5.3376 15.9272 5.24847C16.2687 5.15938 16.6999 5.1 17.3176 5.1C17.7825 5.1 18.2399 5.30494 18.6791 5.6778C19.1185 6.05083 19.5342 6.58747 19.9122 7.23776C20.6681 8.53819 21.2642 10.2769 21.5996 12.0189C21.9352 13.7619 22.0076 15.497 21.7251 16.7912C21.5838 17.4383 21.3555 17.9671 21.0347 18.3325C20.7166 18.6947 20.3048 18.9 19.7812 18.9C18.1648 18.9 17.0806 17.8537 15.9643 16.7702L15.9522 16.7585C14.8533 15.6919 13.7204 14.5923 12.0294 14.5923C10.2903 14.5923 9.15437 15.7045 8.05799 16.778L8.0467 16.789C6.94647 17.8662 5.88444 18.9 4.27766 18.9C3.75402 18.9 3.33856 18.6946 3.01463 18.3318C2.68804 17.9661 2.45196 17.437 2.3015 16.7899C2.00058 15.4956 2.04929 13.7606 2.36388 12.0178C2.67829 10.2759 3.25628 8.53748 4.0049 7.2374C4.37923 6.58732 4.79392 6.05089 5.23603 5.678C5.67778 5.30542 6.14198 5.1 6.6189 5.1Z" stroke="url(#paint2_linear_214_40)" stroke-opacity="0.1" stroke-width="0.2"/>
</g>
<g filter="url(#filter1_i_214_40)">
<circle cx="17" cy="9" r="1" fill="white" fill-opacity="0.16"/>
</g>
<g filter="url(#filter2_i_214_40)">
<circle cx="19" cy="11" r="1" fill="white" fill-opacity="0.16"/>
</g>
<g filter="url(#filter3_i_214_40)">
<circle cx="17" cy="13" r="1" fill="white" fill-opacity="0.16"/>
</g>
<g filter="url(#filter4_i_214_40)">
<circle cx="15" cy="11" r="1" fill="white" fill-opacity="0.16"/>
</g>
<g filter="url(#filter5_i_214_40)">
<path fill-rule="evenodd" clip-rule="evenodd" d="M7 8C6.44772 8 6 8.44772 6 9V10H5C4.44772 10 4 10.4477 4 11C4 11.5523 4.44772 12 5 12H6V13C6 13.5523 6.44772 14 7 14C7.55228 14 8 13.5523 8 13V12H9C9.55228 12 10 11.5523 10 11C10 10.4477 9.55228 10 9 10H8V9C8 8.44772 7.55228 8 7 8Z" fill="white" fill-opacity="0.16"/>
</g>
<defs>
<filter id="filter0_bi_214_40" x="-1" y="2" width="26" height="20" filterUnits="userSpaceOnUse" color-interpolation-filters="sRGB">
<feFlood flood-opacity="0" result="BackgroundImageFix"/>
<feGaussianBlur in="BackgroundImageFix" stdDeviation="1.5"/>
<feComposite in2="SourceAlpha" operator="in" result="effect1_backgroundBlur_214_40"/>
<feBlend mode="normal" in="SourceGraphic" in2="effect1_backgroundBlur_214_40" result="shape"/>
<feColorMatrix in="SourceAlpha" type="matrix" values="0 0 0 0 0 0 0 0 0 0 0 0 0 0 0 0 0 0 127 0" result="hardAlpha"/>
<feOffset dy="0.5"/>
<feGaussianBlur stdDeviation="1"/>
<feComposite in2="hardAlpha" operator="arithmetic" k2="-1" k3="1"/>
<feColorMatrix type="matrix" values="0 0 0 0 1 0 0 0 0 1 0 0 0 0 1 0 0 0 0.4 0"/>
<feBlend mode="normal" in2="shape" result="effect2_innerShadow_214_40"/>
</filter>
<filter id="filter1_i_214_40" x="16" y="8" width="2" height="2.5" filterUnits="userSpaceOnUse" color-interpolation-filters="sRGB">
<feFlood flood-opacity="0" result="BackgroundImageFix"/>
<feBlend mode="normal" in="SourceGraphic" in2="BackgroundImageFix" result="shape"/>
<feColorMatrix in="SourceAlpha" type="matrix" values="0 0 0 0 0 0 0 0 0 0 0 0 0 0 0 0 0 0 127 0" result="hardAlpha"/>
<feOffset dy="0.5"/>
<feGaussianBlur stdDeviation="0.25"/>
<feComposite in2="hardAlpha" operator="arithmetic" k2="-1" k3="1"/>
<feColorMatrix type="matrix" values="0 0 0 0 1 0 0 0 0 1 0 0 0 0 1 0 0 0 0.4 0"/>
<feBlend mode="normal" in2="shape" result="effect1_innerShadow_214_40"/>
</filter>
<filter id="filter2_i_214_40" x="18" y="10" width="2" height="2.5" filterUnits="userSpaceOnUse" color-interpolation-filters="sRGB">
<feFlood flood-opacity="0" result="BackgroundImageFix"/>
<feBlend mode="normal" in="SourceGraphic" in2="BackgroundImageFix" result="shape"/>
<feColorMatrix in="SourceAlpha" type="matrix" values="0 0 0 0 0 0 0 0 0 0 0 0 0 0 0 0 0 0 127 0" result="hardAlpha"/>
<feOffset dy="0.5"/>
<feGaussianBlur stdDeviation="0.25"/>
<feComposite in2="hardAlpha" operator="arithmetic" k2="-1" k3="1"/>
<feColorMatrix type="matrix" values="0 0 0 0 1 0 0 0 0 1 0 0 0 0 1 0 0 0 0.4 0"/>
<feBlend mode="normal" in2="shape" result="effect1_innerShadow_214_40"/>
</filter>
<filter id="filter3_i_214_40" x="16" y="12" width="2" height="2.5" filterUnits="userSpaceOnUse" color-interpolation-filters="sRGB">
<feFlood flood-opacity="0" result="BackgroundImageFix"/>
<feBlend mode="normal" in="SourceGraphic" in2="BackgroundImageFix" result="shape"/>
<feColorMatrix in="SourceAlpha" type="matrix" values="0 0 0 0 0 0 0 0 0 0 0 0 0 0 0 0 0 0 127 0" result="hardAlpha"/>
<feOffset dy="0.5"/>
<feGaussianBlur stdDeviation="0.25"/>
<feComposite in2="hardAlpha" operator="arithmetic" k2="-1" k3="1"/>
<feColorMatrix type="matrix" values="0 0 0 0 1 0 0 0 0 1 0 0 0 0 1 0 0 0 0.4 0"/>
<feBlend mode="normal" in2="shape" result="effect1_innerShadow_214_40"/>
</filter>
<filter id="filter4_i_214_40" x="14" y="10" width="2" height="2.5" filterUnits="userSpaceOnUse" color-interpolation-filters="sRGB">
<feFlood flood-opacity="0" result="BackgroundImageFix"/>
<feBlend mode="normal" in="SourceGraphic" in2="BackgroundImageFix" result="shape"/>
<feColorMatrix in="SourceAlpha" type="matrix" values="0 0 0 0 0 0 0 0 0 0 0 0 0 0 0 0 0 0 127 0" result="hardAlpha"/>
<feOffset dy="0.5"/>
<feGaussianBlur stdDeviation="0.25"/>
<feComposite in2="hardAlpha" operator="arithmetic" k2="-1" k3="1"/>
<feColorMatrix type="matrix" values="0 0 0 0 1 0 0 0 0 1 0 0 0 0 1 0 0 0 0.4 0"/>
<feBlend mode="normal" in2="shape" result="effect1_innerShadow_214_40"/>
</filter>
<filter id="filter5_i_214_40" x="4" y="8" width="6" height="6.5" filterUnits="userSpaceOnUse" color-interpolation-filters="sRGB">
<feFlood flood-opacity="0" result="BackgroundImageFix"/>
<feBlend mode="normal" in="SourceGraphic" in2="BackgroundImageFix" result="shape"/>
<feColorMatrix in="SourceAlpha" type="matrix" values="0 0 0 0 0 0 0 0 0 0 0 0 0 0 0 0 0 0 127 0" result="hardAlpha"/>
<feOffset dy="0.5"/>
<feGaussianBlur stdDeviation="0.25"/>
<feComposite in2="hardAlpha" operator="arithmetic" k2="-1" k3="1"/>
<feColorMatrix type="matrix" values="0 0 0 0 1 0 0 0 0 1 0 0 0 0 1 0 0 0 0.4 0"/>
<feBlend mode="normal" in2="shape" result="effect1_innerShadow_214_40"/>
</filter>
<linearGradient id="paint0_linear_214_40" x1="8.33333" y1="11.6" x2="17.054" y2="12.8112" gradientUnits="userSpaceOnUse">
<stop stop-color="#FE82DB"/>
<stop offset="1" stop-color="#68E4FF"/>
</linearGradient>
<linearGradient id="paint1_linear_214_40" x1="2.83333" y1="7.8" x2="24.2139" y2="12.0422" gradientUnits="userSpaceOnUse">
<stop stop-color="#FE82DB"/>
<stop offset="1" stop-color="#68E4FF"/>
</linearGradient>
<linearGradient id="paint2_linear_214_40" x1="2.625" y1="5.63636" x2="22" y2="5.63636" gradientUnits="userSpaceOnUse">
<stop stop-color="#FD84DC"/>
<stop offset="1" stop-color="#7FD6FA"/>
</linearGradient>
</defs>
</svg>
