<svg width="202" height="143" viewBox="0 0 202 143" fill="none" xmlns="http://www.w3.org/2000/svg">
<g filter="url(#filter0_d_4893_885)">
<rect x="8" y="8" width="186" height="127" rx="8" fill="white" shape-rendering="crispEdges"/>
<rect x="8.5" y="8.5" width="185" height="126" rx="7.5" stroke="#E2E8F0" shape-rendering="crispEdges"/>
<path d="M80.8168 86.179C79.8665 86.179 79.0227 86.0192 78.2855 85.6996C77.5526 85.38 76.9773 84.9432 76.5597 84.3892C76.1463 83.831 75.9418 83.1982 75.946 82.4908C75.9418 81.9411 76.0611 81.4361 76.304 80.9759C76.5469 80.5156 76.875 80.1321 77.2884 79.8253C77.706 79.5142 78.1705 79.3161 78.6818 79.2308V79.1413C78.0085 78.9922 77.4631 78.6491 77.0455 78.1122C76.6321 77.571 76.4276 76.9467 76.4318 76.2393C76.4276 75.5661 76.6151 74.9652 76.9943 74.4368C77.3736 73.9084 77.8935 73.4929 78.554 73.1903C79.2145 72.8835 79.9688 72.7301 80.8168 72.7301C81.6563 72.7301 82.4041 72.8835 83.0604 73.1903C83.7209 73.4929 84.2408 73.9084 84.62 74.4368C85.0036 74.9652 85.1953 75.5661 85.1953 76.2393C85.1953 76.9467 84.9844 77.571 84.5625 78.1122C84.1449 78.6491 83.6058 78.9922 82.9453 79.1413V79.2308C83.4567 79.3161 83.9169 79.5142 84.326 79.8253C84.7393 80.1321 85.0675 80.5156 85.3104 80.9759C85.5575 81.4361 85.6811 81.9411 85.6811 82.4908C85.6811 83.1982 85.4723 83.831 85.0547 84.3892C84.6371 84.9432 84.0618 85.38 83.3288 85.6996C82.6001 86.0192 81.7628 86.179 80.8168 86.179ZM80.8168 84.3509C81.3068 84.3509 81.733 84.2678 82.0952 84.1016C82.4574 83.9311 82.7386 83.6925 82.9389 83.3857C83.1392 83.0788 83.2415 82.7251 83.2457 82.3246C83.2415 81.907 83.1328 81.5384 82.9197 81.2188C82.7109 80.8949 82.4233 80.6413 82.0568 80.4581C81.6946 80.2749 81.2813 80.1832 80.8168 80.1832C80.348 80.1832 79.9304 80.2749 79.5639 80.4581C79.1974 80.6413 78.9077 80.8949 78.6946 81.2188C78.4858 81.5384 78.3835 81.907 78.3878 82.3246C78.3835 82.7251 78.4815 83.0788 78.6818 83.3857C78.8821 83.6882 79.1634 83.9247 79.5256 84.0952C79.892 84.2656 80.3224 84.3509 80.8168 84.3509ZM80.8168 78.3871C81.2173 78.3871 81.571 78.3061 81.8778 78.1442C82.1889 77.9822 82.4339 77.7564 82.6129 77.4666C82.7919 77.1768 82.8835 76.8423 82.8878 76.4631C82.8835 76.0881 82.794 75.7599 82.6193 75.4787C82.4446 75.1932 82.2017 74.9737 81.8906 74.8203C81.5795 74.6626 81.2216 74.5838 80.8168 74.5838C80.4034 74.5838 80.0391 74.6626 79.7237 74.8203C79.4126 74.9737 79.1697 75.1932 78.995 75.4787C78.8246 75.7599 78.7415 76.0881 78.7457 76.4631C78.7415 76.8423 78.8267 77.1768 79.0014 77.4666C79.1804 77.7521 79.4254 77.978 79.7365 78.1442C80.0518 78.3061 80.4119 78.3871 80.8168 78.3871ZM88.2619 86L93.8294 74.9801V74.8906H87.367V72.9091H96.2839V74.9354L90.7228 86H88.2619ZM97.5479 86.1406C97.1602 86.1406 96.8278 86.0043 96.5508 85.7315C96.2738 85.4588 96.1374 85.1264 96.1417 84.7344C96.1374 84.3509 96.2738 84.0227 96.5508 83.75C96.8278 83.4773 97.1602 83.3409 97.5479 83.3409C97.9229 83.3409 98.2489 83.4773 98.5259 83.75C98.8072 84.0227 98.9499 84.3509 98.9542 84.7344C98.9499 84.9943 98.8817 85.2308 98.7496 85.4439C98.6218 85.657 98.4513 85.8274 98.2383 85.9553C98.0295 86.0788 97.7994 86.1406 97.5479 86.1406ZM105.602 86.179C104.975 86.1747 104.364 86.0661 103.767 85.853C103.171 85.6357 102.634 85.2841 102.157 84.7983C101.679 84.3082 101.3 83.6584 101.019 82.8487C100.738 82.0348 100.599 81.027 100.603 79.8253C100.603 78.7045 100.723 77.7053 100.961 76.8274C101.2 75.9496 101.543 75.2081 101.99 74.603C102.438 73.9936 102.977 73.5291 103.608 73.2095C104.243 72.8899 104.952 72.7301 105.736 72.7301C106.559 72.7301 107.287 72.892 107.922 73.2159C108.561 73.5398 109.077 73.983 109.469 74.5455C109.861 75.1037 110.104 75.7344 110.198 76.4375H107.865C107.745 75.9347 107.5 75.5341 107.13 75.2358C106.763 74.9332 106.299 74.782 105.736 74.782C104.828 74.782 104.13 75.1761 103.64 75.9645C103.154 76.7528 102.909 77.8352 102.904 79.2116H102.994C103.203 78.8366 103.473 78.5149 103.806 78.2464C104.138 77.978 104.513 77.7713 104.931 77.6264C105.353 77.4773 105.798 77.4027 106.267 77.4027C107.034 77.4027 107.722 77.5859 108.331 77.9524C108.945 78.3189 109.431 78.8239 109.789 79.4673C110.147 80.1065 110.324 80.8395 110.319 81.6662C110.324 82.527 110.127 83.3004 109.731 83.9865C109.335 84.6683 108.783 85.2053 108.076 85.5973C107.368 85.9893 106.544 86.1832 105.602 86.179ZM105.589 84.2614C106.054 84.2614 106.469 84.1484 106.836 83.9226C107.202 83.6967 107.492 83.392 107.705 83.0085C107.918 82.625 108.022 82.1946 108.018 81.7173C108.022 81.2486 107.92 80.8246 107.711 80.4453C107.507 80.0661 107.223 79.7656 106.861 79.544C106.499 79.3224 106.086 79.2116 105.621 79.2116C105.276 79.2116 104.954 79.2777 104.656 79.4098C104.358 79.5419 104.098 79.7251 103.876 79.9595C103.654 80.1896 103.48 80.4581 103.352 80.7649C103.228 81.0675 103.164 81.3913 103.16 81.7365C103.164 82.1925 103.271 82.6122 103.48 82.9957C103.689 83.3793 103.976 83.6861 104.343 83.9162C104.709 84.1463 105.125 84.2614 105.589 84.2614ZM119.479 83.5455V82.8551C119.479 82.348 119.586 81.8814 119.799 81.4553C120.016 81.0291 120.331 80.6861 120.745 80.4261C121.158 80.1662 121.659 80.0362 122.247 80.0362C122.852 80.0362 123.359 80.1662 123.768 80.4261C124.177 80.6818 124.486 81.0227 124.695 81.4489C124.908 81.875 125.015 82.3437 125.015 82.8551V83.5455C125.015 84.0526 124.908 84.5192 124.695 84.9453C124.482 85.3714 124.169 85.7145 123.755 85.9744C123.346 86.2344 122.843 86.3643 122.247 86.3643C121.65 86.3643 121.145 86.2344 120.732 85.9744C120.319 85.7145 120.005 85.3714 119.792 84.9453C119.583 84.5192 119.479 84.0526 119.479 83.5455ZM121.147 82.8551V83.5455C121.147 83.8821 121.228 84.1911 121.39 84.4723C121.552 84.7536 121.838 84.8942 122.247 84.8942C122.66 84.8942 122.944 84.7557 123.097 84.4787C123.255 84.1974 123.333 83.8864 123.333 83.5455V82.8551C123.333 82.5142 123.259 82.2031 123.11 81.9219C122.961 81.6364 122.673 81.4936 122.247 81.4936C121.846 81.4936 121.563 81.6364 121.397 81.9219C121.23 82.2031 121.147 82.5142 121.147 82.8551ZM112.825 76.054V75.3636C112.825 74.8523 112.934 74.3835 113.151 73.9574C113.368 73.5312 113.684 73.1903 114.097 72.9347C114.51 72.6747 115.011 72.5447 115.599 72.5447C116.2 72.5447 116.705 72.6747 117.114 72.9347C117.527 73.1903 117.838 73.5312 118.047 73.9574C118.256 74.3835 118.36 74.8523 118.36 75.3636V76.054C118.36 76.5653 118.254 77.0341 118.041 77.4602C117.832 77.8821 117.521 78.2209 117.108 78.4766C116.694 78.7322 116.191 78.8601 115.599 78.8601C114.998 78.8601 114.491 78.7322 114.078 78.4766C113.669 78.2209 113.358 77.88 113.145 77.4538C112.931 77.0277 112.825 76.5611 112.825 76.054ZM114.506 75.3636V76.054C114.506 76.3949 114.585 76.706 114.743 76.9872C114.904 77.2642 115.19 77.4027 115.599 77.4027C116.008 77.4027 116.289 77.2642 116.443 76.9872C116.6 76.706 116.679 76.3949 116.679 76.054V75.3636C116.679 75.0227 116.605 74.7116 116.456 74.4304C116.306 74.1449 116.021 74.0021 115.599 74.0021C115.194 74.0021 114.911 74.1449 114.749 74.4304C114.587 74.7159 114.506 75.027 114.506 75.3636ZM113.554 86L122.554 72.9091H124.152L115.152 86H113.554Z" fill="black"/>
<path d="M23.2738 99.8182H25.5309L28.5536 107.196H28.6729L31.6957 99.8182H33.9528V110H32.1829V103.005H32.0884L29.2745 109.97H27.9521L25.1381 102.99H25.0437V110H23.2738V99.8182ZM38.0792 110.154C37.5953 110.154 37.1594 110.068 36.7717 109.896C36.3872 109.72 36.0823 109.461 35.8569 109.12C35.6348 108.779 35.5238 108.358 35.5238 107.857C35.5238 107.426 35.6033 107.07 35.7624 106.788C35.9215 106.507 36.1386 106.281 36.4137 106.112C36.6888 105.943 36.9987 105.816 37.3434 105.729C37.6914 105.64 38.051 105.575 38.4222 105.536C38.8697 105.489 39.2326 105.448 39.511 105.411C39.7894 105.371 39.9916 105.312 40.1175 105.232C40.2468 105.149 40.3114 105.022 40.3114 104.849V104.82C40.3114 104.445 40.2004 104.155 39.9783 103.95C39.7563 103.744 39.4364 103.641 39.0188 103.641C38.578 103.641 38.2283 103.737 37.9698 103.93C37.7146 104.122 37.5423 104.349 37.4528 104.611L35.7724 104.372C35.9049 103.908 36.1237 103.52 36.4286 103.209C36.7335 102.894 37.1064 102.659 37.5472 102.503C37.988 102.344 38.4753 102.264 39.0089 102.264C39.3768 102.264 39.743 102.307 40.1076 102.393C40.4722 102.48 40.8053 102.622 41.1069 102.821C41.4085 103.017 41.6505 103.283 41.8327 103.621C42.0183 103.96 42.1112 104.382 42.1112 104.889V110H40.381V108.951H40.3214C40.212 109.163 40.0579 109.362 39.859 109.548C39.6635 109.73 39.4165 109.877 39.1183 109.99C38.8233 110.099 38.4769 110.154 38.0792 110.154ZM38.5465 108.832C38.9078 108.832 39.221 108.76 39.4862 108.618C39.7513 108.472 39.9551 108.28 40.0977 108.041C40.2435 107.803 40.3164 107.542 40.3164 107.261V106.361C40.2601 106.407 40.1639 106.45 40.0281 106.49C39.8955 106.53 39.7463 106.565 39.5806 106.594C39.4149 106.624 39.2508 106.651 39.0884 106.674C38.926 106.697 38.7852 106.717 38.6658 106.734C38.3974 106.77 38.1571 106.83 37.945 106.913C37.7328 106.996 37.5655 107.112 37.4428 107.261C37.3202 107.406 37.2589 107.595 37.2589 107.827C37.2589 108.159 37.3799 108.409 37.6218 108.578C37.8638 108.747 38.172 108.832 38.5465 108.832ZM43.9208 110V102.364H45.7205V110H43.9208ZM44.8256 101.28C44.5406 101.28 44.2953 101.185 44.0898 100.996C43.8844 100.804 43.7816 100.574 43.7816 100.305C43.7816 100.034 43.8844 99.8033 44.0898 99.6143C44.2953 99.4221 44.5406 99.326 44.8256 99.326C45.114 99.326 45.3593 99.4221 45.5614 99.6143C45.7669 99.8033 45.8697 100.034 45.8697 100.305C45.8697 100.574 45.7669 100.804 45.5614 100.996C45.3593 101.185 45.114 101.28 44.8256 101.28ZM53.6067 104.382L51.9661 104.561C51.9197 104.395 51.8385 104.24 51.7225 104.094C51.6098 103.948 51.4573 103.83 51.2651 103.741C51.0729 103.651 50.8375 103.607 50.5591 103.607C50.1846 103.607 49.8697 103.688 49.6145 103.85C49.3626 104.013 49.2383 104.223 49.2417 104.482C49.2383 104.704 49.3195 104.884 49.4853 105.023C49.6543 105.163 49.9327 105.277 50.3205 105.366L51.623 105.645C52.3456 105.801 52.8825 106.048 53.2338 106.386C53.5885 106.724 53.7675 107.166 53.7708 107.713C53.7675 108.194 53.6266 108.618 53.3482 108.986C53.0731 109.35 52.6903 109.635 52.1998 109.841C51.7092 110.046 51.1458 110.149 50.5094 110.149C49.5748 110.149 48.8224 109.954 48.2523 109.562C47.6822 109.168 47.3425 108.62 47.2331 107.917L48.9881 107.748C49.0676 108.093 49.2367 108.353 49.4952 108.528C49.7537 108.704 50.0901 108.792 50.5044 108.792C50.932 108.792 51.275 108.704 51.5336 108.528C51.7954 108.353 51.9263 108.136 51.9263 107.877C51.9263 107.658 51.8418 107.478 51.6728 107.335C51.507 107.193 51.2485 107.083 50.8972 107.007L49.5946 106.734C48.8622 106.581 48.3203 106.324 47.9689 105.963C47.6176 105.598 47.4436 105.138 47.4469 104.581C47.4436 104.11 47.5712 103.703 47.8297 103.358C48.0916 103.01 48.4545 102.741 48.9185 102.553C49.3858 102.36 49.9244 102.264 50.5343 102.264C51.4292 102.264 52.1335 102.455 52.6472 102.836C53.1642 103.217 53.4841 103.732 53.6067 104.382ZM65.5485 102.364L62.829 110H60.8404L58.1209 102.364H60.04L61.7949 108.036H61.8745L63.6344 102.364H65.5485ZM66.7939 110V102.364H68.5936V110H66.7939ZM67.6987 101.28C67.4136 101.28 67.1684 101.185 66.9629 100.996C66.7574 100.804 66.6547 100.574 66.6547 100.305C66.6547 100.034 66.7574 99.8033 66.9629 99.6143C67.1684 99.4221 67.4136 99.326 67.6987 99.326C67.987 99.326 68.2323 99.4221 68.4345 99.6143C68.64 99.8033 68.7427 100.034 68.7427 100.305C68.7427 100.574 68.64 100.804 68.4345 100.996C68.2323 101.185 67.987 101.28 67.6987 101.28ZM76.4798 104.382L74.8391 104.561C74.7927 104.395 74.7115 104.24 74.5955 104.094C74.4828 103.948 74.3304 103.83 74.1381 103.741C73.9459 103.651 73.7106 103.607 73.4322 103.607C73.0576 103.607 72.7428 103.688 72.4876 103.85C72.2357 104.013 72.1114 104.223 72.1147 104.482C72.1114 104.704 72.1926 104.884 72.3583 105.023C72.5273 105.163 72.8058 105.277 73.1935 105.366L74.4961 105.645C75.2186 105.801 75.7556 106.048 76.1069 106.386C76.4615 106.724 76.6405 107.166 76.6438 107.713C76.6405 108.194 76.4996 108.618 76.2212 108.986C75.9461 109.35 75.5633 109.635 75.0728 109.841C74.5823 110.046 74.0188 110.149 73.3825 110.149C72.4478 110.149 71.6954 109.954 71.1254 109.562C70.5553 109.168 70.2156 108.62 70.1062 107.917L71.8612 107.748C71.9407 108.093 72.1097 108.353 72.3683 108.528C72.6268 108.704 72.9632 108.792 73.3775 108.792C73.805 108.792 74.1481 108.704 74.4066 108.528C74.6684 108.353 74.7994 108.136 74.7994 107.877C74.7994 107.658 74.7148 107.478 74.5458 107.335C74.3801 107.193 74.1216 107.083 73.7702 107.007L72.4677 106.734C71.7352 106.581 71.1933 106.324 70.842 105.963C70.4906 105.598 70.3166 105.138 70.32 104.581C70.3166 104.11 70.4442 103.703 70.7028 103.358C70.9646 103.01 71.3275 102.741 71.7915 102.553C72.2589 102.36 72.7975 102.264 73.4073 102.264C74.3022 102.264 75.0065 102.455 75.5202 102.836C76.0373 103.217 76.3571 103.732 76.4798 104.382ZM78.1278 110V102.364H79.9276V110H78.1278ZM79.0327 101.28C78.7476 101.28 78.5024 101.185 78.2969 100.996C78.0914 100.804 77.9886 100.574 77.9886 100.305C77.9886 100.034 78.0914 99.8033 78.2969 99.6143C78.5024 99.4221 78.7476 99.326 79.0327 99.326C79.321 99.326 79.5663 99.4221 79.7685 99.6143C79.974 99.8033 80.0767 100.034 80.0767 100.305C80.0767 100.574 79.974 100.804 79.7685 100.996C79.5663 101.185 79.321 101.28 79.0327 101.28ZM85.5914 102.364V103.756H81.2015V102.364H85.5914ZM82.2853 100.534H84.085V107.703C84.085 107.945 84.1215 108.131 84.1944 108.26C84.2707 108.386 84.3701 108.472 84.4927 108.518C84.6154 108.565 84.7512 108.588 84.9004 108.588C85.0131 108.588 85.1158 108.58 85.2086 108.563C85.3047 108.547 85.3777 108.532 85.4274 108.518L85.7306 109.925C85.6345 109.959 85.497 109.995 85.318 110.035C85.1423 110.075 84.9269 110.098 84.6717 110.104C84.2209 110.118 83.8149 110.05 83.4537 109.901C83.0924 109.748 82.8057 109.513 82.5936 109.195C82.3848 108.876 82.282 108.479 82.2853 108.001V100.534ZM89.294 110.154C88.8101 110.154 88.3743 110.068 87.9865 109.896C87.602 109.72 87.2971 109.461 87.0717 109.12C86.8497 108.779 86.7386 108.358 86.7386 107.857C86.7386 107.426 86.8182 107.07 86.9773 106.788C87.1364 106.507 87.3535 106.281 87.6286 106.112C87.9036 105.943 88.2135 105.816 88.5582 105.729C88.9063 105.64 89.2659 105.575 89.6371 105.536C90.0845 105.489 90.4474 105.448 90.7259 105.411C91.0043 105.371 91.2064 105.312 91.3324 105.232C91.4616 105.149 91.5263 105.022 91.5263 104.849V104.82C91.5263 104.445 91.4152 104.155 91.1932 103.95C90.9711 103.744 90.6513 103.641 90.2337 103.641C89.7929 103.641 89.4432 103.737 89.1847 103.93C88.9295 104.122 88.7571 104.349 88.6676 104.611L86.9872 104.372C87.1198 103.908 87.3385 103.52 87.6435 103.209C87.9484 102.894 88.3213 102.659 88.7621 102.503C89.2029 102.344 89.6901 102.264 90.2237 102.264C90.5916 102.264 90.9579 102.307 91.3224 102.393C91.687 102.48 92.0201 102.622 92.3217 102.821C92.6233 103.017 92.8653 103.283 93.0476 103.621C93.2332 103.96 93.326 104.382 93.326 104.889V110H91.5959V108.951H91.5362C91.4268 109.163 91.2727 109.362 91.0739 109.548C90.8783 109.73 90.6314 109.877 90.3331 109.99C90.0381 110.099 89.6918 110.154 89.294 110.154ZM89.7614 108.832C90.1226 108.832 90.4358 108.76 90.701 108.618C90.9661 108.472 91.17 108.28 91.3125 108.041C91.4583 107.803 91.5312 107.542 91.5312 107.261V106.361C91.4749 106.407 91.3788 106.45 91.2429 106.49C91.1103 106.53 90.9612 106.565 90.7955 106.594C90.6297 106.624 90.4657 106.651 90.3033 106.674C90.1409 106.697 90 106.717 89.8807 106.734C89.6122 106.77 89.3719 106.83 89.1598 106.913C88.9477 106.996 88.7803 107.112 88.6577 107.261C88.535 107.406 88.4737 107.595 88.4737 107.827C88.4737 108.159 88.5947 108.409 88.8366 108.578C89.0786 108.747 89.3868 108.832 89.7614 108.832ZM101.171 104.382L99.5305 104.561C99.4841 104.395 99.4029 104.24 99.2869 104.094C99.1742 103.948 99.0218 103.83 98.8295 103.741C98.6373 103.651 98.402 103.607 98.1236 103.607C97.7491 103.607 97.4342 103.688 97.179 103.85C96.9271 104.013 96.8028 104.223 96.8061 104.482C96.8028 104.704 96.884 104.884 97.0497 105.023C97.2188 105.163 97.4972 105.277 97.8849 105.366L99.1875 105.645C99.91 105.801 100.447 106.048 100.798 106.386C101.153 106.724 101.332 107.166 101.335 107.713C101.332 108.194 101.191 108.618 100.913 108.986C100.638 109.35 100.255 109.635 99.7642 109.841C99.2737 110.046 98.7102 110.149 98.0739 110.149C97.1392 110.149 96.3868 109.954 95.8168 109.562C95.2467 109.168 94.907 108.62 94.7976 107.917L96.5526 107.748C96.6321 108.093 96.8011 108.353 97.0597 108.528C97.3182 108.704 97.6546 108.792 98.0689 108.792C98.4964 108.792 98.8395 108.704 99.098 108.528C99.3598 108.353 99.4908 108.136 99.4908 107.877C99.4908 107.658 99.4063 107.478 99.2372 107.335C99.0715 107.193 98.813 107.083 98.4616 107.007L97.1591 106.734C96.4266 106.581 95.8847 106.324 95.5334 105.963C95.1821 105.598 95.008 105.138 95.0114 104.581C95.008 104.11 95.1357 103.703 95.3942 103.358C95.656 103.01 96.0189 102.741 96.483 102.553C96.9503 102.36 97.4889 102.264 98.0987 102.264C98.9936 102.264 99.6979 102.455 100.212 102.836C100.729 103.217 101.049 103.732 101.171 104.382ZM108.092 105.526V110H106.292V102.364H108.012V103.661H108.102C108.277 103.234 108.557 102.894 108.942 102.642C109.33 102.39 109.808 102.264 110.379 102.264C110.906 102.264 111.365 102.377 111.756 102.602C112.15 102.828 112.455 103.154 112.67 103.582C112.889 104.009 112.997 104.528 112.994 105.138V110H111.194V105.416C111.194 104.906 111.061 104.506 110.796 104.218C110.534 103.93 110.171 103.786 109.707 103.786C109.393 103.786 109.112 103.855 108.867 103.994C108.625 104.13 108.435 104.327 108.295 104.586C108.16 104.844 108.092 105.158 108.092 105.526ZM118.154 110.149C117.408 110.149 116.762 109.985 116.215 109.657C115.668 109.329 115.244 108.87 114.942 108.28C114.644 107.69 114.495 107 114.495 106.212C114.495 105.423 114.644 104.732 114.942 104.138C115.244 103.545 115.668 103.085 116.215 102.756C116.762 102.428 117.408 102.264 118.154 102.264C118.9 102.264 119.546 102.428 120.093 102.756C120.64 103.085 121.063 103.545 121.361 104.138C121.662 104.732 121.813 105.423 121.813 106.212C121.813 107 121.662 107.69 121.361 108.28C121.063 108.87 120.64 109.329 120.093 109.657C119.546 109.985 118.9 110.149 118.154 110.149ZM118.164 108.707C118.568 108.707 118.906 108.596 119.178 108.374C119.45 108.149 119.652 107.847 119.785 107.469C119.921 107.092 119.989 106.671 119.989 106.207C119.989 105.739 119.921 105.317 119.785 104.939C119.652 104.558 119.45 104.254 119.178 104.029C118.906 103.804 118.568 103.691 118.164 103.691C117.75 103.691 117.405 103.804 117.13 104.029C116.858 104.254 116.654 104.558 116.518 104.939C116.386 105.317 116.32 105.739 116.32 106.207C116.32 106.671 116.386 107.092 116.518 107.469C116.654 107.847 116.858 108.149 117.13 108.374C117.405 108.596 117.75 108.707 118.164 108.707ZM132.849 104.382L131.208 104.561C131.162 104.395 131.081 104.24 130.965 104.094C130.852 103.948 130.7 103.83 130.507 103.741C130.315 103.651 130.08 103.607 129.801 103.607C129.427 103.607 129.112 103.688 128.857 103.85C128.605 104.013 128.481 104.223 128.484 104.482C128.481 104.704 128.562 104.884 128.727 105.023C128.896 105.163 129.175 105.277 129.563 105.366L130.865 105.645C131.588 105.801 132.125 106.048 132.476 106.386C132.831 106.724 133.01 107.166 133.013 107.713C133.01 108.194 132.869 108.618 132.59 108.986C132.315 109.35 131.932 109.635 131.442 109.841C130.951 110.046 130.388 110.149 129.752 110.149C128.817 110.149 128.065 109.954 127.494 109.562C126.924 109.168 126.585 108.62 126.475 107.917L128.23 107.748C128.31 108.093 128.479 108.353 128.737 108.528C128.996 108.704 129.332 108.792 129.747 108.792C130.174 108.792 130.517 108.704 130.776 108.528C131.038 108.353 131.169 108.136 131.169 107.877C131.169 107.658 131.084 107.478 130.915 107.335C130.749 107.193 130.491 107.083 130.139 107.007L128.837 106.734C128.104 106.581 127.562 106.324 127.211 105.963C126.86 105.598 126.686 105.138 126.689 104.581C126.686 104.11 126.813 103.703 127.072 103.358C127.334 103.01 127.697 102.741 128.161 102.553C128.628 102.36 129.167 102.264 129.776 102.264C130.671 102.264 131.376 102.455 131.889 102.836C132.406 103.217 132.726 103.732 132.849 104.382ZM137.878 110.149C137.112 110.149 136.451 109.99 135.894 109.672C135.34 109.35 134.915 108.896 134.616 108.31C134.318 107.72 134.169 107.025 134.169 106.227C134.169 105.441 134.318 104.752 134.616 104.158C134.918 103.562 135.339 103.098 135.879 102.766C136.419 102.432 137.054 102.264 137.783 102.264C138.254 102.264 138.698 102.34 139.116 102.493C139.537 102.642 139.908 102.874 140.229 103.189C140.554 103.504 140.809 103.905 140.995 104.392C141.18 104.876 141.273 105.453 141.273 106.122V106.674H135.014V105.461H139.548C139.545 105.116 139.47 104.81 139.324 104.541C139.179 104.269 138.975 104.056 138.713 103.9C138.454 103.744 138.153 103.666 137.808 103.666C137.44 103.666 137.117 103.756 136.839 103.935C136.56 104.11 136.343 104.342 136.187 104.631C136.035 104.916 135.957 105.229 135.954 105.57V106.629C135.954 107.073 136.035 107.455 136.197 107.773C136.36 108.088 136.587 108.33 136.878 108.499C137.17 108.664 137.511 108.747 137.903 108.747C138.164 108.747 138.401 108.711 138.613 108.638C138.826 108.562 139.01 108.451 139.165 108.305C139.321 108.159 139.439 107.978 139.518 107.763L141.199 107.952C141.093 108.396 140.89 108.784 140.592 109.115C140.297 109.443 139.919 109.698 139.459 109.881C138.998 110.06 138.471 110.149 137.878 110.149ZM147.663 106.788V102.364H149.463V110H147.718V108.643H147.638C147.466 109.07 147.182 109.42 146.788 109.692C146.397 109.964 145.915 110.099 145.341 110.099C144.841 110.099 144.398 109.988 144.014 109.766C143.633 109.541 143.334 109.214 143.119 108.787C142.904 108.356 142.796 107.836 142.796 107.226V102.364H144.596V106.947C144.596 107.431 144.728 107.816 144.993 108.101C145.258 108.386 145.606 108.528 146.037 108.528C146.302 108.528 146.559 108.464 146.808 108.335C147.056 108.205 147.26 108.013 147.419 107.758C147.582 107.499 147.663 107.176 147.663 106.788ZM160.822 104.382L159.181 104.561C159.135 104.395 159.053 104.24 158.937 104.094C158.825 103.948 158.672 103.83 158.48 103.741C158.288 103.651 158.052 103.607 157.774 103.607C157.399 103.607 157.085 103.688 156.829 103.85C156.577 104.013 156.453 104.223 156.456 104.482C156.453 104.704 156.534 104.884 156.7 105.023C156.869 105.163 157.148 105.277 157.535 105.366L158.838 105.645C159.56 105.801 160.097 106.048 160.449 106.386C160.803 106.724 160.982 107.166 160.986 107.713C160.982 108.194 160.841 108.618 160.563 108.986C160.288 109.35 159.905 109.635 159.415 109.841C158.924 110.046 158.361 110.149 157.724 110.149C156.79 110.149 156.037 109.954 155.467 109.562C154.897 109.168 154.557 108.62 154.448 107.917L156.203 107.748C156.282 108.093 156.452 108.353 156.71 108.528C156.969 108.704 157.305 108.792 157.719 108.792C158.147 108.792 158.49 108.704 158.748 108.528C159.01 108.353 159.141 108.136 159.141 107.877C159.141 107.658 159.057 107.478 158.888 107.335C158.722 107.193 158.463 107.083 158.112 107.007L156.809 106.734C156.077 106.581 155.535 106.324 155.184 105.963C154.832 105.598 154.658 105.138 154.662 104.581C154.658 104.11 154.786 103.703 155.045 103.358C155.306 103.01 155.669 102.741 156.133 102.553C156.601 102.36 157.139 102.264 157.749 102.264C158.644 102.264 159.348 102.455 159.862 102.836C160.379 103.217 160.699 103.732 160.822 104.382ZM162.47 110V102.364H164.269V110H162.47ZM163.374 101.28C163.089 101.28 162.844 101.185 162.639 100.996C162.433 100.804 162.33 100.574 162.33 100.305C162.33 100.034 162.433 99.8033 162.639 99.6143C162.844 99.4221 163.089 99.326 163.374 99.326C163.663 99.326 163.908 99.4221 164.11 99.6143C164.316 99.8033 164.419 100.034 164.419 100.305C164.419 100.574 164.316 100.804 164.11 100.996C163.908 101.185 163.663 101.28 163.374 101.28ZM169.933 102.364V103.756H165.543V102.364H169.933ZM166.627 100.534H168.427V107.703C168.427 107.945 168.463 108.131 168.536 108.26C168.612 108.386 168.712 108.472 168.835 108.518C168.957 108.565 169.093 108.588 169.242 108.588C169.355 108.588 169.458 108.58 169.55 108.563C169.647 108.547 169.719 108.532 169.769 108.518L170.072 109.925C169.976 109.959 169.839 109.995 169.66 110.035C169.484 110.075 169.269 110.098 169.013 110.104C168.563 110.118 168.157 110.05 167.795 109.901C167.434 109.748 167.147 109.513 166.935 109.195C166.727 108.876 166.624 108.479 166.627 108.001V100.534ZM174.737 110.149C173.971 110.149 173.31 109.99 172.753 109.672C172.2 109.35 171.774 108.896 171.476 108.31C171.177 107.72 171.028 107.025 171.028 106.227C171.028 105.441 171.177 104.752 171.476 104.158C171.777 103.562 172.198 103.098 172.738 102.766C173.279 102.432 173.913 102.264 174.643 102.264C175.113 102.264 175.557 102.34 175.975 102.493C176.396 102.642 176.767 102.874 177.089 103.189C177.413 103.504 177.669 103.905 177.854 104.392C178.04 104.876 178.133 105.453 178.133 106.122V106.674H171.873V105.461H176.407C176.404 105.116 176.33 104.81 176.184 104.541C176.038 104.269 175.834 104.056 175.572 103.9C175.314 103.744 175.012 103.666 174.667 103.666C174.3 103.666 173.976 103.756 173.698 103.935C173.42 104.11 173.202 104.342 173.047 104.631C172.894 104.916 172.816 105.229 172.813 105.57V106.629C172.813 107.073 172.894 107.455 173.057 107.773C173.219 108.088 173.446 108.33 173.738 108.499C174.029 108.664 174.371 108.747 174.762 108.747C175.024 108.747 175.261 108.711 175.473 108.638C175.685 108.562 175.869 108.451 176.025 108.305C176.18 108.159 176.298 107.978 176.378 107.763L178.058 107.952C177.952 108.396 177.75 108.784 177.452 109.115C177.157 109.443 176.779 109.698 176.318 109.881C175.857 110.06 175.33 110.149 174.737 110.149Z" fill="#64748B"/>
<path d="M166 85C166 67.7609 159.152 51.2279 146.962 39.0381C134.772 26.8482 118.239 20 101 20C83.7609 20 67.2279 26.8482 55.0381 39.0381C42.8482 51.2279 36 67.7609 36 85H48.9751C48.9751 71.2021 54.4563 57.9694 64.2129 48.2128C73.9694 38.4563 87.2021 32.9751 101 32.9751C114.798 32.9751 128.031 38.4563 137.787 48.2129C147.544 57.9694 153.025 71.2021 153.025 85H166Z" fill="#BFDBFE"/>
<path d="M151.893 44.5663C143.521 34.0285 132.084 26.3494 119.162 22.5888C106.239 18.8283 92.4677 19.1719 79.7486 23.5722C67.0296 27.9724 55.99 36.2123 48.1538 47.1545C40.3176 58.0967 36.0713 71.2015 36.0009 84.66L48.9758 84.7279C49.0322 73.9559 52.4309 63.467 58.7028 54.7091C64.9748 45.9512 73.8106 39.3561 83.9908 35.8342C94.1709 32.3123 105.193 32.0373 115.536 35.0472C125.879 38.057 135.033 44.2033 141.734 52.6376L151.893 44.5663Z" fill="#7C89E4"/>
<path d="M107 57C107 60.3137 104.314 63 101 63C97.6863 63 95 60.3137 95 57C95 53.6863 97.6863 51 101 51C104.314 51 107 53.6863 107 57Z" fill="#2563EB"/>
</g>
<defs>
<filter id="filter0_d_4893_885" x="0" y="0" width="202" height="143" filterUnits="userSpaceOnUse" color-interpolation-filters="sRGB">
<feFlood flood-opacity="0" result="BackgroundImageFix"/>
<feColorMatrix in="SourceAlpha" type="matrix" values="0 0 0 0 0 0 0 0 0 0 0 0 0 0 0 0 0 0 127 0" result="hardAlpha"/>
<feOffset/>
<feGaussianBlur stdDeviation="4"/>
<feComposite in2="hardAlpha" operator="out"/>
<feColorMatrix type="matrix" values="0 0 0 0 0.231373 0 0 0 0 0.509804 0 0 0 0 0.964706 0 0 0 0.12 0"/>
<feBlend mode="normal" in2="BackgroundImageFix" result="effect1_dropShadow_4893_885"/>
<feBlend mode="normal" in="SourceGraphic" in2="effect1_dropShadow_4893_885" result="shape"/>
</filter>
</defs>
</svg>
